<?xml version="1.0" encoding="UTF-8" standalone="no"?>
<!-- Created with Inkscape (http://www.inkscape.org/) -->

<svg
   xmlns:dc="http://purl.org/dc/elements/1.1/"
   xmlns:cc="http://creativecommons.org/ns#"
   xmlns:rdf="http://www.w3.org/1999/02/22-rdf-syntax-ns#"
   xmlns:svg="http://www.w3.org/2000/svg"
   xmlns="http://www.w3.org/2000/svg"
   xmlns:sodipodi="http://sodipodi.sourceforge.net/DTD/sodipodi-0.dtd"
   xmlns:inkscape="http://www.inkscape.org/namespaces/inkscape"
   version="1.0"
   width="400"
   height="300"
   id="svg1"
   sodipodi:version="0.32"
   inkscape:version="0.48.4 r9939"
   sodipodi:docname="cascadia.svg"
   inkscape:output_extension="org.inkscape.output.svg.inkscape"
   sodipodi:modified="true">
  <metadata
     id="metadata9">
    <rdf:RDF>
      <cc:Work
         rdf:about="">
        <dc:format>image/svg+xml</dc:format>
        <dc:type
           rdf:resource="http://purl.org/dc/dcmitype/StillImage" />
      </cc:Work>
    </rdf:RDF>
  </metadata>
  <sodipodi:namedview
     inkscape:window-height="1018"
     inkscape:window-width="1920"
     inkscape:pageshadow="2"
     inkscape:pageopacity="0.0"
     guidetolerance="10.0"
     gridtolerance="10.0"
     objecttolerance="10.0"
     borderopacity="1.0"
     bordercolor="#666666"
     pagecolor="#ffffff"
     id="base"
     inkscape:zoom="1.777195"
     inkscape:cx="182.05732"
     inkscape:cy="175.73946"
     inkscape:window-x="-8"
     inkscape:window-y="-8"
     inkscape:current-layer="svg1"
     showgrid="false"
     inkscape:window-maximized="1" />
  <defs
     id="defs3" />
  <rect
     width="400"
     height="100"
     x="-2.220446e-015"
     y="200"
     style="fill:#085d05;fill-opacity:1;fill-rule:evenodd;stroke:none"
     id="rect908" />
  <rect
     width="400"
     height="100"
     x="-2.220446e-015"
     y="100"
     style="fill:#ffffff;fill-opacity:1;fill-rule:evenodd;stroke:none"
     id="rect1530" />
  <rect
     width="400"
     height="100"
     x="-2.220446e-015"
     y="0"
     style="fill:#121cc0;fill-opacity:1;fill-rule:evenodd;stroke:none"
     id="rect1531" />
  <path
     style="fill:#002200"
     d="m 186.36962,298.50506 0,-1.49494 -0.65265,-0.72252 c -0.6458,-0.71489 -0.65144,-0.73308 -0.5379,-1.73676 0.11096,-0.98082 0.0968,-1.03277 -0.42929,-1.57558 -0.49121,-0.50675 -0.52844,-0.61525 -0.38348,-1.11709 l 0.16054,-0.55575 1.17316,-0.007 c 1.07328,-0.006 1.19106,-0.0422 1.38334,-0.42219 0.15597,-0.3082 0.2108,-1.99449 0.21266,-6.5415 l 0.002,-6.12621 -0.46443,-0.17995 c -0.32913,-0.12759 -0.61287,-0.12726 -0.97395,9e-4 -0.28025,0.0995 -0.88822,0.13669 -1.35107,0.0828 -0.75389,-0.0879 -0.88418,-0.0524 -1.25096,0.34106 l -0.40942,0.43915 -3.46855,0 -3.46855,0 -0.37044,-0.46448 c -0.344,-0.43127 -0.44824,-0.46118 -1.46109,-0.41939 -1.25888,0.0519 -1.52719,-0.13489 -1.44367,-1.00507 l 0.0537,-0.55986 1.25019,-0.0123 c 1.14612,-0.0112 1.28019,-0.0499 1.61073,-0.4644 0.34209,-0.42906 0.437,-0.45217 1.85359,-0.45217 1.36433,0 1.57294,-0.0457 2.41981,-0.53028 l 0.92676,-0.53018 2.07327,0.11513 2.07328,0.11522 0.36974,-0.59821 c 0.32247,-0.52184 0.45505,-0.59828 1.03713,-0.59828 0.53631,0 0.78235,-0.11498 1.25283,-0.58551 0.67988,-0.67983 0.70313,-0.77972 0.2477,-1.06416 -0.24689,-0.15413 -0.33775,-0.39383 -0.33775,-0.89075 0,-0.59672 -0.0716,-0.72202 -0.58602,-1.02547 -0.81073,-0.47839 -0.92675,-1.16642 -0.36711,-2.17722 0.5328,-0.96246 0.78424,-2.34439 0.78424,-4.31028 0,-1.33129 0.047,-1.58975 0.33681,-1.85198 0.49098,-0.44438 0.67448,-1.30777 0.67554,-3.17868 8.4e-4,-1.49289 0.0417,-1.71144 0.40999,-2.1955 0.80465,-1.05751 0.75751,-1.26565 -0.59929,-2.64693 -1.18778,-1.20912 -1.25141,-1.24796 -2.16338,-1.31908 -0.75561,-0.0589 -1.01328,-0.16037 -1.31592,-0.5179 l -0.37631,-0.44465 -0.72143,0.78882 c -0.91073,0.99588 -1.1769,1.12265 -2.64259,1.25885 -1.19338,0.11095 -1.19343,0.11095 -1.37407,-0.36417 -0.22022,-0.5792 -0.1068,-0.92672 0.34064,-1.04374 0.45111,-0.11792 0.42448,-0.35343 -0.0853,-0.7544 -0.59958,-0.4716 -0.52564,-0.8728 0.27826,-1.50953 0.54235,-0.42956 0.93143,-0.58197 1.72373,-0.6754 0.86423,-0.10194 1.09004,-0.20191 1.4528,-0.64311 0.40434,-0.49183 0.49741,-0.5224 1.58732,-0.52092 0.98987,0.001 1.23058,-0.0597 1.65957,-0.42072 0.27598,-0.23223 0.70872,-0.42218 0.96167,-0.42218 0.60582,0 0.86525,-0.28444 0.86525,-0.94861 0,-0.39309 0.12374,-0.63336 0.44796,-0.86953 0.69564,-0.50676 0.37248,-0.69793 -1.17019,-0.69244 l -1.38881,0.005 -0.75998,0.73932 c -1.12621,1.09562 -1.76493,1.25959 -4.90733,1.25959 l -2.6694,0 -0.36077,-0.50667 c -0.33559,-0.47127 -0.43513,-0.50667 -1.42631,-0.50667 -1.22497,0 -1.31198,-0.0679 -1.76254,-1.37751 -1.20479,-3.50184 -2.0906,-4.0329 -6.18416,-3.70772 -1.28477,0.10206 -2.0873,0.10208 -2.19247,0 -0.0912,-0.0885 -0.19489,-0.73544 -0.23033,-1.43757 l -0.0645,-1.27659 0.65255,-0.6683 c 0.414,-0.42401 0.90983,-0.7331 1.3564,-0.84557 0.38713,-0.0975 0.87536,-0.3598 1.08496,-0.58291 0.27237,-0.28992 0.56374,-0.40566 1.02124,-0.40566 0.49203,0 0.68645,-0.0879 0.84015,-0.37999 0.2978,-0.56582 3.03308,-3.32858 3.57577,-3.61168 0.42456,-0.22147 0.45938,-0.30564 0.35553,-0.85922 -0.10092,-0.53796 -0.0573,-0.65979 0.35308,-0.98704 0.48424,-0.38614 0.45615,-0.7485 -0.0581,-0.7485 -0.16191,0 -1.15101,0.91196 -2.19804,2.02658 -1.87312,1.99406 -1.9156,2.02661 -2.64678,2.02661 -0.65486,0 -0.77423,0.0601 -1.00511,0.50664 l -0.26201,0.50666 -2.29227,0 -2.29226,0 -0.47327,-0.50666 c -0.66771,-0.71475 -1.04824,-0.64993 -1.74336,0.29704 -0.6991,0.95233 -1.75509,1.83755 -2.37883,1.9941 -0.35102,0.0881 -0.53527,0.0172 -0.85657,-0.32948 -0.22515,-0.24293 -0.51913,-0.4417 -0.65327,-0.4417 -0.13413,0 -0.47976,-0.26865 -0.76803,-0.59697 -0.4695,-0.53472 -0.52415,-0.70969 -0.52415,-1.67784 0,-0.59449 0.0796,-1.29029 0.17693,-1.54627 0.21162,-0.55655 3.62374,-3.97322 5.37441,-5.38155 1.17639,-0.94635 1.30315,-1.00511 2.30603,-1.06896 0.99245,-0.0632 1.07992,-0.039 1.35006,0.37328 0.39259,0.59915 0.59927,0.55069 1.09443,-0.25652 0.23222,-0.37854 0.7072,-0.91487 1.05552,-1.19182 0.52965,-0.42113 0.63331,-0.60718 0.63331,-1.13663 0,-0.53395 0.10423,-0.71682 0.66565,-1.16798 0.36608,-0.29421 0.85423,-0.53493 1.08476,-0.53493 0.50403,0 1.30613,-0.64266 1.80054,-1.44262 0.33207,-0.53729 0.42696,-0.58396 1.18722,-0.58396 0.7473,0 0.85135,-0.0484 1.08829,-0.50665 0.23098,-0.44665 0.35014,-0.50666 1.00615,-0.50666 0.63871,0 0.79672,-0.0738 1.11535,-0.52132 0.32559,-0.45725 0.44054,-0.50831 0.93529,-0.4155 0.52277,0.0981 0.58207,0.0627 0.80998,-0.48272 0.23218,-0.55571 0.29605,-0.59141 1.14503,-0.64002 l 0.89911,-0.0515 0.0511,-0.98534 c 0.0646,-1.24617 -0.13499,-1.52179 -0.99663,-1.3762 -0.55703,0.0941 -0.66958,0.0533 -0.92381,-0.33468 -0.50794,-0.77519 -0.83016,-0.83198 -1.48052,-0.26097 -0.40785,0.3581 -0.75372,0.50838 -1.16998,0.50838 -0.47915,0 -0.678,0.11411 -1.05087,0.60295 -0.4226,0.55405 -0.51138,0.59427 -1.09466,0.49572 -0.59566,-0.10063 -0.65708,-0.0694 -0.99735,0.50733 l -0.36261,0.61459 -1.50675,-0.11789 c -1.36247,-0.10658 -1.5626,-0.0833 -2.09028,0.24278 -0.32096,0.19837 -0.69424,0.3182 -0.82953,0.26629 -0.13528,-0.0519 -0.64064,0.0612 -1.12302,0.25131 -1.09585,0.43194 -1.40845,0.43332 -1.79342,0.008 -0.25577,-0.28264 -0.52016,-0.33777 -1.61957,-0.33777 -0.72264,0 -1.50354,0.0721 -1.73533,0.16022 -0.32927,0.12519 -0.51293,0.0882 -0.83982,-0.16889 -0.2431,-0.1912 -0.67958,-0.3291 -1.04175,-0.3291 -1.14691,0 -2.18405,-1.64269 -2.0783,-3.29175 0.0659,-1.0274 0.13656,-1.05146 3.33908,-1.13702 l 2.34063,-0.0625 0.50058,-0.53588 0.50059,-0.53587 1.95804,0.10493 1.958,0.10493 0.16394,-0.4312 c 0.24972,-0.6568 1.12027,-0.86926 3.01586,-0.736 1.58714,0.11155 1.59061,0.11093 2.15666,-0.38605 0.62574,-0.54943 1.50015,-0.71341 3.4462,-0.64633 1.0294,0.0355 1.09382,0.0149 1.20757,-0.38474 0.0661,-0.23221 0.12778,-1.25817 0.13708,-2.27992 l 0.017,-1.85771 0.75985,-0.96794 c 0.41793,-0.53236 0.75988,-1.04266 0.75988,-1.13401 0,-0.29661 0.70383,-0.5523 1.23046,-0.44697 0.85607,0.17122 1.30279,-0.25195 1.30279,-1.23416 0,-1.02137 -0.26393,-1.28119 -1.13811,-1.12046 -0.63015,0.11589 -1.56403,0.82442 -1.56403,1.18664 0,0.10376 -0.22799,0.54818 -0.50665,0.98756 -0.27865,0.4394 -0.50665,0.88207 -0.50665,0.98368 0,0.24056 -1.14088,1.51735 -1.59221,1.78191 -0.19247,0.11281 -0.51835,0.2078 -0.72421,0.2111 -0.20582,0.003 -0.64116,0.13326 -0.96737,0.28882 -0.55473,0.26454 -0.61335,0.26454 -0.90567,0 -0.40424,-0.36584 -0.52325,-0.35677 -0.98283,0.075 l -0.3809,0.35783 -0.88755,-0.44227 c -0.80799,-0.40264 -1.06773,-0.44229 -2.89765,-0.44229 l -2.01014,0 -0.47328,0.50665 c -0.29894,0.32002 -0.64058,0.50665 -0.92745,0.50665 -0.9405,0 -3.10503,2.28181 -3.76971,3.97392 -0.29221,0.74395 -0.39667,0.84736 -0.97792,0.96812 -0.35792,0.0744 -0.84655,0.32278 -1.08584,0.55204 -0.43221,0.41406 -0.4569,0.41682 -3.72953,0.41682 l -3.29443,0 -0.37244,-0.50376 c -0.3591,-0.48569 -0.40797,-0.50003 -1.36365,-0.40015 -0.54515,0.057 -1.34229,0.051 -1.7714,-0.0134 -0.64826,-0.0972 -0.85143,-0.22183 -1.20137,-0.73679 -0.52863,-0.77798 -0.57445,-1.79852 -0.0923,-2.05656 0.18085,-0.0968 0.67567,-0.47616 1.09955,-0.84304 0.45485,-0.39367 1.02954,-0.71496 1.40221,-0.78391 0.48696,-0.0901 0.85715,-0.36232 1.61753,-1.18949 0.95778,-1.0419 1.01012,-1.07265 1.82675,-1.07265 0.63658,0 0.97515,-0.10253 1.39427,-0.4222 0.30444,-0.23221 0.77436,-0.42303 1.04425,-0.42403 0.7904,-0.003 2.13199,-0.47726 2.59531,-0.91756 0.23576,-0.22402 0.84645,-0.57112 1.35707,-0.77129 0.51064,-0.20018 1.01559,-0.43628 1.12209,-0.52466 0.10651,-0.0884 0.58257,-0.20676 1.05795,-0.26307 0.66122,-0.0783 1.18494,-0.31454 2.22891,-1.00533 0.75054,-0.49665 1.65513,-0.99004 2.01019,-1.09641 0.56797,-0.17017 0.6676,-0.28092 0.82886,-0.92133 0.20523,-0.81506 0.23575,-1.59614 0.0784,-2.00625 -0.15597,-0.40644 -0.97088,-0.76754 -1.73212,-0.76754 -0.56577,0 -0.75065,0.0958 -1.17284,0.60804 l -0.5012,0.60804 -1.42427,0.0121 c -1.13393,0.01 -1.57874,-0.0627 -2.18209,-0.35471 -0.41682,-0.20178 -0.92639,-0.36686 -1.13242,-0.36686 -0.24682,0 -0.48988,-0.19544 -0.71265,-0.57296 -0.3239,-0.54898 -0.5779,-0.70607 -1.50688,-0.93194 -0.3455,-0.084 -0.44727,-0.24701 -0.56848,-0.91039 -0.16718,-0.9151 0.0352,-1.27768 0.91709,-1.64296 0.27193,-0.11264 0.49443,-0.26237 0.49443,-0.33271 0,-0.0704 0.23186,-0.22395 0.51525,-0.34134 0.73184,-0.30313 0.60495,-0.79903 -0.3307,-1.29263 -0.95328,-0.50286 -2.308,-0.54787 -2.456,-0.0816 -0.29938,0.94334 -2.35718,1.86064 -4.62605,2.0622 -0.8971,0.0797 -1.87808,0.1958 -2.17996,0.258 -0.49177,0.10133 -0.54888,0.0731 -0.54888,-0.2718 0,-0.24094 -0.25606,-0.60408 -0.68471,-0.97098 -0.52885,-0.45268 -0.67302,-0.68702 -0.63331,-1.0295 0.0501,-0.43211 0.088,-0.44555 1.48691,-0.52785 0.78954,-0.0464 1.52935,-0.14522 1.64408,-0.21949 0.12939,-0.0838 0.20141,-0.50045 0.18969,-1.09774 -0.0114,-0.58113 0.10861,-1.29737 0.30276,-1.8071 l 0.32159,-0.84442 1.13531,-0.0499 c 0.66904,-0.0294 1.1353,-0.12478 1.1353,-0.2322 0,-0.11468 0.19879,-0.14253 0.53601,-0.0751 1.04919,0.20983 2.12563,-0.98782 1.41668,-1.5762 -0.15928,-0.13217 -0.50575,-0.16205 -1.00729,-0.0868 -0.75215,0.1128 -0.76926,0.10476 -1.05515,-0.49472 -0.21253,-0.4457 -0.39763,-0.60937 -0.68919,-0.60937 -0.21922,0 -0.58859,-0.18999 -0.8208,-0.4222 -0.23222,-0.23223 -0.58976,-0.42272 -0.79453,-0.42333 -0.20477,-6e-4 -0.60029,-0.1521 -0.87895,-0.33665 -0.27867,-0.18455 -0.71114,-0.33604 -0.96111,-0.33665 -0.61609,-0.002 -0.73822,-0.2687 -0.24649,-0.53919 0.22186,-0.12204 0.70235,-0.3868 1.06775,-0.58835 0.36541,-0.20154 0.75277,-0.56042 0.86079,-0.79753 0.10909,-0.23938 0.47714,-0.54838 0.82777,-0.69487 0.34724,-0.14508 0.94025,-0.58417 1.31781,-0.97573 0.37757,-0.39159 0.95101,-0.83735 1.27434,-0.99059 3.94725,-1.87084 3.72164,-1.79118 5.34188,-1.88638 1.04847,-0.0616 1.75431,-0.19664 2.19548,-0.42 0.77153,-0.39065 1.67974,-0.61712 2.22783,-0.55555 1.23279,0.13851 2.45555,-1.4951 1.63119,-2.17926 -0.13933,-0.11563 -0.25332,-0.34849 -0.25332,-0.51745 0,-0.17627 -0.43193,-0.63958 -1.01331,-1.08694 -0.89114,-0.68571 -1.0133,-0.84978 -1.0133,-1.36092 0,-0.67586 0.12415,-0.63997 -2.26377,-0.65448 -1.97692,-0.012 -2.39159,-0.20066 -1.47873,-0.67273 0.62563,-0.32352 1.20926,-1.24472 1.20926,-1.90867 0,-0.7312 -0.32456,-1.54847 -0.6933,-1.74582 -0.20089,-0.10751 -0.32,-0.35314 -0.32,-0.65991 0,-0.26875 -0.11287,-0.60153 -0.25086,-0.7395 -0.32356,-0.32356 -1.70435,-0.61768 -2.8998,-0.61768 -1.09499,0 -3.40416,-0.36593 -5.51319,-0.87364 -1.32031,-0.31787 -1.76677,-0.34477 -3.99718,-0.24091 l -2.51086,0.11692 -0.30932,-0.44556 c -0.17014,-0.24505 -0.44235,-0.56946 -0.6049,-0.72089 -0.32578,-0.30351 -0.40021,-0.87581 -0.11392,-0.87581 0.11605,0 0.16178,-0.38103 0.12666,-1.05552 l -0.055,-1.05553 0.66556,-0.0543 c 0.392,-0.032 0.86259,-0.22012 1.14492,-0.4577 0.53256,-0.44811 0.88445,-0.52405 3.08188,-0.66505 1.32641,-0.0851 1.57122,-0.15133 1.96932,-0.53273 0.42868,-0.41072 0.57296,-0.43928 2.53021,-0.50098 l 2.07562,-0.0654 0.69019,-0.67738 0.6902,-0.67738 1.87973,0 c 1.03386,0 1.99839,-0.0455 2.14344,-0.10119 0.14505,-0.0557 0.42346,-0.35966 0.61868,-0.67553 0.30598,-0.49509 0.44628,-0.57434 1.01672,-0.57434 l 0.66176,0 0,-0.99262 c 0,-0.70988 -0.0781,-1.05744 -0.2742,-1.22018 -0.22275,-0.18488 -0.2551,-0.43203 -0.17241,-1.31756 0.056,-0.59948 0.17054,-1.15873 0.25459,-1.24278 0.0841,-0.084 1.92858,-0.1566 4.09893,-0.16123 2.17039,-0.005 4.07384,-0.0741 4.2299,-0.15434 0.15607,-0.0803 0.30807,-0.31708 0.33777,-0.52627 0.051,-0.3588 0.14945,-0.38515 1.73705,-0.46481 1.60084,-0.0803 1.69516,-0.10607 1.93082,-0.52709 0.22935,-0.40975 0.21721,-0.48083 -0.16311,-0.95594 -0.24905,-0.31114 -0.79275,-0.65563 -1.38058,-0.87476 -0.53336,-0.19883 -1.049,-0.50963 -1.1459,-0.69068 -0.24622,-0.46006 -0.44991,-0.41561 -1.19983,0.2619 l -0.65428,0.59109 -4.41529,0 -4.4153,0 -0.69299,0.56785 c -0.42645,0.34945 -0.88447,0.96851 -1.19088,1.60959 -0.35195,0.73636 -0.61513,1.07115 -0.8978,1.14211 -0.21994,0.0552 -0.57507,0.37789 -0.78921,0.71709 -0.30535,0.48372 -0.58524,0.67757 -1.29763,0.89872 -1.14261,0.35471 -3.38695,0.46377 -3.4851,0.16934 -0.0405,-0.1216 -0.37512,-0.20709 -0.8106,-0.20709 -0.6515,0 -0.77306,0.0609 -1.00098,0.50165 -0.34201,0.66141 -0.72387,0.84509 -1.53186,0.73685 -0.55442,-0.0743 -0.74558,-0.0156 -1.13932,0.34942 -0.28779,0.26683 -0.66884,0.43867 -0.97273,0.43867 -0.29401,0 -0.62054,0.14166 -0.7935,0.34422 -0.25437,0.29794 -0.41881,0.3298 -1.22275,0.23689 -0.51087,-0.059 -1.6646,-0.28993 -2.56385,-0.51311 -0.89924,-0.22317 -1.8784,-0.40576 -2.17588,-0.40576 -0.29749,0 -0.8157,-0.0702 -1.15158,-0.15611 -0.33587,-0.0858 -1.02866,-0.24081 -1.53955,-0.34437 -1.22687,-0.24869 -1.74405,-0.79887 -1.48499,-1.57975 0.25279,-0.76199 0.46964,-0.94353 1.40522,-1.17635 0.66153,-0.16464 0.8455,-0.28952 0.92465,-0.62773 0.11866,-0.50696 0.76796,-0.64372 3.14803,-0.66301 1.15913,-0.009 1.56673,-0.0715 1.63486,-0.24901 0.11131,-0.29008 1.68429,-1.34937 2.52591,-1.70103 0.33957,-0.14187 1.03517,-0.25796 1.54579,-0.25796 0.87875,0 0.96711,-0.0403 1.65204,-0.75445 0.82619,-0.86137 2.26463,-1.61449 3.85313,-2.01738 1.38611,-0.35154 3.13201,-1.21454 4.61704,-2.28216 0.63804,-0.45872 1.588,-1.00467 2.11103,-1.21325 1.51766,-0.60522 2.58376,-1.2604 3.39269,-2.08497 0.58121,-0.59246 0.87558,-0.76747 1.29078,-0.76747 0.57955,0 0.74287,-0.22008 0.74287,-1.00094 0,-0.63735 -0.48184,-1.02489 -1.27991,-1.02942 -0.38453,-0.002 -0.83582,-0.13717 -1.07619,-0.32189 l -0.41396,-0.31814 0.45619,-0.65826 c 0.32437,-0.46809 0.4579,-0.8752 0.46215,-1.40916 0.003,-0.41299 0.11459,-0.94088 0.24734,-1.17309 0.36965,-0.64665 0.31998,-0.75739 -0.63478,-1.41495 -1.07889,-0.74307 -1.3896,-0.76246 -1.7281,-0.10786 -0.14329,0.27708 -0.48722,0.62102 -0.76431,0.76431 -0.38782,0.20055 -0.50379,0.37614 -0.50379,0.76283 0,0.43394 -0.0632,0.50313 -0.46443,0.5083 -0.51251,0.007 -0.93831,0.22245 -1.56791,0.79484 -0.22906,0.20824 -0.68192,0.61985 -1.00636,0.91467 -0.4559,0.41428 -0.86633,0.58825 -1.80677,0.76582 -0.66925,0.12637 -1.46412,0.33373 -1.76633,0.46081 -0.51125,0.21496 -0.60901,0.19744 -1.40488,-0.25171 -1.3199,-0.7449 -3.63626,-0.89383 -3.63626,-0.23379 0,0.34452 -1.43558,1.66741 -2.32388,2.14146 -0.39571,0.21117 -0.76181,0.51695 -0.81355,0.6795 -0.12618,0.39632 -0.62345,0.37408 -1.00256,-0.0448 -0.36277,-0.40085 -0.52401,-1.83621 -0.30197,-2.68825 0.17794,-0.68289 1.23733,-1.48782 2.65748,-2.01916 0.5027,-0.18809 1.47046,-0.69866 2.1506,-1.13459 0.80979,-0.51908 1.48458,-0.82059 1.95516,-0.87364 l 0.71862,-0.081 0,-0.80864 c 0,-1.08706 0.1229,-1.34291 0.64504,-1.34291 0.26738,0 0.57503,-0.16756 0.78412,-0.42708 0.29433,-0.36528 0.52738,-0.4423 1.61074,-0.53227 0.69663,-0.0579 2.04578,-0.0884 2.99807,-0.0679 1.341,0.0289 1.7878,-0.0191 1.98136,-0.21262 0.13746,-0.13745 0.33,-0.2766 0.42789,-0.30923 0.0979,-0.0326 0.28163,-0.36241 0.40833,-0.73284 0.28299,-0.82738 0.4888,-0.86784 3.00648,-0.59116 l 1.81348,0.1993 0.60708,-0.6437 c 0.4942,-0.52402 0.5951,-0.74646 0.54257,-1.19634 -0.052,-0.44585 -0.005,-0.55264 0.24353,-0.55264 0.34755,0 0.63744,-0.61559 0.63744,-1.35366 0,-0.27367 0.11999,-0.55442 0.27372,-0.64046 0.15056,-0.0842 0.51154,-0.601 0.80219,-1.14834 0.41855,-0.78817 0.62236,-1.00602 0.97985,-1.04734 0.32469,-0.0375 0.49997,-0.19159 0.62453,-0.54888 0.15319,-0.43946 0.252,-0.49669 0.85747,-0.49669 0.45672,0 0.79546,-0.11116 1.01856,-0.33425 0.25258,-0.25259 0.46408,-0.30828 0.86571,-0.22795 0.39625,0.0793 0.57116,0.0354 0.68745,-0.17241 0.11799,-0.21083 0.40335,-0.27869 1.17197,-0.27869 1.5904,0 1.6183,-0.035 1.62535,-2.03881 l 0.006,-1.71596 -0.95211,0.0993 c -3.23686,0.3377 -3.13063,0.31429 -3.5724,0.78722 -0.23453,0.25105 -0.60278,0.51243 -0.81839,0.58086 -0.22323,0.0708 -0.49651,0.37449 -0.63469,0.70523 -0.13479,0.3226 -0.42615,0.65057 -0.6554,0.73773 -0.23071,0.0877 -0.4606,0.34771 -0.52131,0.58955 -0.0597,0.23794 -0.25104,0.50889 -0.42517,0.60207 -0.17412,0.0932 -0.43005,0.38884 -0.56874,0.65702 -0.16126,0.31186 -0.43683,0.52813 -0.76464,0.60015 -0.32356,0.0711 -0.60311,0.28773 -0.75822,0.58766 -0.29374,0.56805 -1.18028,0.90823 -3.15445,1.21044 l -1.36311,0.20867 -0.44423,-0.53575 c -0.43884,-0.52925 -0.4647,-0.5363 -2.13306,-0.58119 l -1.68883,-0.0454 -0.0897,-0.92886 c -0.10384,-1.07594 -0.36215,-1.62185 -0.83902,-1.77321 -0.25316,-0.0804 -0.33794,-0.25547 -0.33794,-0.69807 0,-1.25614 -0.68668,-1.66292 -1.10738,-0.656 -0.16931,0.4052 -0.38986,0.62206 -0.70914,0.69722 -0.49451,0.11642 -1.1104,0.45173 -2.53379,1.37945 -0.87145,0.56798 -1.39172,0.62223 -1.39172,0.14513 0,-0.1323 -0.11399,-0.2843 -0.25331,-0.33776 -0.15195,-0.0583 -0.25577,-0.31899 -0.25942,-0.65138 -0.006,-0.59014 -0.5019,-1.3095 -1.12278,-1.63024 -0.20288,-0.1048 -1.12482,-0.19056 -2.04877,-0.19056 l -1.67988,0 -0.46174,-0.60537 c -0.25397,-0.33296 -0.39598,-0.66433 -0.3156,-0.73638 0.1821,-0.16322 4.41734,-0.68485 5.56043,-0.68485 0.46402,0 0.99751,-0.10773 1.18549,-0.2394 0.19292,-0.13513 0.92658,-0.27487 1.68419,-0.32079 2.06976,-0.12547 2.42491,-0.24088 2.73361,-0.88822 0.23893,-0.50102 0.35191,-0.56736 1.04274,-0.61226 0.7562,-0.0491 0.77603,-0.0649 0.8256,-0.6562 l 0.0508,-0.60584 -1.62398,-0.64265 c -3.04841,-1.20634 -2.96427,-1.59192 0.37886,-1.7363 l 2.15684,-0.0931 0.85978,-0.64913 c 0.57549,-0.43451 1.03617,-0.649138 1.39329,-0.649138 0.44414,0 0.53353,-0.06509 0.53353,-0.388437 0,-0.554659 0.31207,-0.79375 1.03608,-0.79375 0.82607,0 1.49717,-0.264094 1.49717,-0.589207 0,-0.142881 0.0931,-0.408862 0.20688,-0.591053 0.30988,-0.496208 -0.0562,-0.754582 -1.09971,-0.776199 -0.63901,-0.01326 -1.00623,0.07518 -1.34148,0.323043 -0.37756,0.279133 -0.79838,0.355163 -2.31085,0.417487 -2.35793,0.09714 -2.63739,0.02617 -2.88811,-0.733515 -0.11644,-0.352818 -0.4275,-0.751503 -0.75769,-0.971158 -1.23606,-0.822231 -3.10181,-2.414462 -3.11267,-2.656347 -0.008,-0.174839 0.27385,-0.323502 0.88004,-0.464436 1.19008,-0.276687 1.80879,-0.261228 2.15697,0.05388 0.26181,0.236918 0.35712,0.225161 1.02661,-0.126658 0.6569,-0.345201 1.0194,-0.394106 3.29801,-0.444918 2.45144,-0.05467 2.5762,-0.07436 2.94266,-0.464426 0.34358,-0.365728 0.52291,-0.407342 1.75496,-0.407342 0.75476,0 1.44449,-0.06956 1.53274,-0.154588 0.0882,-0.08501 0.35043,-0.180019 0.58265,-0.211099 0.60698,-0.08126 0.55733,-0.659333 -0.0845,-0.98311 -0.41449,-0.209101 -1.14103,-0.246249 -3.99445,-0.204207 -3.9304,0.05791 -4.44732,-0.04599 -5.03647,-1.012303 -0.18745,-0.307472 -0.34111,-0.651318 -0.34147,-0.764097 -3.2e-4,-0.11279 0.464,-0.656885 1.03184,-1.209107 1.65528,-1.60971 1.26872,-1.873008 -2.75511,-1.876557 -2.49537,-0.0022 -2.83923,-0.03613 -2.98374,-0.294348 -0.13693,-0.244699 -0.3707,-0.283214 -1.44624,-0.238336 l -1.28292,0.05354 -0.24895,-0.595814 c -0.19936,-0.477141 -0.49323,-0.722513 -1.47537,-1.231877 -1.44011,-0.746875 -4.35077,-3.489978 -4.35077,-4.100313 0,-0.526648 0.41127,-0.600189 0.98488,-0.176093 0.52807,0.390425 0.89166,0.396696 3.99717,0.06905 0.94088,-0.09926 1.04256,-0.07559 1.42272,0.331385 0.50227,0.537681 0.80006,0.550784 1.32452,0.0583 0.32293,-0.30326 0.60111,-0.379983 1.37757,-0.379983 1.02849,0 1.53278,-0.250043 1.53278,-0.759978 0,-0.16302 -0.114,-0.391016 -0.25333,-0.506651 -0.37953,-0.314977 -0.31288,-0.551559 0.33131,-1.175926 l 0.58462,-0.566641 2.22288,0.185974 c 2.43134,0.203411 2.9505,0.435334 3.05844,1.366275 0.0364,0.313906 0.1502,0.443644 0.38919,0.443644 0.29212,0 0.34455,-0.12933 0.38801,-0.957444 l 0.0502,-0.957443 -0.76294,-0.524915 c -0.99588,-0.685182 -1.62838,-1.532956 -1.87408,-2.511935 -0.23953,-0.954344 -0.6114,-1.180087 -2.18617,-1.327149 -1.02569,-0.09578 -1.13203,-0.144533 -1.45502,-0.667153 -0.19165,-0.310103 -0.81019,-0.975105 -1.3745,-1.47778 -0.73765,-0.657078 -0.99569,-0.993011 -0.91809,-1.195249 0.0925,-0.240967 0.2837,-0.266042 1.33367,-0.17488 1.62697,0.14126 2.97994,0.406363 3.53949,0.693544 0.25083,0.128727 0.64054,0.234053 0.866,0.234053 0.2255,0 0.70426,0.127749 1.06392,0.283886 0.43281,0.187902 1.13932,0.287833 2.08945,0.295542 l 1.4355,0.01166 0.0548,0.478284 c 0.0954,0.833386 0.8682,1.018116 3.65974,0.874939 2.2344,-0.114605 2.95638,-0.254998 2.95638,-0.574911 0,-0.07626 -0.2549,-0.472573 -0.56643,-0.8807 -0.8427,-1.103966 -0.88802,-1.390503 -0.3304,-2.089339 0.27633,-0.346323 0.62514,-0.594846 0.83491,-0.594846 0.2086,0 0.3947,-0.131624 0.44204,-0.312601 0.0551,-0.210886 0.2983,-0.347231 0.74723,-0.419028 0.65765,-0.105153 1.25312,-0.582865 1.46145,-1.172459 0.0804,-0.227364 0.21272,-0.272884 0.54853,-0.188595 0.3684,0.09246 0.43261,0.05899 0.38281,-0.199557 -0.0329,-0.170852 -0.2494,-0.355082 -0.48115,-0.409412 -0.26604,-0.06237 -0.44122,-0.236388 -0.47531,-0.472206 -0.0654,-0.452281 -0.38145,-0.633299 -1.3815,-0.791313 -0.41799,-0.06605 -1.00477,-0.261004 -1.30398,-0.433263 -0.29922,-0.172239 -0.8312,-0.366941 -1.18219,-0.432672 -0.35098,-0.06573 -0.88847,-0.223978 -1.19438,-0.351666 -0.30594,-0.127688 -1.29391,-0.38134 -2.19548,-0.563663 -0.90161,-0.182314 -2.09526,-0.494497 -2.65257,-0.693748 -1.00638,-0.359783 -2.67865,-1.382518 -3.10959,-1.901773 -0.12373,-0.149092 -0.31068,-0.271803 -0.4154,-0.27268 -0.37219,-0.0031 -2.30147,-1.345218 -2.30147,-1.600981 0,-0.143054 -0.21404,-0.391975 -0.47564,-0.55316 -0.76442,-0.470992 -3.57755,-3.513604 -3.57755,-3.86938 0,-0.662626 0.29381,-0.730201 3.1748,-0.730201 l 2.76948,0 0.47328,0.506651 c 0.44872,0.480353 0.54259,0.506641 1.80927,0.506641 1.28859,0 1.34928,0.01798 1.71057,0.506652 0.35825,0.484565 0.42978,0.506651 1.64032,0.506651 1.17414,0 1.27669,0.0288 1.41705,0.397931 0.16605,0.43675 1.02777,0.673424 1.85181,0.508619 0.30005,-0.06001 0.53235,4.59e-4 0.67858,0.176634 0.17545,0.211406 0.57301,0.267877 1.88614,0.267877 1.65311,0 1.66539,0.0031 1.90935,0.474857 0.19127,0.369827 0.43783,0.519225 1.11497,0.675525 1.20278,0.277636 1.96811,0.256895 2.08843,-0.05661 0.0543,-0.141515 0.0518,-0.599261 -0.005,-1.017219 -0.0906,-0.66078 -0.14777,-0.746078 -0.43855,-0.653795 -0.18392,0.05838 -0.51803,0.0079 -0.74248,-0.11227 -0.31598,-0.169108 -0.53063,-0.175093 -0.95096,-0.02654 -0.4407,0.155761 -2.19884,0.281735 -3.10164,0.222235 -0.10693,-0.0071 -0.34883,-0.274505 -0.53753,-0.594346 -0.50421,-0.854565 -1.89846,-1.160661 -3.10779,-0.682296 -0.21665,0.0857 -0.33711,4.69e-4 -0.46141,-0.326429 -0.19425,-0.510954 -0.76736,-0.77411 -1.68577,-0.77411 -0.47729,0 -0.71456,-0.09885 -0.91212,-0.379984 -0.59163,-0.841982 -0.78769,-1.017361 -1.15813,-1.036032 -0.35387,-0.01782 -0.39422,-0.116195 -0.47142,-1.149658 -0.0807,-1.080186 -0.1162,-1.157327 -0.8022,-1.744209 -0.5294,-0.452913 -0.71775,-0.738961 -0.71775,-1.090036 0,-0.509017 -0.73919,-1.286533 -1.69111,-1.778788 -0.27741,-0.143456 -0.50437,-0.357671 -0.50437,-0.476033 0,-0.295531 0.35058,-0.620848 0.66709,-0.619012 0.14397,8.44e-4 0.46532,-0.246149 0.71412,-0.548866 0.78851,-0.959423 1.86047,-0.712627 5.25758,1.210424 0.75216,0.425784 1.26468,0.580776 2.19548,0.663943 1.13282,0.101215 1.21807,0.136813 1.27079,0.530685 0.0787,0.587484 0.2991,0.772163 0.61185,0.512597 0.40854,-0.339053 0.31299,-0.655967 -0.41505,-1.37677 -0.54748,-0.542039 -0.67531,-0.787623 -0.67438,-1.295598 0.001,-0.554061 0.10866,-0.714979 0.92771,-1.386764 0.90712,-0.74402 0.92658,-0.778495 0.92771,-1.642271 10e-4,-0.801095 -0.0435,-0.905363 -0.4834,-1.13287 -0.2665,-0.137809 -1.59485,-1.412716 -2.95189,-2.833127 l -2.46733,-2.58256 -0.004,-0.941961 c -0.002,-0.608088 -0.15321,-1.310243 -0.42576,-1.981019 -0.39245,-0.965791 -0.42221,-1.23936 -0.42221,-3.879651 0,-1.984166 0.0611,-2.90169 0.20265,-3.043244 0.31983,-0.319827 1.3105,-0.255278 1.42553,0.09289 0.29125,0.881632 1.07725,2.2238 1.7227,2.941705 0.63921,0.710946 0.81851,0.815935 1.3935,0.815935 0.67934,0 1.0482,0.249084 1.58732,1.071903 0.15098,0.230424 0.53283,0.541524 0.84854,0.691346 0.73979,0.351048 0.79156,0.452309 0.56441,1.10391 -0.18384,0.527405 -0.1607,0.569943 0.88445,1.624472 1.27237,1.283767 1.61781,1.439562 2.03887,0.91955 0.25472,-0.314558 0.287,-0.578728 0.20389,-1.66806 -0.0807,-1.057086 -0.18838,-1.423189 -0.58772,-1.997458 -0.6715,-0.965676 -0.63304,-1.407283 0.18709,-2.148213 0.52666,-0.47582 0.81769,-0.610744 1.31729,-0.610744 0.3527,0 0.72252,-0.08127 0.82185,-0.180585 0.15337,-0.153353 0.45046,-0.254572 0.91924,-0.313139 0.19179,-0.02397 0.32046,-1.844236 0.16017,-2.26584 -0.10244,-0.269454 -0.34137,-0.458004 -0.67255,-0.530747 -0.32122,-0.07055 -0.59393,-0.279591 -0.72789,-0.557946 -0.13494,-0.280395 -0.4017,-0.483571 -0.72086,-0.549029 -0.73072,-0.149856 -1.26662,-0.473477 -1.26662,-0.764893 0,-0.138971 -0.133,-0.29984 -0.29555,-0.35749 -0.48953,-0.17361 -0.88663,-0.592739 -0.88663,-0.935855 0,-0.443098 0.86885,-1.669641 1.55022,-2.188424 0.87011,-0.662493 1.84515,-1.107903 2.70881,-1.237418 l 0.789,-0.118313 0.36801,0.782903 c 0.35901,0.763754 0.87359,1.279275 1.27691,1.279275 0.24355,0 1.7512,-1.440602 1.7512,-1.673312 0,-0.09129 0.20899,-0.265931 0.46443,-0.388113 0.37875,-0.181158 0.48062,-0.362454 0.55222,-0.982827 0.0535,-0.463527 0.26793,-0.996848 0.54888,-1.365187 0.25359,-0.332472 0.46107,-0.750707 0.46107,-0.929415 0,-0.509253 2.13043,-2.9364111 2.57743,-2.9364111 0.13554,0 0.52641,-0.1899999 0.86861,-0.4222106 0.51399,-0.3488193 0.82345,-0.4222096 1.78014,-0.4222096 1.13925,0 1.16352,0.00936 1.49877,0.5775548 0.20251,0.3432231 0.50049,0.6001725 0.73444,0.6333115 0.37731,0.05344 0.39445,0.118855 0.41287,1.575707 0.0164,1.297524 0.0843,1.641525 0.46442,2.350759 0.24487,0.456948 0.44523,1.003404 0.44523,1.214349 0,0.252714 0.28802,0.626396 0.84442,1.095553 0.79784,0.672751 0.84442,0.756885 0.84442,1.525359 0,0.802751 0.0126,0.821671 0.96794,1.453868 0.57347,0.379476 1.40673,1.188758 2.04459,1.985715 1.28707,1.608117 1.55149,1.811392 2.26653,1.742385 0.49374,-0.04765 0.55289,-0.0046 0.60345,0.438649 0.0308,0.270307 0.16059,0.651027 0.28837,0.846043 0.15508,0.236693 0.17941,0.438263 0.0732,0.606269 -0.24392,0.385785 -0.19436,0.795113 0.11041,0.912067 0.43408,0.166572 0.76854,-0.223918 0.65084,-0.759828 -0.093,-0.42348 0.0984,-0.668302 2.01908,-2.581994 1.29956,-1.294854 2.12185,-2.244599 2.12185,-2.450742 0,-0.448278 0.20831,-0.553538 1.09539,-0.553538 0.43613,0 0.82653,-0.09906 0.94289,-0.239257 0.1092,-0.131581 0.30564,-0.23925 0.4365,-0.23925 0.13087,0 0.28169,-0.113995 0.33516,-0.253319 0.0535,-0.139333 0.24107,-0.253328 0.41691,-0.253328 0.28924,0 0.31978,0.140734 0.32058,1.477723 4.7e-4,0.812757 0.049,2.204971 0.10789,3.093813 l 0.10704,1.616082 -0.62484,0.368667 c -0.61189,0.361021 -0.62246,0.384671 -0.50926,1.139483 0.10428,0.695484 0.0688,0.819607 -0.36298,1.27031 -0.41748,0.435747 -0.4562,0.5587 -0.30347,0.963324 0.197,0.521956 0.13322,0.874954 -0.16039,0.88759 -0.10837,0.0047 -1.06335,0.832244 -2.1222,1.839073 -2.02902,1.929369 -2.16685,2.2076 -1.26365,2.550994 0.24795,0.09427 1.23979,0.144143 2.2041,0.110816 l 1.75326,-0.06058 0.85364,-0.957768 c 0.7971,-0.894334 0.90365,-0.957769 1.60873,-0.957769 0.6916,0 0.77462,-0.04613 0.98758,-0.548865 0.12788,-0.301881 0.39001,-0.644514 0.58248,-0.761402 0.19402,-0.117837 0.34996,-0.388907 0.34996,-0.608342 0,-0.537344 0.64654,-1.45831 1.28591,-1.831721 0.43967,-0.256779 0.71351,-0.285656 1.68825,-0.178012 l 1.16348,0.128475 0,1.688833 c 0,1.63624 -0.0122,1.690553 -0.39045,1.74417 -0.62528,0.08862 -1.04369,0.961612 -1.04443,2.179141 -5.8e-4,0.97678 -0.0304,1.059783 -0.41603,1.156561 -0.38947,0.09774 -0.41846,0.183871 -0.46443,1.378749 -0.0504,1.308636 -0.0954,1.391763 -0.89345,1.646975 -0.31187,0.09974 -0.29557,0.142742 0.21263,0.561051 0.30272,0.249174 0.54972,0.550415 0.54887,0.669442 -0.005,0.65819 1.48944,0.03075 2.08265,-0.874643 0.23806,-0.363299 0.41694,-0.4395 1.03182,-0.4395 0.62687,0 0.8066,-0.0802 1.14295,-0.509975 l 0.39912,-0.509974 3.79299,0.04555 3.79297,0.04555 0.0513,0.704203 c 0.0453,0.621887 -0.002,0.730458 -0.40664,0.928857 -0.25184,0.123559 -0.50992,0.338651 -0.5735,0.477975 -0.34648,0.759229 -0.49064,0.929791 -0.8595,1.016859 -0.22335,0.05273 -0.43205,0.244019 -0.46484,0.426054 -0.0983,0.54558 -0.32174,0.663631 -0.78598,0.415179 -0.37118,-0.198645 -0.51127,-0.18968 -1.04996,0.0672 -0.38096,0.181666 -1.21354,0.331684 -2.15054,0.387498 -1.64763,0.09813 -1.95114,0.260974 -1.95114,1.046892 0,0.247404 -0.22272,0.653905 -0.53455,0.975616 -0.6302,0.650217 -0.68748,0.620102 1.69615,0.891737 l 1.75267,0.199732 0.83789,-0.855669 c 0.5697,-0.581792 0.97457,-0.855663 1.26492,-0.855663 0.23486,0 0.68669,-0.227999 1.00408,-0.506656 0.56917,-0.499731 0.60336,-0.506647 2.50737,-0.506647 2.30992,0 2.27999,-0.02748 2.27999,2.093998 0,1.207199 -0.0486,1.466674 -0.29991,1.601163 -0.17493,0.09363 -0.40973,0.09905 -0.56346,0.01302 -0.19305,-0.108038 -0.46291,0.0334 -1.00893,0.528799 -0.71443,0.648197 -0.74539,0.71613 -0.74539,1.635722 0,0.932604 -0.0141,0.961951 -0.50459,1.048993 -0.33011,0.05858 -0.52556,0.205889 -0.56527,0.426023 -0.0975,0.540588 -0.20419,0.575309 -1.88774,0.614098 -1.24842,0.02877 -1.69117,0.104745 -2.00501,0.34407 -0.24309,0.185393 -0.68678,0.307146 -1.11927,0.307146 -0.77066,0 -1.1616,0.29135 -1.0655,0.794086 0.0523,0.273486 0.33471,0.312041 2.84274,0.388091 l 2.78468,0.08445 0.51156,-0.53293 c 0.38814,-0.404354 0.71411,-0.559605 1.35106,-0.643516 1.17148,-0.154323 1.56474,-0.347098 1.62872,-0.79839 l 0.0552,-0.389528 3.20877,0 3.20878,0 0.0502,0.861989 c 0.0446,0.765147 0.002,0.89365 -0.37998,1.143856 -0.34498,0.226038 -0.43018,0.418732 -0.43018,0.972943 0,0.565254 -0.10272,0.787479 -0.56411,1.220507 -0.31025,0.291188 -0.61084,0.659812 -0.668,0.819182 -0.0879,0.245015 -0.38418,0.297173 -1.91925,0.337768 l -1.81533,0.04801 -0.29695,0.830939 c -0.49918,1.396774 -1.50728,2.444574 -2.76807,2.877001 -0.51953,0.178173 -0.6844,0.332271 -0.75056,0.701477 -0.10508,0.58627 -0.47327,0.702945 -2.27957,0.72238 -1.67996,0.01806 -2.09662,-0.08984 -2.28771,-0.592449 -0.15675,-0.412278 -1.10223,-0.914116 -1.46994,-0.780208 -0.4988,0.18163 -0.0914,1.05403 0.49227,1.05403 0.16393,0 0.37939,0.151987 0.47881,0.337757 0.0994,0.18577 0.35288,0.337778 0.56325,0.337778 0.50431,0 0.78782,0.303873 0.78782,0.844409 0,0.555434 -0.28572,0.844246 -0.83598,0.845041 -0.6193,9.18e-4 -1.5014,0.593031 -1.62661,1.091872 -0.0926,0.368787 -0.20058,0.427451 -0.78712,0.427451 -0.37394,0 -0.96646,-0.08587 -1.31676,-0.190818 -0.50812,-0.152242 -0.88337,-0.135162 -1.85581,0.08443 -1.37854,0.311316 -3.50121,0.363015 -4.08274,0.09944 -0.24005,-0.108793 -0.64547,-0.122355 -1.06347,-0.0356 -0.62464,0.129676 -0.67943,0.186606 -0.7273,0.755878 -0.0404,0.480516 0.0245,0.656436 0.29554,0.80151 0.19103,0.102225 0.34732,0.140892 0.34732,0.08594 0,-0.05496 0.22398,0.03238 0.49775,0.194091 0.41106,0.242813 0.57424,0.25919 0.93681,0.094 0.54753,-0.249471 1.61015,-0.253203 3.81464,-0.01338 1.93696,0.210723 2.35654,0.111862 2.72109,-0.641089 l 0.22969,-0.474429 1.85313,0 c 1.51537,0 1.97627,-0.06157 2.52867,-0.337768 0.63519,-0.317598 1.02178,-0.338226 6.47238,-0.345344 5.40758,-0.0071 5.80773,0.01279 5.95907,0.295542 0.12236,0.228639 0.36678,0.303118 0.99475,0.303118 0.65988,0 0.87005,0.0701 1.01341,0.338002 0.0995,0.185893 0.55817,0.529167 1.01925,0.762812 0.79257,0.401632 0.83836,0.461356 0.83836,1.093626 0,0.856319 0.55626,1.267669 1.71424,1.267669 0.67408,0 0.88951,-0.08653 1.36653,-0.548868 0.42726,-0.414123 0.71656,-0.548877 1.1784,-0.548877 0.50886,0 0.71332,-0.118215 1.21203,-0.700865 0.4642,-0.542321 0.72454,-0.704679 1.15084,-0.717752 0.42767,-0.0131 0.6014,-0.122181 0.77648,-0.487491 0.22536,-0.470187 0.22694,-0.470564 1.77555,-0.422199 l 1.54999,0.04839 0,0.928851 0,0.928851 -0.72695,0.05238 c -0.40973,0.02953 -0.7648,0.150998 -0.81367,0.27837 -0.0477,0.124302 -0.53296,0.583915 -1.07838,1.021369 -0.54541,0.437464 -1.06828,1.015169 -1.16192,1.283801 -0.0936,0.268631 -0.28799,0.488419 -0.43188,0.488419 -0.14389,0 -0.56189,0.271262 -0.92887,0.60282 -0.56537,0.510781 -0.67503,0.720851 -0.71822,1.375972 -0.0437,0.66183 -0.14258,0.847081 -0.68694,1.286554 -0.61799,0.498912 -0.69307,0.514911 -2.66206,0.567548 -1.52311,0.04072 -2.17744,-0.0091 -2.63568,-0.200535 -0.65169,-0.272293 -1.44548,-0.334546 -1.65058,-0.129452 -0.0689,0.06888 -0.55527,0.27787 -1.08088,0.464425 -0.89605,0.318027 -0.96222,0.379515 -1.06066,0.9857 -0.1171,0.721147 0.13156,1.615695 0.58996,2.122204 0.1664,0.183894 0.25619,0.409361 0.19952,0.501053 -0.0647,0.104693 -1.03404,0.130941 -2.60529,0.07055 l -2.50228,-0.09616 -0.36254,0.586617 c -0.40697,0.658506 -1.01172,1.003983 -1.52324,0.870228 -0.4034,-0.105499 -0.75758,0.473797 -1.09446,1.790136 -0.17312,0.676545 -0.35334,0.940476 -0.92479,1.354426 -0.63076,0.45692 -0.84193,0.514136 -1.89756,0.514136 -1.09333,0 -1.1999,-0.03175 -1.33958,-0.399174 -0.22526,-0.59245 -0.58204,-0.676953 -2.64324,-0.62606 l -1.8745,0.04628 -0.5966,-0.523823 c -0.7196,-0.631811 -1.18985,-0.661311 -1.74187,-0.109293 -0.45045,0.450456 -0.49796,0.695104 -0.2577,1.327026 0.20149,0.529962 0.95972,0.791691 2.29361,0.791691 0.84039,0 1.17267,0.08395 1.67113,0.422209 0.67833,0.460326 1.12203,0.525394 1.58997,0.233166 0.23836,-0.148856 0.46221,-0.108904 1.05322,0.187943 0.41281,0.207337 0.90253,0.512045 1.0883,0.677136 0.18577,0.16509 0.7621,0.524037 1.28072,0.797666 0.51865,0.273628 1.36246,0.775956 1.87519,1.116293 0.51273,0.340327 1.0167,0.618778 1.11992,0.618778 0.10322,0 0.27241,0.15829 0.37595,0.351769 0.16727,0.31254 0.2856,0.338991 1.06145,0.237255 0.48027,-0.06298 1.19072,-0.297275 1.57882,-0.520652 0.68762,-0.395789 0.80183,-0.406139 4.48246,-0.406139 l 3.77685,0 0.6994,0.717751 c 0.49962,0.512719 0.71471,0.886605 0.75293,1.308845 0.0491,0.542667 0.095,0.587891 0.56015,0.5521 2.86757,-0.220726 3.69796,-0.231137 4.79645,-0.06015 1.17016,0.18215 1.27318,0.172667 1.61525,-0.148694 0.22319,-0.209661 0.59468,-0.343253 0.95453,-0.343253 0.38622,0 0.82165,-0.170964 1.26407,-0.496332 0.43762,-0.32182 0.98175,-0.537049 1.54757,-0.6121 0.65565,-0.08698 0.93801,-0.215525 1.13551,-0.516961 0.19774,-0.301792 0.41655,-0.401203 0.88306,-0.401203 0.44148,0 0.7554,-0.129544 1.08937,-0.449518 0.35023,-0.335544 0.65234,-0.4533 1.19143,-0.464435 l 0.72223,-0.01491 0.0503,0.960798 c 0.0449,0.856951 0.008,0.982783 -0.33777,1.164311 -0.21346,0.111944 -0.85267,0.570812 -1.42047,1.019707 -1.00531,0.79479 -2.37817,1.330585 -3.40931,1.330585 -0.23526,0 -0.58636,0.210141 -0.84654,0.506652 -0.32262,0.367665 -0.59503,0.506651 -0.993,0.506651 -0.41307,0 -0.64054,0.124568 -0.92156,0.504684 -0.24509,0.331486 -0.58007,0.541484 -0.97613,0.611956 -0.33166,0.059 -0.77994,0.268866 -0.99618,0.466394 -0.2896,0.264542 -0.68841,0.38136 -1.51425,0.443552 -1.05495,0.07947 -1.14443,0.119316 -1.51706,0.675546 -0.39103,0.58367 -0.42079,0.594611 -2.37007,0.87242 -1.08575,0.15474 -2.4084,0.287731 -2.93927,0.295542 -0.83976,0.01237 -1.0393,-0.05085 -1.53541,-0.486441 -0.31364,-0.275362 -0.78332,-0.581682 -1.04377,-0.680706 l -0.47354,-0.180029 0.36234,-0.385714 c 0.45398,-0.483229 0.45743,-0.72338 0.0138,-0.960799 -0.37611,-0.2013 -0.83362,0.0275 -0.83362,0.416908 0,0.110475 -0.23181,0.372264 -0.51514,0.581742 -0.28333,0.209468 -0.58586,0.566876 -0.67232,0.79424 -0.14194,0.373365 -0.22329,0.402815 -0.84022,0.304158 -0.53701,-0.08587 -0.75754,-0.04127 -1.03129,0.208601 -0.19153,0.174798 -0.66421,0.39736 -1.05043,0.494589 -0.90016,0.226599 -0.99725,0.629913 -0.24984,1.037857 0.5111,0.278982 1.26344,0.312602 8.7203,0.389763 l 8.16091,0.08443 0.45211,0.543544 c 0.24867,0.298948 0.63397,0.608632 0.85626,0.688199 0.24716,0.08847 0.47673,0.366626 0.59109,0.716202 0.12852,0.392923 0.31889,0.602259 0.60916,0.669794 0.26886,0.06256 0.442,0.235246 0.47672,0.475459 0.03,0.207479 0.22726,0.490417 0.4384,0.628761 0.21114,0.138344 0.46651,0.432897 0.56752,0.654547 0.10673,0.23426 0.44024,0.4877 0.79647,0.60528 0.5981,0.19738 1.05237,0.84726 0.83646,1.19662 -0.0526,0.0851 -0.6329,0.1547 -1.28958,0.1547 -1.12732,0 -1.23048,-0.033 -1.84824,-0.59108 -0.35983,-0.3251 -0.83359,-0.59109 -1.05276,-0.59109 -0.21918,0 -0.68538,-0.22799 -1.03603,-0.50665 -0.84737,-0.673406 -1.61309,-0.673406 -2.67493,0 -0.67169,0.42597 -0.96978,0.50665 -1.87206,0.50665 -0.78707,0 -1.1746,0.0821 -1.45361,0.30807 -0.36151,0.29273 -0.36999,0.35166 -0.17029,1.18413 0.23527,0.98072 0.15654,1.37881 -0.2727,1.37881 -0.15948,0 -0.44686,0.14541 -0.6386,0.32314 -0.27948,0.25901 -0.72101,0.34681 -2.22462,0.44238 l -1.87595,0.11924 -0.46623,-0.61126 c -0.57823,-0.7581 -1.03361,-0.79902 -1.1857,-0.10655 -0.16996,0.77387 -0.43085,0.79707 -1.03989,0.0925 -0.50071,-0.57924 -0.6158,-0.63318 -1.16187,-0.54456 -0.33334,0.0541 -0.88639,0.23537 -1.22898,0.40283 -0.49768,0.24327 -0.63336,0.41287 -0.6751,0.84382 -0.0436,0.45078 0.029,0.58135 0.44186,0.79487 0.32187,0.16644 0.52931,0.43168 0.59518,0.76103 0.0722,0.36099 0.29559,0.61661 0.78125,0.89397 0.70595,0.40318 0.86558,0.64176 0.42941,0.64176 -0.30327,0 -0.32393,0.42256 -0.058,1.18555 0.18029,0.51718 0.16076,0.58799 -0.25331,0.91817 -0.57725,0.46028 -0.56507,0.71803 0.0703,1.48882 l 0.51897,0.62961 1.14624,-0.10654 c 0.63041,-0.0586 1.73739,-0.0511 2.45993,0.0166 1.09608,0.10272 1.37877,0.19333 1.70653,0.54697 0.29882,0.32245 0.70049,0.4773 1.67868,0.64716 0.70721,0.12281 1.45085,0.345 1.65254,0.49375 0.20165,0.14875 0.61259,0.4269 0.91314,0.61812 0.3551,0.22592 0.60707,0.56411 0.71951,0.96572 0.0952,0.33992 0.43824,1.03251 0.76237,1.53908 0.32414,0.50655 0.59074,1.00054 0.59244,1.09773 0.002,0.0972 0.35808,0.4047 0.79192,0.68336 0.60337,0.38755 0.84384,0.67441 1.02289,1.22027 0.14804,0.45132 0.46688,0.89799 0.86743,1.21525 0.55988,0.44343 1.03009,1.35527 1.03009,1.99757 0,0.30523 -0.86892,0.35102 -3.26335,0.17198 -2.06461,-0.15437 -2.41483,-0.14214 -2.92721,0.1022 l -0.58204,0.27756 -0.87801,-0.81031 c -0.48289,-0.44567 -1.15229,-1.01198 -1.48754,-1.25848 -0.33525,-0.24649 -0.73881,-0.73745 -0.89681,-1.09101 -0.59909,-1.34061 -0.90162,-1.76334 -1.46217,-2.04316 -0.47942,-0.2393 -0.61326,-0.43256 -0.78467,-1.13293 -0.33532,-1.37007 -1.4662,-1.97985 -1.6809,-0.90635 -0.0628,0.314 -0.23273,0.56235 -0.41798,0.61078 -0.57317,0.1499 -0.36653,0.68793 0.34625,0.90148 0.53988,0.16175 0.70658,0.31991 0.92602,0.87859 0.14721,0.37472 0.58142,1.20064 0.96493,1.83538 0.58559,0.96918 0.67986,1.24692 0.58854,1.73382 -0.1642,0.87518 -0.56559,1.20729 -1.95366,1.61637 -1.98351,0.58458 -2.53529,0.91982 -2.53529,1.54035 0,0.28566 0.13037,0.74009 0.28973,1.00987 0.23467,0.39724 0.40559,0.49048 0.89914,0.49048 0.42446,0 0.85946,0.17779 1.43346,0.5859 0.50932,0.36211 1.11737,0.62757 1.59191,0.69499 0.42229,0.06 1.17877,0.21329 1.68105,0.34064 0.50226,0.12737 2.26821,0.28243 3.92433,0.3446 2.90474,0.10904 3.02016,0.1269 3.2682,0.50545 0.43905,0.67007 1.19707,0.95377 2.21024,0.82718 1.24603,-0.15568 1.55875,0.0465 1.62326,1.04947 0.0415,0.64507 0.11673,0.81129 0.38919,0.8598 0.84983,0.15129 0.61341,0.87176 -0.28607,0.87176 -0.27392,0 -0.61204,0.114 -0.75136,0.25332 -0.13934,0.13933 -0.40366,0.25333 -0.58742,0.25333 -0.53145,0 -1.33142,0.48809 -1.32189,0.80653 0.005,0.16016 0.317,0.5382 0.69381,0.84008 0.62621,0.50172 0.79593,0.55161 1.97564,0.58071 2.91103,0.0719 2.84923,0.062 3.49369,0.55361 0.34061,0.2598 0.72019,0.71386 0.84351,1.00899 0.12332,0.29514 0.41925,0.62549 0.65762,0.7341 0.23837,0.1086 0.4334,0.26518 0.4334,0.34795 0,0.22722 -3.43239,0.90514 -3.93902,0.77798 -0.24192,-0.0607 -0.48346,-0.24781 -0.53676,-0.41577 -0.15675,-0.49387 -0.52714,-0.56098 -3.51468,-0.63679 -2.81162,-0.0713 -2.84105,-0.076 -2.99345,-0.47691 -0.25062,-0.65915 -1.14128,-1.11663 -1.93564,-0.99424 -1.29371,0.19934 -1.82628,0.0998 -2.31219,-0.43222 -0.53101,-0.58138 -1.28489,-0.66478 -1.71483,-0.18971 -0.36909,0.40786 -0.3527,0.6534 0.0583,0.87335 0.18577,0.0994 0.33777,0.32376 0.33777,0.49853 0,0.22273 0.31932,0.47331 1.06782,0.83796 0.58729,0.28611 1.24196,0.70557 1.4548,0.93212 0.21282,0.22654 0.89125,0.62051 1.50764,0.87545 0.61637,0.25497 1.27266,0.5898 1.45843,0.74411 0.18577,0.15431 0.83175,0.56166 1.4355,0.90524 2.61957,1.4907 5.44404,3.66937 7.59975,5.86214 1.5527,1.57938 3.29509,3.66542 3.55716,4.25874 0.0898,0.20329 0.30858,0.59761 0.4862,0.87627 0.1776,0.27866 0.32846,0.60352 0.33525,0.72194 0.0166,0.28873 -0.67956,0.53618 -1.60706,0.57127 -0.66219,0.025 -0.83815,-0.0489 -1.38506,-0.58171 -0.55896,-0.54457 -0.75403,-0.62317 -1.8087,-0.72867 -0.91229,-0.0913 -1.26394,-0.20543 -1.54032,-0.5001 -0.2476,-0.26399 -0.64466,-0.41762 -1.28655,-0.49782 -1.27409,-0.15918 -1.56227,-0.0802 -1.57287,0.43134 -0.0138,0.66663 -0.16911,0.78098 -1.21038,0.89128 -0.53697,0.0569 -1.2123,0.15125 -1.50074,0.20971 -0.51437,0.10426 -0.53298,0.0849 -0.97107,-1.00944 -0.34358,-0.85823 -0.44667,-1.40701 -0.44667,-2.37774 l 0,-1.262 -0.80219,-0.40183 c -1.09108,-0.54651 -2.85357,-0.85352 -4.04524,-0.70463 -0.77465,0.0968 -1.06913,0.22823 -1.51886,0.67797 -0.48094,0.48092 -0.557,0.67091 -0.55133,1.37699 0.006,0.77104 0.0507,0.85149 0.75767,1.37156 0.8234,0.60569 1.04651,1.13486 0.81657,1.93669 -0.17135,0.59745 -0.3539,0.6725 -2.34079,0.96243 -1.29921,0.1896 -1.39321,0.18011 -2.44881,-0.24701 -0.60375,-0.24429 -1.44962,-0.55252 -1.8797,-0.68496 -0.43007,-0.13242 -0.88606,-0.36662 -1.0133,-0.52045 -0.12723,-0.15381 -0.57333,-0.4387 -0.9913,-0.63307 -0.41799,-0.19438 -1.02597,-0.55257 -1.35107,-0.796 -0.3251,-0.24341 -0.81908,-0.51418 -1.09774,-0.60171 -0.27866,-0.0875 -0.58157,-0.32498 -0.67313,-0.52768 -0.11203,-0.24799 -0.51368,-0.48408 -1.22789,-0.72176 -0.85407,-0.28421 -1.24968,-0.54822 -2.02536,-1.35157 -0.53019,-0.5491 -1.0538,-0.99838 -1.16358,-0.99838 -0.55846,0 -3.93589,-2.19375 -4.77487,-3.10143 -0.28603,-0.30947 -0.65139,-0.47312 -1.22671,-0.54943 -0.67963,-0.0901 -0.83666,-0.17769 -0.92091,-0.51328 -0.14305,-0.56998 -0.55099,-0.73347 -1.83014,-0.73347 -0.91372,0 -1.1306,-0.0532 -1.20548,-0.29554 -0.27832,-0.90066 -0.91337,-1.17627 -1.25208,-0.54338 -0.30801,0.57553 -0.0694,1.17066 0.51628,1.28781 0.34195,0.0684 0.53614,0.22764 0.60316,0.4946 0.0543,0.21655 0.20111,0.47862 0.32611,0.58236 0.17416,0.14453 0.18443,0.28273 0.0439,0.5911 -0.14475,0.31767 -0.12349,0.49387 0.10093,0.83637 0.15636,0.23864 0.24224,0.50193 0.19086,0.58509 -0.0514,0.0831 -0.49154,0.28034 -0.97811,0.43819 -0.48656,0.15786 -0.94768,0.34449 -1.02471,0.41475 -0.077,0.0703 -0.0441,0.54068 0.0733,1.04538 0.26864,1.15548 0.54097,1.29914 2.72089,1.4353 1.43062,0.0894 1.68859,0.15336 2.0138,0.49955 0.23366,0.24869 0.56709,0.39766 0.89245,0.3987 0.83353,0.003 2.26046,0.75509 2.59288,1.36725 0.38903,0.71642 1.67098,2.00876 1.99263,2.00876 0.47926,0 5.71739,2.37081 6.14694,2.78214 0.5261,0.5038 1.6482,0.99858 2.87542,1.26792 1.25212,0.2748 2.6516,0.80357 3.41627,1.29076 0.45022,0.28686 0.87383,0.4012 1.48632,0.4012 0.77188,0 0.91534,0.0627 1.44974,0.63332 0.3262,0.34831 0.81996,0.9563 1.09723,1.35105 0.39931,0.56847 0.60787,0.71776 1.00269,0.71776 0.45239,0 1.03359,0.3856 1.19519,0.79295 0.0348,0.0878 0.36693,0.30629 0.73798,0.48554 0.7517,0.3631 1.18665,1.16049 0.7726,1.41638 -0.34506,0.21325 -4.06009,0.39766 -5.27753,0.26196 -0.58702,-0.0654 -1.39997,-0.2635 -1.80654,-0.44016 -0.98169,-0.42654 -1.27774,-0.40549 -1.61887,0.11512 -0.74702,1.14009 -3.4497,1.24029 -3.94813,0.14637 -0.10369,-0.22759 -0.26422,-0.4138 -0.3567,-0.4138 -0.0925,0 -0.28156,-0.21927 -0.42015,-0.48727 -0.13859,-0.26801 -0.60773,-0.69575 -1.04252,-0.95057 -0.75726,-0.44377 -0.81017,-0.45171 -1.25615,-0.18825 -0.25608,0.15126 -0.58173,0.27502 -0.72369,0.27502 -0.28402,0 -0.53303,0.57308 -0.36625,0.84291 0.0579,0.0937 0.46561,0.17039 0.90597,0.17039 0.88523,0 1.20599,0.21036 1.20599,0.79091 0,0.29263 0.2019,0.48789 0.83744,0.80993 0.70041,0.35494 0.87112,0.53684 1.04338,1.11183 0.22885,0.76384 0.65335,1.06174 1.77953,1.24879 0.4712,0.0783 0.90235,0.30885 1.30048,0.69549 0.44647,0.43363 0.74263,0.57843 1.18298,0.57843 0.72288,0 1.07015,0.3263 1.21901,1.14538 0.17109,0.94156 0.85536,2.18923 1.37818,2.51295 0.67646,0.41888 0.88533,0.73207 0.88533,1.32745 0,0.43745 0.21856,0.74218 1.24862,1.741 1.3939,1.35158 1.81019,1.48399 2.21349,0.70407 0.21763,-0.42085 0.36514,-0.50665 0.87102,-0.50665 0.81215,0 1.44507,0.42916 2.75996,1.8714 1.23472,1.3543 1.7672,1.6756 3.46211,2.08906 0.6502,0.15861 1.44817,0.46475 1.77327,0.68031 0.3251,0.21556 0.78108,0.44683 1.0133,0.51393 0.61929,0.17897 0.84441,0.40971 0.84441,0.86551 0,0.53854 -0.54785,0.73511 -2.04893,0.73511 -1.13268,0 -1.20602,0.0249 -1.73999,0.5911 l -0.55749,0.59109 -1.72096,0 c -0.94654,0 -2.25849,-0.0834 -2.91545,-0.18534 -1.08828,-0.16886 -1.23376,-0.1561 -1.63673,0.14348 -0.38883,0.28908 -0.46271,0.50821 -0.61117,1.81313 -0.19062,1.67531 -0.161,1.64511 -1.81283,1.84853 -0.53264,0.0656 -1.01599,0.19624 -1.07414,0.29034 -0.0582,0.0941 -0.51534,0.43309 -1.01597,0.75334 -0.87042,0.5568 -0.91022,0.61412 -0.91022,1.31087 0,0.79964 0.36612,1.28761 0.96611,1.28761 0.19163,0 0.7288,-0.34199 1.1937,-0.75997 0.46489,-0.41799 1.00791,-0.75997 1.2067,-0.75997 0.21563,0 0.75059,0.39194 1.32624,0.97168 0.53067,0.53445 1.28273,1.11367 1.67128,1.28719 l 0.70647,0.31549 0.75811,-0.62121 c 0.41696,-0.34167 0.8704,-0.79259 1.00763,-1.00206 0.39068,-0.59622 1.3608,-0.78222 4.08004,-0.78222 2.30751,0 2.5484,0.0301 3.27364,0.40909 0.43055,0.22501 1.17552,0.49705 1.65549,0.60459 0.96838,0.21695 1.64416,0.76213 1.24811,1.00691 -0.17726,0.10955 -0.20453,0.41805 -0.11864,1.3423 l 0.11155,1.20005 -0.97241,0.43609 c -0.53483,0.23983 -1.16239,0.42689 -1.39461,0.41569 -1.17062,-0.0565 -1.92474,-0.007 -2.01296,0.13298 -0.0539,0.0854 -0.24726,0.18355 -0.42961,0.21812 -0.25361,0.0481 -0.42118,0.37573 -0.71285,1.39385 -0.20973,0.73204 -0.42517,1.37484 -0.47877,1.42845 -0.0536,0.0536 -0.68279,0.0763 -1.3982,0.0504 -0.96538,-0.0349 -1.3878,0.0197 -1.63848,0.21168 -0.42501,0.32552 -0.74424,0.33496 -1.08445,0.0321 -0.14664,-0.13057 -0.93039,-0.4388 -1.74169,-0.68497 -1.48712,-0.45122 -1.98703,-0.75435 -1.98703,-1.20495 0,-0.36351 -0.8282,-0.61765 -1.65342,-0.50738 -0.97984,0.13093 -1.38648,0.37613 -1.38648,0.83606 0,0.26357 -0.17307,0.47439 -0.54887,0.66854 -0.30187,0.15596 -0.66287,0.3552 -0.80219,0.44278 -0.46473,0.29207 -1.40019,0.68728 -1.62685,0.68728 -0.12314,0 -0.54642,-0.34989 -0.94062,-0.77752 l -0.71668,-0.77751 -0.93338,0.10221 c -1.39565,0.15288 -1.92753,-0.0445 -2.03205,-0.75421 -0.085,-0.57725 -0.0886,-0.57934 -0.89972,-0.52749 -0.9277,0.0593 -1.22711,-0.11916 -1.38185,-0.8237 -0.0888,-0.40433 -0.19573,-0.49497 -0.58389,-0.49497 -0.71129,0 -0.85652,0.68103 -0.49986,2.34411 0.23676,1.10393 0.77759,1.50097 1.70677,1.25294 0.53014,-0.14151 0.72729,-0.1157 1.16906,0.15294 0.4742,0.28838 0.52105,0.38659 0.43563,0.91309 -0.0718,0.44223 -0.0294,0.61539 0.16922,0.69161 0.30812,0.11825 1.12017,1.85469 0.97623,2.08758 -0.0535,0.0866 -0.23555,0.15746 -0.40449,0.15746 -0.16896,0 -0.59568,0.12055 -0.94832,0.26789 -0.60695,0.25361 -0.67457,0.2491 -1.26802,-0.0844 -0.83202,-0.46763 -1.03916,-0.44608 -1.48305,0.15432 -0.36973,0.5001 -0.395,0.50665 -1.95323,0.50665 -1.68408,0 -1.84125,0.068 -2.04631,0.88504 -0.0963,0.38355 -0.0489,0.48629 0.28197,0.61187 0.2187,0.083 0.80248,0.11192 1.29726,0.0643 0.86738,-0.0836 0.91729,-0.0653 1.39246,0.5112 0.484,0.58721 0.51063,0.59628 1.48879,0.50758 0.93526,-0.0848 1.01367,-0.0632 1.28688,0.35372 0.39944,0.60963 0.63269,0.55959 1.19871,-0.25716 0.59396,-0.85711 1.26361,-1.15656 2.58637,-1.15656 1.00558,0 1.01318,0.004 1.52615,0.7493 0.58435,0.84933 1.73155,1.84623 2.43034,2.11191 0.25849,0.0983 1.03307,0.17869 1.72129,0.17869 1.20342,0 1.26076,0.0183 1.49897,0.47896 l 0.24767,0.47895 7.98896,0.11172 c 5.3888,0.0754 8.7478,0.05 10.32045,-0.0781 l 2.3315,-0.18984 0.65702,0.52801 c 0.36136,0.29039 0.78817,0.52799 0.94844,0.52799 0.32648,0 3.36489,1.57745 3.82381,1.98524 0.38509,0.34216 0.38509,1.16526 0,1.36483 -0.16254,0.0842 -1.27629,0.14083 -2.47498,0.12575 -2.04547,-0.0257 -2.19466,-0.0503 -2.42718,-0.40055 -0.30822,-0.46419 -0.73465,-0.47911 -1.01176,-0.0354 -0.146,0.23374 -0.39387,0.33777 -0.80479,0.33777 -0.47408,0 -0.62541,0.0831 -0.75046,0.41194 -0.22412,0.58953 -0.67526,0.77025 -1.9227,0.77025 -0.96855,0 -1.13537,-0.0493 -1.42869,-0.42221 -0.54874,-0.69762 -0.70571,-0.52814 -0.70571,0.76207 l 0,1.18427 -0.97107,0.62639 c -0.85457,0.55122 -1.12306,0.63444 -2.2377,0.69364 -1.10363,0.0586 -1.33802,0.12988 -1.82137,0.55373 -0.50047,0.43883 -0.67281,0.48642 -1.76137,0.48642 -0.7828,0 -1.57826,0.12552 -2.26467,0.35738 -1.05492,0.35634 -1.05932,0.35642 -1.48185,0.0241 -0.33323,-0.26215 -0.60088,-0.31635 -1.2527,-0.25372 -0.79155,0.0761 -0.84992,0.0521 -1.29447,-0.53068 -0.3867,-0.507 -0.57113,-0.61035 -1.08924,-0.61035 -0.49721,0 -0.69973,-0.10277 -0.99833,-0.50664 -0.33628,-0.45486 -0.46843,-0.50665 -1.29244,-0.50665 -1.02135,0 -1.2675,0.22625 -1.2675,1.16514 0,0.68115 -0.3807,0.86146 -1.81895,0.86146 l -1.16562,0 -0.66097,-0.84049 c -0.76006,-0.96647 -1.13032,-1.01834 -1.25207,-0.17535 -0.10871,0.7528 -0.60765,1.01007 -1.96512,1.01335 l -1.03629,0.002 -0.69862,-1.17596 c -0.83189,-1.4003 -2.44053,-3.45857 -3.20732,-4.10377 -0.86004,-0.72369 -1.26863,-0.75336 -1.96415,-0.14266 -0.32873,0.28863 -0.65615,0.52478 -0.72757,0.52478 -0.0714,0 -0.38529,-0.26353 -0.69747,-0.58561 -0.54648,-0.56381 -0.60266,-0.58196 -1.51085,-0.48844 -0.90747,0.0935 -0.9579,0.0772 -1.32831,-0.4277 -0.29953,-0.40827 -0.51221,-0.52485 -0.95759,-0.52485 -0.48338,0 -0.70592,-0.14969 -1.42942,-0.96143 l -0.85691,-0.96142 -0.46545,0.44571 c -0.38863,0.37217 -0.6466,0.4542 -1.56318,0.49702 -0.84039,0.0392 -1.09773,0.11066 -1.09773,0.30458 0,0.19928 0.28075,0.26388 1.31576,0.30278 1.19886,0.0451 1.32901,0.0843 1.46479,0.4414 0.19615,0.51592 0.5551,0.63529 1.52381,0.5068 0.97285,-0.12906 1.5221,0.11842 1.5221,0.68581 0,0.56359 -1.31611,1.62444 -2.10641,1.69789 -0.42574,0.0396 -0.72891,0.21313 -1.06038,0.60706 -0.25531,0.30341 -0.46419,0.63212 -0.46419,0.73044 0,0.11009 0.6163,0.19589 1.60438,0.22333 1.51865,0.0422 1.62459,0.0693 1.98228,0.50665 0.34619,0.4233 0.46435,0.45838 1.40817,0.41792 0.9544,-0.0409 1.06522,-0.007 1.50535,0.46443 0.41817,0.44767 0.58765,0.50858 1.41475,0.50858 0.80325,0 1.02343,0.0736 1.5167,0.50666 0.50318,0.44177 0.70597,0.50665 1.5841,0.50665 0.81011,0 1.06996,0.0696 1.32877,0.35617 0.17696,0.19591 0.88652,0.66633 1.57682,1.04541 0.6903,0.37908 1.50727,0.91064 1.8155,1.18125 0.49041,0.43061 0.56039,0.59467 0.56039,1.31392 0,0.71665 0.0646,0.86962 0.50468,1.19498 0.31864,0.23559 0.54455,0.58566 0.61284,0.9497 0.16168,0.86183 -0.26665,1.2011 -1.68343,1.3334 l -1.14135,0.10658 -0.65288,-0.63752 c -0.63677,-0.6218 -0.67538,-0.63469 -1.56729,-0.52324 -0.74934,0.0936 -0.95759,0.0622 -1.15343,-0.17393 -0.41529,-0.50075 -1.28182,-0.74247 -2.66166,-0.74247 -0.95977,0 -1.39293,-0.0688 -1.53867,-0.24444 -0.34131,-0.41123 -1.53963,-0.74048 -3.04727,-0.83723 -1.19072,-0.0764 -1.47503,-0.15045 -1.66722,-0.43409 -0.33968,-0.50131 -0.69715,-0.43028 -0.69715,0.13852 0,0.63208 0.35464,0.90798 1.73421,1.34918 1.42752,0.45652 2.28718,0.99269 2.96616,1.84997 0.41262,0.52097 0.68252,0.69176 1.23213,0.77965 0.49139,0.0786 0.83645,0.26849 1.14329,0.62928 1.04476,1.22837 1.17875,1.329 1.76939,1.329 0.49625,0 0.71078,0.14083 1.41062,0.92604 0.64185,0.72013 1.08603,1.03272 1.99788,1.40595 0.73677,0.30155 1.2437,0.62171 1.36407,0.86146 0.10535,0.20983 0.25734,0.44732 0.33777,0.52774 0.0804,0.0804 2.00692,0.16086 4.28109,0.17878 3.91289,0.0308 4.16071,0.0517 4.6158,0.38844 0.39704,0.29381 0.76571,0.36419 2.11379,0.4035 2.27352,0.0663 2.28478,0.0707 2.79659,1.09022 0.78008,1.55401 0.82258,1.9086 0.30245,2.523 -0.24908,0.29421 -0.64286,0.92082 -0.87507,1.39251 -0.24776,0.50319 -0.66647,1.01963 -1.0133,1.24976 -0.82355,0.54648 -1.43154,0.39288 -2.25461,-0.56955 -0.87922,-1.02809 -1.48755,-1.32356 -2.45281,-1.19126 -0.69395,0.0951 -0.80202,0.0611 -1.14655,-0.36093 l -0.38039,-0.46596 -1.24076,1.2918 c -1.40419,1.46195 -2.00392,1.73719 -3.19807,1.46776 -0.39952,-0.0902 -1.15459,-0.1145 -1.6779,-0.0541 -0.86648,0.1 -0.97586,0.075 -1.2244,-0.27989 -0.1501,-0.21431 -0.27292,-0.59521 -0.27292,-0.84646 0,-0.56218 -0.56484,-1.03685 -1.67111,-1.40431 -0.44419,-0.14751 -1.02407,-0.49419 -1.28866,-0.77036 -0.41957,-0.43793 -0.60002,-0.50214 -1.41132,-0.50214 -0.76999,0 -1.00865,-0.0751 -1.38531,-0.43597 -0.56023,-0.53675 -1.66468,-0.80249 -2.72762,-0.65628 l -0.80149,0.11023 -1.30952,-1.39203 -1.30951,-1.39202 0.0551,-0.95646 c 0.0546,-0.94887 0.0498,-0.95994 -0.6137,-1.39904 -0.65184,-0.43135 -1.38525,-1.59985 -1.38525,-2.20701 0,-0.37885 -0.21775,-0.35922 -0.59108,0.0533 -0.19952,0.22046 -0.52017,0.33777 -0.92327,0.33777 -0.49041,0 -0.69475,0.10436 -0.99218,0.50665 -0.49082,0.66385 -0.89828,0.6399 -1.45144,-0.0853 -0.35572,-0.46636 -0.53914,-0.57386 -0.86447,-0.50664 -0.22711,0.0469 -0.58789,0.121 -0.80173,0.1646 -0.2856,0.0582 -0.61985,-0.12286 -1.25936,-0.68227 l -0.87056,-0.76156 -0.0495,-1.21765 -0.0495,-1.21766 -2.02661,-0.0861 c -1.11462,-0.0473 -2.10259,-0.0229 -2.19548,0.0543 -0.10374,0.0862 0.0917,0.34421 0.50666,0.6689 0.95619,0.74822 2.07899,1.95137 2.21192,2.37016 0.0814,0.25662 0.0126,0.42204 -0.24736,0.59467 -0.45176,0.29995 -0.46046,0.63904 -0.0224,0.87348 0.24201,0.12952 0.33777,0.35361 0.33777,0.79041 0,0.54562 0.17922,0.79176 1.70748,2.34476 1.60145,1.62743 1.74178,1.72959 2.2601,1.64547 0.51289,-0.0832 0.61175,-0.0155 1.37464,0.94112 0.68351,0.85713 0.90915,1.03103 1.33927,1.03218 0.35313,9.5e-4 0.67132,0.16215 1.00268,0.50803 0.39055,0.40764 0.62596,0.50665 1.20456,0.50665 0.61825,0 0.75025,0.0652 0.94068,0.46444 0.17279,0.36223 0.35769,0.47579 0.84038,0.51605 0.43455,0.0362 0.6994,0.17455 0.88932,0.46442 0.21838,0.3333 0.41225,0.4128 1.00653,0.4128 0.63221,0 0.79488,0.0774 1.15325,0.54888 0.64697,0.85111 0.91834,1.48651 1.03914,2.433 0.13786,1.08042 -0.0788,1.34371 -1.20077,1.45922 -2.10931,0.21716 -2.55756,0.1648 -3.24414,-0.37897 -0.54848,-0.43441 -0.79819,-0.51558 -1.58623,-0.51558 -0.84643,0 -0.96953,-0.0481 -1.29603,-0.50665 -0.4396,-0.61735 -0.82765,-0.6416 -1.35107,-0.0844 -0.27773,0.29562 -0.57529,0.42221 -0.99247,0.42221 -0.44169,0 -0.74024,0.13994 -1.15396,0.54094 -0.48885,0.47382 -0.69592,0.5497 -1.66867,0.61165 -1.08756,0.0692 -1.1236,0.058 -1.7384,-0.54232 -0.59138,-0.57748 -0.67376,-0.60675 -1.41963,-0.50452 -0.4355,0.0597 -0.85657,0.19332 -0.93572,0.29693 -0.29783,0.38995 -1.04196,2.67826 -1.04196,3.2042 0,1.04743 0.90309,1.3126 1.51996,0.44627 0.34848,-0.48938 0.40595,-0.50659 1.68883,-0.50659 1.28286,0 1.34034,0.0172 1.68882,0.50659 0.27588,0.38744 0.49171,0.50667 0.91719,0.50667 0.45529,0 0.75548,0.19422 1.65173,1.06875 1.09438,1.06775 1.50283,1.85123 1.14934,2.20475 -0.12156,0.12161 -1.07423,0.17045 -2.78506,0.143 -2.58945,-0.0416 -3.09785,0.0598 -2.63245,0.52478 0.13607,0.13595 0.97211,0.18265 2.71571,0.15168 l 2.51911,-0.0446 0.27824,0.42465 c 0.2755,0.42046 0.3016,0.42455 2.66841,0.42455 2.26921,0 2.42152,0.0213 3.00955,0.42088 0.40646,0.27624 1.044,0.48283 1.8547,0.60107 3.23261,0.47136 3.21263,0.46587 3.8055,1.04047 0.48782,0.47283 0.56243,0.64918 0.51965,1.22796 -0.0619,0.83749 -0.47755,1.07669 -1.98135,1.14052 -0.97567,0.0414 -1.07502,0.0113 -1.38929,-0.41988 -0.29302,-0.40211 -0.45451,-0.46448 -1.20297,-0.46448 -0.74498,0 -0.94209,-0.0751 -1.4257,-0.54387 -0.53284,-0.5165 -0.63216,-0.54559 -1.9643,-0.57624 -1.80619,-0.0416 -2.03244,0.0892 -1.31438,0.76004 0.53076,0.49578 0.54439,0.54372 0.49595,1.74381 l -0.0498,1.23403 -0.62064,0.0516 c -0.59025,0.0491 -0.67483,-0.0139 -1.72785,-1.28663 -1.05829,-1.27919 -1.14498,-1.34335 -1.96156,-1.45168 -0.69934,-0.0928 -0.883,-0.18873 -1.01232,-0.52888 -0.15304,-0.40252 -0.20981,-0.41547 -1.8187,-0.41547 -1.19879,0 -1.75192,0.069 -1.98857,0.24797 -0.43051,0.32566 -1.33649,0.32484 -1.83468,-0.002 -0.34907,-0.22879 -0.42728,-0.23026 -0.64492,-0.0126 -0.21293,0.21289 -0.23706,1.39217 -0.17202,8.40888 l 0.0757,8.16117 0.50699,0.43111 c 0.37637,0.32009 0.49818,0.55928 0.47285,0.92886 -0.0553,0.80709 -0.0208,0.89051 0.4661,1.12848 0.39635,0.19364 0.45747,0.3164 0.41694,0.83724 -0.0397,0.51011 0.0382,0.67745 0.47413,1.01859 l 0.52164,0.40826 0.0752,2.6902 c 0.15705,5.62183 0.13473,9.10584 -0.0628,9.79434 -0.1083,0.37761 -0.39359,0.87133 -0.63397,1.0971 -0.37504,0.35237 -0.42268,0.50651 -0.33582,1.08677 0.0557,0.37187 0.0215,1.09415 -0.0758,1.60499 -0.25447,1.33531 -0.25358,4.41967 0.001,4.91414 0.11506,0.22314 0.4005,0.6109 0.63432,0.86174 0.37172,0.39867 0.42746,0.61615 0.44379,1.73111 l 0.0187,1.27508 -8.10638,0 -8.10639,-8e-5 0,-1.49486 z m 23.52047,-45.82411 c -0.10436,-0.31312 -0.46795,-0.36507 -0.46795,-0.0669 0,0.14709 0.12034,0.26739 0.2674,0.26739 0.14709,0 0.23732,-0.0902 0.20055,-0.20052 z m -29.51581,-11.5895 c 0,-0.51947 0.0978,-0.71608 0.50664,-1.01837 0.38824,-0.28702 0.50665,-0.5073 0.50665,-0.94251 0,-0.47037 0.19623,-0.77414 1.14222,-1.76822 1.01437,-1.0659 1.21222,-1.20027 1.7674,-1.20027 0.72385,0 1.81911,-0.82945 1.81911,-1.37763 0,-0.31336 -0.0923,-0.32416 -1.89994,-0.22245 -1.04497,0.0588 -1.99494,0.13647 -2.11104,0.17265 -0.13581,0.0423 -0.2111,0.40194 -0.2111,1.00831 0,0.51839 -0.11126,1.15771 -0.24726,1.42069 -0.37159,0.71858 -1.2242,1.36279 -1.80366,1.36279 -0.52296,0 -1.82449,0.91866 -1.83035,1.29191 -0.004,0.26551 1.82356,1.91688 2.1216,1.91688 0.16511,0 0.23973,-0.20038 0.23973,-0.64378 z m 6.72154,-11.04294 c 0.27568,-0.27568 0.25557,-0.89425 -0.037,-1.13701 -0.13787,-0.11445 -0.6205,-0.177 -1.13667,-0.14736 -0.81433,0.0468 -0.91262,0.0959 -1.0654,0.53239 -0.13983,0.39946 -0.11349,0.52093 0.15566,0.71776 0.39614,0.28965 1.80479,0.31279 2.08337,0.0342 z m 0.37155,-8.09328 c 0,-0.2036 -0.46248,-0.18741 -0.5911,0.0207 -0.18254,0.29536 0.0881,0.54493 0.35279,0.32528 0.13107,-0.10876 0.23831,-0.26446 0.23831,-0.34596 z m 0.67552,-1.34803 c 0,-0.3162 0.1616,-0.66594 0.43313,-0.93749 0.23823,-0.23823 0.39261,-0.53877 0.34307,-0.66787 -0.11506,-0.29981 -0.67749,-0.30382 -0.92418,-0.007 -0.23577,0.28408 -0.43845,1.68472 -0.29709,2.0531 0.15876,0.41371 0.44507,0.1299 0.44507,-0.44117 z m 29.80029,-24.40642 c 0.3678,-0.14114 0.76754,-0.94804 0.76754,-1.54936 0,-0.78976 -0.44317,-1.03574 -2.11857,-1.17587 -1.41417,-0.11831 -1.50339,-0.14893 -1.59627,-0.54752 -0.0786,-0.3375 -0.21737,-0.43233 -0.6915,-0.47262 -0.81927,-0.0696 -1.50457,0.56233 -1.50457,1.38748 0,0.65018 0.46682,1.084 0.80384,0.747 0.25441,-0.25443 0.54722,-0.0232 0.54722,0.43204 0,0.48673 0.60247,0.77711 1.61235,0.77711 0.55588,0 0.75202,-0.0661 0.75202,-0.25332 0,-0.13933 0.076,-0.25334 0.16888,-0.25334 0.0929,0 0.16888,0.13681 0.16888,0.304 0,0.56906 0.48361,0.83716 1.09018,0.6044 z m 2.96209,-11.71641 c 0.27767,-0.1486 0.31074,-0.36178 0.28156,-1.8155 -0.0315,-1.56769 -0.0514,-1.64971 -0.41297,-1.70143 -0.24695,-0.0353 -0.46457,-0.25695 -0.62181,-0.63331 -0.13306,-0.31844 -0.31352,-0.57898 -0.40103,-0.57898 -0.0875,0 -0.52698,-0.30398 -0.97659,-0.67552 -0.97842,-0.80852 -1.40685,-0.85155 -1.80291,-0.1811 -0.16064,0.27194 -0.59678,0.87991 -0.9692,1.35106 -0.63225,0.79986 -0.72694,0.85663 -1.42883,0.85663 -0.66992,0 -0.78119,0.057 -1.02259,0.52384 -0.25525,0.49357 -0.31224,0.51764 -0.98635,0.41655 -0.58286,-0.0874 -0.77094,-0.046 -1.01488,0.22357 -0.47444,0.52426 -0.28789,0.93835 0.45031,0.99954 0.49598,0.0411 0.68612,0.15543 0.87898,0.52841 0.31935,0.61754 0.53015,0.68575 2.11922,0.68575 l 1.3263,0 0.2162,-0.59782 c 0.18266,-0.50516 0.33032,-0.62657 0.95283,-0.78331 0.52253,-0.13158 0.78075,-0.30144 0.88831,-0.58437 0.21845,-0.57452 0.4976,-0.49059 0.49884,0.15001 8.5e-4,0.43237 0.10837,0.60993 0.50665,0.83656 0.35385,0.20134 0.50559,0.41675 0.50559,0.71775 0,0.46959 0.42072,0.57833 1.01237,0.26167 z m -14.04683,-0.10418 c 0.40152,-0.0803 0.53002,-0.20404 0.56998,-0.54885 0.0475,-0.40995 0.12972,-0.4536 1.03817,-0.5512 1.17116,-0.1258 1.63442,-0.45764 1.21893,-0.87314 -0.3486,-0.34859 -1.74333,-0.56392 -1.99867,-0.30856 -0.10448,0.10447 -0.59276,0.18996 -1.08504,0.18996 -1.42304,0 -2.03569,0.91868 -1.20342,1.80459 0.38645,0.41135 0.61475,0.45626 1.46005,0.2872 z m -31.50673,-0.5634 c 0.43206,-0.27401 0.97226,-0.79391 1.2004,-1.15529 l 0.4148,-0.65711 3.98962,-0.003 c 3.93619,-0.003 3.99518,-0.008 4.40581,-0.39408 0.45912,-0.43132 0.52708,-1.02377 0.23719,-2.06765 -0.16232,-0.58448 -0.13077,-0.7093 0.37762,-1.49389 0.53668,-0.82823 0.56241,-0.84458 0.78975,-0.50217 0.12927,0.19466 0.30337,0.35393 0.38691,0.35393 0.34751,0 1.5007,-0.91786 1.92816,-1.53469 0.29042,-0.41909 0.65322,-0.71333 0.98477,-0.79872 0.48009,-0.12366 0.52929,-0.20128 0.57564,-0.90804 0.0482,-0.73485 0.0241,-0.78205 -0.48964,-0.96115 -0.71035,-0.24764 -1.16528,-0.23875 -1.16606,0.0228 -3.5e-4,0.1161 -0.14527,-0.0261 -0.32207,-0.31604 -0.3693,-0.60563 -0.56399,-0.65786 -3.35209,-0.89952 l -1.90151,-0.1648 -2.23611,0.676 c -1.22988,0.37179 -2.61759,0.82487 -3.08381,1.00682 -0.46624,0.18197 -0.97921,0.33085 -1.13996,0.33085 -0.16076,0 -0.29229,0.0745 -0.29229,0.16565 0,0.0911 -0.20899,0.21683 -0.46442,0.27934 -0.61414,0.1503 -0.7121,0.32923 -0.71517,1.30638 -0.002,0.60306 -0.12649,1.01897 -0.46701,1.55891 -0.40157,0.63675 -0.5255,0.72404 -0.91555,0.64474 -0.71213,-0.14476 -2.12778,0.35869 -2.68454,0.95471 -0.44092,0.472 -0.49533,0.64886 -0.49533,1.61013 0,1.0431 0.0146,1.07987 0.4279,1.07987 0.30789,0 0.52323,0.16157 0.76776,0.57601 0.18692,0.31681 0.45559,0.62042 0.59704,0.67471 0.16844,0.0646 0.22027,0.215 0.1502,0.43576 -0.1665,0.5246 0.0381,0.67788 0.90501,0.67788 0.59729,0 1.00146,-0.12688 1.58698,-0.4982 z m 54.21217,-0.95382 c 0.21211,-0.21211 -0.0987,-0.57457 -0.49278,-0.57457 -0.27717,0 -0.50375,-0.15986 -0.69237,-0.48851 -0.22435,-0.39092 -0.43367,-0.50901 -1.04767,-0.59111 -0.422,-0.0564 -1.06102,-0.1499 -1.42003,-0.20776 -0.71273,-0.11484 -0.94448,0.0655 -0.94905,0.73851 -0.002,0.30095 0.094,0.3814 0.46183,0.38678 0.25545,0.004 0.88243,0.19066 1.39329,0.41541 0.86962,0.3826 2.49533,0.57271 2.74678,0.32125 z m -70.42012,-1.46121 c 1.31307,-0.98237 1.5261,-2.99767 0.31685,-2.99767 -0.58467,0 -0.87225,0.2784 -0.87225,0.84441 0,0.53648 -0.28285,0.84442 -0.77568,0.84442 -0.37512,0 -0.57538,0.28972 -0.57538,0.83242 0,0.56615 1.33919,0.9008 1.90646,0.47642 z m 55.58701,-2.01 c 0.79076,-0.36031 0.71811,-0.75308 -0.35331,-1.90967 -0.5426,-0.58576 -1.07889,-1.0739 -1.19171,-1.0848 -0.28709,-0.0277 -0.52388,-0.52601 -0.66147,-1.39194 -0.0646,-0.40638 -0.20762,-0.81489 -0.31786,-0.90778 -0.11026,-0.0929 -0.40918,-0.67232 -0.66428,-1.28763 -0.39155,-0.94449 -0.63298,-1.25358 -1.54988,-1.98437 -0.59735,-0.4761 -1.17898,-0.86614 -1.29253,-0.86675 -0.11353,-6e-4 -0.43443,-0.15209 -0.71309,-0.33665 -0.27865,-0.18455 -0.67502,-0.33604 -0.8808,-0.33666 -0.20581,-6e-4 -0.60221,-0.2101 -0.88092,-0.46553 -0.96933,-0.88835 -1.50313,-1.2244 -1.94492,-1.2244 -0.47235,0 -1.68495,-0.55067 -1.86923,-0.84885 -0.11131,-0.18011 -0.96137,-0.77944 -2.08571,-1.47051 -0.86361,-0.53084 -1.87299,-0.50923 -2.54289,0.0544 -0.92023,0.77436 -0.63089,1.40321 1.09291,2.37526 3.0973,1.74656 5.01188,3.8058 4.61008,4.95841 -0.28892,0.82876 -1.3938,1.51768 -2.43404,1.51768 -0.21073,0 -0.76936,0.194 -1.24142,0.4311 -0.79961,0.40162 -0.85825,0.47379 -0.85767,1.05551 6.4e-4,0.63254 0.41256,1.47925 1.07263,2.20483 0.8841,0.97183 3.29354,1.53306 4.06773,0.94748 0.26543,-0.20075 1.04278,-0.24796 4.08403,-0.24796 3.51148,0 3.7627,0.0204 3.85575,0.31361 0.0548,0.17251 0.26886,0.39535 0.47581,0.49523 0.5061,0.24427 1.69683,0.24959 2.22279,0.01 z m -27.44486,-8.24963 c 0.9203,0 0.97254,-0.0247 1.49637,-0.70624 0.29853,-0.38844 0.5425,-0.78742 0.54214,-0.88665 -3.6e-4,-0.0992 -0.35281,-0.46538 -0.78327,-0.8137 -0.97672,-0.79039 -1.84944,-0.8817 -2.01775,-0.21111 -0.10731,0.42759 -0.62405,0.58544 -0.82931,0.25333 -0.21437,-0.34685 -0.74297,-0.15183 -1.08396,0.39991 -0.42911,0.69431 -0.44478,1.17769 -0.056,1.72874 0.2596,0.36798 0.38567,0.40776 1.03687,0.32731 0.40771,-0.0504 1.17043,-0.0916 1.69491,-0.0916 z m 30.31153,-1.26663 c 0.15216,-0.23222 0.38889,-0.42221 0.52609,-0.42221 0.17151,0 0.24942,-0.18101 0.24942,-0.57959 0,-0.76013 -0.7726,-1.36847 -1.54243,-1.21453 -0.35861,0.0717 -0.70214,-0.01 -1.16787,-0.27654 -0.83243,-0.47708 -1.25845,-0.28442 -1.25845,0.56912 0,0.51141 0.0542,0.57861 0.50665,0.6281 0.53144,0.0581 1.33017,0.78219 1.51895,1.37696 0.15443,0.48654 0.82623,0.43976 1.16764,-0.0813 z m -48.97721,-0.44535 c 0.23181,-0.10561 0.44437,-0.34979 0.47239,-0.54262 0.0358,-0.24623 0.22084,-0.38514 0.62164,-0.46663 1.2358,-0.2513 0.86921,-1.02278 -0.59,-1.2416 -0.70186,-0.10524 -0.86964,-0.0637 -1.48217,0.36678 -0.3799,0.26699 -0.76593,0.6993 -0.85785,0.9607 -0.14305,0.40673 -0.11016,0.52135 0.22817,0.79531 0.4496,0.36406 0.9946,0.40748 1.60782,0.12806 z m 20.53596,-3.36219 c 0,-0.0762 0.15282,-0.18695 0.33962,-0.24625 0.39905,-0.12664 0.84655,-0.91551 0.83317,-1.46875 -0.007,-0.28372 -0.27476,-0.559 -0.99425,-1.02169 -1.13725,-0.7313 -1.46155,-0.78193 -1.62264,-0.25331 -0.2016,0.66151 -0.5769,0.97743 -0.91232,0.76795 -0.70366,-0.43944 -1.52789,0.28221 -1.52789,1.33773 0,0.85009 0.34655,1.01035 2.19907,1.01686 0.92687,0.003 1.68524,-0.0564 1.68524,-0.13254 z m 19.14544,-0.51125 c 0.527,-0.41452 0.58754,-1.14457 0.17951,-2.16434 -0.41327,-1.03285 -0.96856,-1.18754 -3.355,-0.93462 -0.76727,0.0813 -1.04491,0.0496 -1.18218,-0.13499 -0.362,-0.48686 -1.05273,-0.78168 -2.25912,-0.96424 -0.67942,-0.10282 -1.302,-0.14573 -1.38351,-0.0953 -0.21134,0.1306 -0.39438,1.51953 -0.26709,2.02668 0.098,0.39022 0.17931,0.42478 0.93705,0.39796 1.06371,-0.0376 1.61754,0.32013 2.04722,1.32253 0.31388,0.73228 0.35822,0.76614 0.89,0.67984 0.3099,-0.0503 0.79257,-0.32372 1.08151,-0.61266 0.73626,-0.73627 1.73,-0.64799 1.73,0.15368 0,0.70742 0.86878,0.88622 1.58161,0.3255 z m -43.44543,-8.26484 c 1.40029,-0.26281 1.69199,-0.91598 0.8695,-1.94678 l -0.46241,-0.57952 -1.1842,0.10937 c -0.71286,0.0658 -1.25411,0.20414 -1.35983,0.34751 -0.11377,0.1543 -0.41112,0.21896 -0.84441,0.18363 -0.58858,-0.048 -0.67524,-0.11041 -0.72239,-0.52049 -0.0589,-0.51237 -0.73431,-0.96953 -1.43233,-0.96953 -0.30668,0 -0.47133,0.15364 -0.67861,0.6333 -0.72314,1.67353 -0.48544,2.40454 0.7833,2.40915 0.38813,0.001 1.04769,0.11033 1.46567,0.24203 0.91327,0.28776 2.32623,0.32395 3.56571,0.0913 z m 25.15406,-8.53162 c 1.70369,-0.85795 1.89994,-1.22862 1.7739,-3.35014 -0.0544,-0.9164 -0.14051,-1.73338 -0.19126,-1.8155 -0.16148,-0.26129 -0.96675,-0.16076 -1.32808,0.16579 -0.19177,0.1733 -0.57834,0.35792 -0.85906,0.41029 -0.43511,0.0811 -0.55227,0.0222 -0.79433,-0.39953 -0.23621,-0.41155 -0.39273,-0.49474 -0.93087,-0.49474 -0.51664,0 -0.87941,0.17506 -1.80144,0.86927 l -1.15456,0.86926 0.11083,0.94287 c 0.13166,1.12026 0.39806,1.57297 1.24295,2.11214 0.34598,0.22078 0.81328,0.60051 1.03846,0.84384 0.58693,0.63421 1.41661,0.59018 2.89346,-0.15355 z m 40.82626,-1.12664 c 0.28547,-0.28547 0.25219,-0.97112 -0.0528,-1.08817 -0.38094,-0.14617 -0.75783,0.25409 -0.75783,0.80486 0,0.52419 0.4222,0.67174 0.81064,0.28331 z m -23.9806,-3.0323 c 0.0405,-0.48563 -0.0306,-0.67471 -0.33312,-0.88663 -0.48768,-0.34159 -1.14075,-0.34419 -1.62291,-0.006 -0.49606,0.34744 -0.47343,0.64493 0.0891,1.17129 0.3664,0.34285 0.60704,0.4245 1.13997,0.38683 0.64529,-0.0456 0.67782,-0.0754 0.72698,-0.66502 z m -33.54217,-8.24086 c 0.66192,-0.39054 2.71457,-0.52014 3.29178,-0.20782 1.19679,0.64754 4.61316,-0.37283 4.61316,-1.37782 0,-0.61951 -0.94251,-1.59983 -1.73995,-1.80974 -0.38988,-0.10264 -0.97485,-0.3482 -1.29994,-0.54571 -0.42534,-0.2584 -1.01734,-0.39267 -2.11104,-0.47879 -0.83598,-0.0658 -1.82497,-0.1717 -2.1978,-0.23527 -0.59083,-0.10074 -0.7354,-0.058 -1.12638,0.33297 -0.51536,0.51538 -1.15122,2.41756 -1.15122,3.44395 0,0.51327 0.0928,0.747 0.37534,0.94486 0.48641,0.3407 0.67117,0.33155 1.34605,-0.0666 z m 58.0889,-1.16857 c 0.33445,-0.0163 0.49176,-0.14769 0.6211,-0.51869 0.13377,-0.38371 0.32983,-0.53904 0.86095,-0.68205 0.80767,-0.21749 0.92899,-0.68356 0.25756,-0.98948 -0.58075,-0.26461 -1.09641,-0.24655 -1.84078,0.0645 -0.41539,0.17356 -1.02417,0.244 -1.82472,0.21111 -1.19774,-0.0492 -1.20254,-0.0476 -1.59274,0.52449 -0.21525,0.31561 -0.39139,0.77735 -0.39139,1.02608 l 0,0.45225 1.73105,-0.0332 c 0.95208,-0.0182 1.93262,-0.043 2.17897,-0.055 z m -14.36957,-2.65303 c 0.0932,-0.11224 0.21532,-0.59209 0.2715,-1.06636 0.10008,-0.84512 0.0932,-0.86229 -0.34361,-0.86229 -0.28362,0 -0.44573,-0.0921 -0.44573,-0.25333 0,-0.35296 -1.61332,-0.35296 -1.96628,0 -0.13934,0.13933 -0.42098,0.25333 -0.62589,0.25333 -0.53422,0 -1.12326,0.46513 -1.12326,0.88697 0,0.19864 0.19971,0.56961 0.44379,0.82438 0.42576,0.4444 0.50829,0.46237 2.03195,0.44229 1.01166,-0.0133 1.64967,-0.095 1.75753,-0.22499 z M 169.3679,130.5219 c 0.12227,-0.26834 0.38237,-0.4637 0.70264,-0.52776 0.31706,-0.0634 0.5074,-0.20501 0.50556,-0.37614 -0.003,-0.29525 -1.94628,-1.54105 -2.40363,-1.54105 -0.14989,0 -0.44124,0.23692 -0.64743,0.52648 -0.46303,0.65025 -0.29886,1.34687 0.3534,1.49979 0.26531,0.0622 0.44062,0.23642 0.47467,0.47167 0.0778,0.53763 0.76197,0.5019 1.01479,-0.053 z m 9.92343,-9.4536 c 0.25516,-0.27534 0.57332,-0.4222 0.91462,-0.4222 0.43845,0 0.56338,-0.0959 0.77029,-0.59109 0.26109,-0.62487 0.28182,-0.63508 1.34019,-0.65977 0.67113,-0.0157 0.67587,-0.0204 0.72746,-0.73352 0.0501,-0.69253 0.0346,-0.71775 -0.44165,-0.71775 -0.27147,0 -0.67484,-0.13761 -0.89635,-0.3058 -0.93435,-0.70942 -3.24367,-0.96368 -3.74134,-0.41195 -0.48427,0.53686 -1.18316,2.36783 -1.07236,2.80933 0.0571,0.22758 0.36997,0.57824 0.69523,0.77925 0.32524,0.20103 0.59138,0.43529 0.59138,0.5206 0,0.31712 0.73453,0.14077 1.11253,-0.2671 z m 9.09283,-6.93627 c 0.16026,-0.16028 0.26538,-0.55764 0.26538,-1.00333 0,-0.40586 0.076,-0.78491 0.16888,-0.84231 0.26094,-0.16128 0.19984,-0.78361 -0.11062,-1.12667 -0.3474,-0.38389 -0.78903,-0.39592 -1.0929,-0.0298 -0.12738,0.15348 -0.63067,0.57386 -1.11842,0.93419 -0.80752,0.59655 -0.88684,0.71431 -0.88684,1.31696 0,0.82582 0.27371,1.00438 1.55011,1.01122 0.65218,0.004 1.04392,-0.0798 1.22441,-0.26026 z m 24.67666,-1.5002 c 0.74075,-0.74077 0.43808,-2.14087 -0.40498,-1.8733 -0.25942,0.0823 -0.39519,-0.0309 -0.64142,-0.53491 -0.30927,-0.63308 -0.63742,-0.76003 -1.39514,-0.53977 -0.14271,0.0415 -0.27981,-0.0937 -0.3416,-0.33693 -0.1277,-0.50248 -0.54389,-0.78244 -0.93823,-0.63111 -0.42079,0.16147 -0.27388,1.4451 0.32727,2.85955 0.53115,1.24971 0.80762,1.44324 2.08526,1.45957 0.7333,0.009 0.96893,-0.0632 1.30884,-0.4031 z m -15.63531,-4.30308 c 0.0962,-0.17968 0.17484,-0.67529 0.17484,-1.10137 0,-0.67113 -0.0589,-0.80154 -0.44071,-0.9755 -0.37833,-0.17237 -0.47395,-0.15533 -0.67554,0.12034 -0.29724,0.40651 -0.31525,2.0537 -0.0237,2.17134 0.44284,0.17869 0.79669,0.0999 0.96513,-0.21481 z m 26.01393,-0.6022 c 0.45245,-0.65759 0.60291,-0.75998 1.11696,-0.75998 0.78869,0 1.15694,-0.21829 1.41362,-0.83795 0.16667,-0.40239 0.31674,-0.51311 0.69548,-0.51311 0.63239,0 0.80034,-0.58447 0.3951,-1.37511 -0.37048,-0.72285 -0.51966,-0.81463 -1.32924,-0.81779 -0.52109,-0.002 -0.7818,-0.12042 -1.21436,-0.55146 -0.30294,-0.30186 -0.70732,-0.68186 -0.89863,-0.84441 -0.20465,-0.1739 -0.34781,-0.49904 -0.34781,-0.78993 0,-0.33863 -0.14634,-0.60893 -0.46443,-0.85791 -0.35419,-0.27724 -0.48447,-0.550726 -0.54887,-1.15222 -0.0965,-0.901503 -0.0481,-0.888634 -2.11104,-0.560696 -1.68403,0.267703 -5.31668,0.0697 -5.44492,-0.296796 -0.0518,-0.147929 -0.25294,-0.445204 -0.44707,-0.660577 -0.34182,-0.379269 -0.41046,-0.387876 -2.17798,-0.273322 -1.68346,0.109109 -1.85391,0.092 -2.19735,-0.220603 -0.60689,-0.552415 -1.07221,-0.725959 -2.23846,-0.834864 -0.80532,-0.0752 -1.14704,-0.182976 -1.26217,-0.398073 -0.21708,-0.40565 -1.69845,-0.731385 -2.80619,-0.617055 -0.82564,0.08522 -0.93786,0.05619 -1.17355,-0.303546 -0.24455,-0.373213 -1.0221,-0.760804 -1.52628,-0.760804 -0.12332,0 -0.34539,0.184894 -0.49345,0.410891 -0.20942,0.319617 -0.22772,0.488419 -0.0824,0.759967 0.10276,0.192001 0.29985,0.349097 0.43798,0.349097 0.32319,0 1.76356,1.323068 1.76356,1.619956 0,0.378852 0.67706,0.621216 1.44235,0.516318 0.61066,-0.0837 0.78491,-0.03452 1.18213,0.333618 0.39982,0.370521 0.56413,0.416081 1.15841,0.321136 1.41982,-0.226844 5.03265,-0.291728 5.23008,-0.09394 0.11346,0.113646 0.18043,0.704403 0.16479,1.453184 -0.0262,1.252919 -0.0226,1.263709 0.50665,1.548899 0.42694,0.23003 1.11338,0.29981 3.44929,0.35066 2.70109,0.0588 2.92949,0.0882 3.09569,0.39878 0.0987,0.18441 0.44355,0.44565 0.76636,0.58052 0.50284,0.2101 0.56742,0.29877 0.45083,0.61903 -0.13331,0.36618 -0.14163,1.21072 -0.0254,2.57967 0.0619,0.72885 0.58377,1.3211 1.8315,2.07838 0.84754,0.5144 1.10103,0.45437 1.68883,-0.39996 z m -32.41179,-2.3073 c 0.66928,-1.33373 0.84053,-1.83244 0.76837,-2.23771 -0.0511,-0.28681 -0.15296,-0.86347 -0.22639,-1.28146 -0.11842,-0.67401 -0.18847,-0.76625 -0.61943,-0.81548 -0.37389,-0.0427 -0.63229,0.0874 -1.12079,0.56442 -0.56426,0.55097 -0.6429,0.73093 -0.70707,1.61785 -0.0575,0.79438 -0.16469,1.09449 -0.52581,1.47142 -0.93465,0.97556 -0.29641,2.35108 1.10699,2.38573 0.42091,0.0104 0.54099,-0.1442 1.32413,-1.70477 z m 13.63515,-2.81337 c 0.0823,-0.85818 -0.31381,-1.31912 -1.22164,-1.42144 -0.57716,-0.0651 -0.89094,-0.2179 -1.26129,-0.61434 -0.34863,-0.3732 -0.64745,-0.52774 -1.02049,-0.52774 -0.41455,0 -0.56375,-0.09532 -0.6968,-0.445241 -0.16204,-0.426238 -0.21056,-0.44133 -1.13577,-0.353421 -0.53157,0.0505 -1.09387,0.142841 -1.24955,0.205186 -0.21757,0.08715 -0.29569,0.0068 -0.33775,-0.347282 -0.0851,-0.71616 -0.50212,-0.873389 -1.13023,-0.426125 -0.82695,0.58884 -0.72979,1.170583 0.41283,2.472063 0.51795,0.58994 1.26393,1.22861 1.65772,1.41924 0.74996,0.36305 2.18735,0.46495 2.62784,0.18628 0.17325,-0.10958 0.31383,-0.0572 0.47881,0.17833 0.20386,0.29103 0.39819,0.32721 1.52803,0.28438 l 1.29448,-0.0491 0.0538,-0.56082 z m -16.94181,-2.22716 c 0.13637,-0.620885 0.56403,-0.873681 1.247,-0.737091 0.44962,0.08993 0.54202,0.04151 0.72814,-0.381442 0.29797,-0.677177 0.4487,-0.746894 1.35999,-0.629077 0.79566,0.102868 0.80218,0.09975 0.79962,-0.382472 -0.001,-0.267408 -0.0584,-0.570485 -0.12667,-0.673506 -0.0724,-0.109292 -0.92014,-0.224152 -2.0355,-0.27578 l -1.9114,-0.08847 -0.62185,0.670386 c -0.83282,0.897872 -1.03094,1.284535 -1.03805,2.026045 -0.007,0.691947 0.28459,0.965777 1.03612,0.974327 0.36582,0.004 0.47209,-0.0908 0.5626,-0.50292 z m -5.18224,-2.320726 c -0.0616,-0.535479 -0.74166,-0.763516 -0.91669,-0.307391 -0.16719,0.435731 0.0642,0.771816 0.53139,0.771816 0.379,0 0.43147,-0.06325 0.3853,-0.464425 z m 16.37043,-3.855032 c 0.7497,-0.153761 0.36053,-0.409269 -0.62335,-0.409269 -0.97863,0 -1.32236,0.159309 -1.10448,0.511831 0.0976,0.157953 0.60413,0.127882 1.72783,-0.102562 z M 178.74009,90.18336 c 0.43601,-0.843216 0.24661,-1.184135 -0.69689,-1.254352 -1.20781,-0.08991 -1.95116,0.75185 -1.34213,1.519771 0.27543,0.347282 0.60554,0.46258 1.20908,0.422271 0.38485,-0.0257 0.56472,-0.174727 0.82994,-0.68769 z m 26.2938,0.482739 c 0.15139,-0.182405 0.37711,-0.225794 0.78066,-0.150091 0.45785,0.08589 0.56771,0.05262 0.56771,-0.171922 0,-0.355062 -1.4961,-1.820432 -1.71837,-1.683067 -0.0918,0.05674 -0.7117,0.151844 -1.37753,0.211334 l -1.21062,0.108181 -0.0537,0.55989 c -0.0914,0.951917 0.47465,1.353528 1.933,1.371547 0.5792,0.0072 0.93648,-0.07425 1.07889,-0.245872 z M 185.3385,86.008904 c 0.24749,-0.194652 0.56119,-0.311245 0.69711,-0.259087 0.13592,0.05217 0.38068,-0.04786 0.5439,-0.222276 0.1802,-0.192571 0.82743,-0.424738 1.64781,-0.591103 1.76718,-0.358336 3.97559,-1.086875 4.35096,-1.43534 0.25294,-0.234787 0.26414,-0.322411 0.0744,-0.581875 -0.19399,-0.265307 -0.31085,-0.281174 -0.88884,-0.120682 -0.36602,0.101613 -1.00959,0.185189 -1.43013,0.185699 -0.42635,5.3e-4 -0.9354,0.12057 -1.15065,0.271333 -0.40952,0.286844 -2.32399,0.742908 -3.1186,0.742908 -1.42614,0 -3.15695,1.014792 -3.15695,1.850961 0,0.595958 1.73166,0.709563 2.43098,0.159462 z m 19.03816,-3.657036 c 0.23205,-0.255436 0.51063,-0.673414 0.61905,-0.928851 0.17935,-0.422576 0.27734,-0.464598 1.08738,-0.466271 0.84997,-0.0018 0.93803,-0.0462 1.94578,-0.981988 1.22506,-1.137585 1.29989,-1.475189 0.52577,-2.371542 -0.64997,-0.752564 -1.19761,-1.018045 -2.12058,-1.027966 -0.87567,-0.0094 -1.28914,0.455441 -1.13517,1.276244 0.0913,0.486849 0.045,0.558616 -0.54838,0.848386 -0.54727,0.267265 -0.65527,0.408576 -0.69376,0.907641 -0.0753,0.97693 -0.18737,1.300952 -0.63282,1.830333 -0.37148,0.441482 -0.40007,0.560441 -0.22627,0.941873 0.25655,0.563051 0.65058,0.553741 1.179,-0.02786 z m -13.21599,-0.675535 c 0.36,-0.301334 0.53915,-1.304358 0.30161,-1.688686 -0.0674,-0.108986 -0.39926,-0.250093 -0.73757,-0.313559 -0.53597,-0.100544 -0.66674,-0.05537 -1.01637,0.351115 -0.55451,0.644659 -0.48696,1.628105 0.12338,1.79651 0.69888,0.192836 0.95889,0.164397 1.32895,-0.14538 z m -19.82838,-2.81331 c 0.81709,-0.284366 1.65115,-1.168859 1.57885,-1.674287 -0.0287,-0.200546 -0.26054,-0.464181 -0.51524,-0.585873 -0.25468,-0.121681 -0.54236,-0.369389 -0.63924,-0.550448 -0.25371,-0.474051 -0.50016,-0.411064 -1.18993,0.304107 -0.33595,0.348322 -0.92658,0.841585 -1.31253,1.096134 -0.54997,0.36272 -0.70174,0.566672 -0.70174,0.942933 0,0.264064 0.0507,0.530768 0.11259,0.592695 0.19869,0.19869 1.97629,0.115206 2.66724,-0.125261 z m 53.9303,-6.71633 c 0.44414,-0.785154 0.44486,-0.792139 0.11833,-1.152962 -0.18069,-0.199648 -0.71777,-0.547154 -1.19351,-0.772214 -0.98818,-0.467484 -2.24134,-0.519897 -4.21007,-0.176072 -0.98443,0.171932 -1.19073,0.264889 -1.23327,0.55574 -0.0573,0.392006 0.33125,0.556056 1.32616,0.55988 0.32974,0.0013 0.67173,0.06896 0.75997,0.150427 0.0882,0.08146 0.57163,0.281623 1.07422,0.444796 0.50259,0.163174 1.22456,0.513729 1.60438,0.779005 0.37983,0.265287 0.82929,0.46412 0.99878,0.44185 0.16948,-0.02228 0.50925,-0.395973 0.75501,-0.83045 z m -25.0153,-1.83073 c 0.0161,-0.416336 0.0351,-0.847163 0.0422,-0.957383 0.007,-0.11022 0.25993,-0.224213 0.56182,-0.253325 0.45875,-0.04424 0.54887,-0.122233 0.54887,-0.475133 0,-0.356928 -0.0818,-0.42481 -0.52916,-0.439096 -0.37154,-0.01186 -0.71569,-0.203411 -1.15533,-0.643037 -0.72032,-0.720331 -1.32004,-0.772265 -1.412,-0.122273 -0.0311,0.219991 -0.32048,0.66389 -0.64304,0.986444 -0.88306,0.883066 -0.74531,1.270646 0.52933,1.489231 0.7975,0.136742 1.02497,0.244077 1.07369,0.506641 0.0888,0.478742 0.37477,0.777985 0.68547,0.717374 0.19249,-0.03755 0.27717,-0.267459 0.29812,-0.809443 z m -12.94881,-4.271328 c 0.37831,-0.193673 0.4222,-0.319862 0.4222,-1.213808 l 0,-0.997661 0.61573,-0.147378 c 0.70089,-0.167772 1.41426,-0.831846 1.27724,-1.188958 -0.12908,-0.33634 -0.89641,-0.447926 -1.27185,-0.184944 -0.17285,0.12106 -0.67609,0.311215 -1.11833,0.422577 -0.914,0.230148 -1.44324,0.88223 -1.44432,1.779572 -3.4e-4,0.290504 -0.11461,0.622796 -0.25395,0.738431 -0.85762,0.711755 0.63119,1.376849 1.77328,0.792169 z m 20.77974,-12.8749 c 0.53013,-0.564306 0.29063,-1.005706 -0.54572,-1.005706 -0.43058,0 -0.72453,-0.142494 -1.13223,-0.548868 -0.68444,-0.682224 -1.29594,-0.725297 -1.57582,-0.110995 -0.17681,0.38805 -0.1524,0.474949 0.21471,0.76374 0.22784,0.179234 0.62594,0.372214 0.88467,0.428858 0.25873,0.05663 0.54356,0.239621 0.63293,0.406639 0.0894,0.167018 0.33369,0.336616 0.54288,0.376904 0.20919,0.04028 0.42412,0.08359 0.47758,0.09623 0.0535,0.01265 0.27893,-0.170413 0.501,-0.406802 z M 180.45025,52.88178 c 0.24027,-1.107687 0.1603,-1.510787 -0.28708,-1.447249 -0.41185,0.05849 -0.57937,0.670783 -0.38995,1.425438 0.12773,0.508935 0.5683,0.523119 0.67703,0.02181 z m 31.39179,-6.417749 c 0.15894,-0.116216 0.34948,-0.439208 0.42338,-0.717751 0.10897,-0.410504 0.23633,-0.516472 0.67218,-0.559371 0.79334,-0.07808 0.65384,-0.36842 -0.18001,-0.374661 -0.39476,-0.003 -0.85412,-0.108802 -1.02081,-0.235205 -0.22957,-0.174105 -0.43793,-0.188452 -0.85923,-0.05915 -0.50157,0.153935 -0.64949,0.108731 -1.50686,-0.460528 -1.17855,-0.78251 -1.509,-0.71479 -1.43604,0.294285 0.0477,0.659924 0.0938,0.724012 0.55864,0.776466 0.65892,0.07434 0.92885,0.310715 0.92885,0.813369 0,0.264196 0.13331,0.460551 0.38,0.559707 0.56166,0.225763 1.70893,0.204859 2.0399,-0.03716 z M 186.80292,44.47391 c 0.44177,-0.236419 0.41082,-0.531674 -0.10675,-1.017892 -0.23839,-0.22395 -0.63045,-0.769178 -0.87126,-1.211621 -0.44925,-0.825409 -0.67175,-0.955932 -1.0259,-0.601779 -0.3126,0.3126 -0.24386,0.762696 0.24811,1.624982 0.79983,1.401757 1.05852,1.579492 1.7558,1.20631 z"
     id="path1310"
     inkscape:connector-curvature="0" />
</svg>
