<?xml version="1.0" encoding="UTF-8" standalone="no"?>
<svg
   xmlns:dc="http://purl.org/dc/elements/1.1/"
   xmlns:cc="http://creativecommons.org/ns#"
   xmlns:rdf="http://www.w3.org/1999/02/22-rdf-syntax-ns#"
   xmlns:svg="http://www.w3.org/2000/svg"
   xmlns="http://www.w3.org/2000/svg"
   xmlns:xlink="http://www.w3.org/1999/xlink"
   xmlns:sodipodi="http://sodipodi.sourceforge.net/DTD/sodipodi-0.dtd"
   xmlns:inkscape="http://www.inkscape.org/namespaces/inkscape"
   height="480"
   width="640"
   inkscape:version="0.91 r13725"
   sodipodi:docname="un.svg"
   id="svg4136"
   version="1.1">
  <metadata
     id="metadata4234">
    <rdf:RDF>
      <cc:Work
         rdf:about="">
        <dc:format>image/svg+xml</dc:format>
        <dc:type
           rdf:resource="http://purl.org/dc/dcmitype/StillImage" />
        <dc:title></dc:title>
      </cc:Work>
    </rdf:RDF>
  </metadata>
  <defs
     id="defs110" />
  <sodipodi:namedview
     pagecolor="#ffffff"
     bordercolor="#666666"
     borderopacity="1"
     objecttolerance="10"
     gridtolerance="10"
     guidetolerance="10"
     inkscape:pageopacity="0"
     inkscape:pageshadow="2"
     inkscape:window-width="1010"
     inkscape:window-height="678"
     id="namedview108"
     showgrid="false"
     inkscape:zoom="0.417193"
     inkscape:cx="457.61431"
     inkscape:cy="262.22209"
     inkscape:window-x="251"
     inkscape:window-y="118"
     inkscape:window-maximized="0"
     inkscape:current-layer="svg4136" />
  <rect
     id="rect5"
     height="481.79736"
     width="640.00049"
     y="-1.103058"
     x="-0.44599089"
     style="fill:#4b92db;fill-rule:evenodd;stroke:none" />
  <g
     id="g4303"
     transform="matrix(0.53333375,0,0,0.53333375,-1.022612,27.263636)">
    <g
       id="branches-olive">
      <path
         d="m 663.85296,587.03061 c -2.6938,3.07789 -6.17965,5.95542 -9.46619,8.6077 -21.23248,-21.94305 -46.15966,-46.26232 -69.85339,-46.26232 -14.68962,0 -25.26978,11.18247 -37.61316,19.07207 -17.12945,10.94875 -40.62604,17.11471 -60.76155,9.07899 -10.83022,-4.11181 -21.32307,-10.16897 -29.16467,-20.00887 15.84826,10.92988 39.58091,12.3989 57.47189,4.97653 19.77572,-8.20428 39.90389,-19.09846 62.44104,-19.09846 33.22191,0 64.79633,22.4724 86.94603,43.63436 z M 418.31123,518.01637 c 21.99574,25.03833 57.87067,16.98283 87.23346,23.23624 4.08708,0.87043 7.92673,2.2277 12.31363,1.55399 -3.49104,-2.21317 -8.11811,-2.46288 -12.15065,-3.98204 -22.78289,-8.58288 -26.33489,-32.9661 -38.80319,-49.7476 15.92509,10.58731 29.11884,25.08204 44.0112,38.70353 10.36472,9.48023 23.27776,13.53648 36.66995,16.26142 -3.21803,1.17614 -7.4278,0.89873 -10.89355,1.7585 -24.05596,5.96772 -50.72732,15.38772 -76.32434,6.94056 -16.51902,-5.45137 -33.70936,-18.36144 -42.05651,-34.7246 z m -35.25816,-57.95044 c 13.72021,31.0633 48.19128,33.49604 71.11114,52.55246 4.35824,3.6236 8.67829,6.95821 13.46589,9.1911 l 0.24706,-0.25017 c -5.28898,-4.78552 -11.01252,-10.48869 -15.10916,-16.44101 -13.09999,-19.03396 -8.74058,-45.05135 -18.84103,-65.23149 9.17657,10.988 17.78396,22.30262 23.06807,34.88342 8.50335,20.2454 11.39181,43.34164 30.4633,58.72588 -20.64105,-6.80976 -44.45204,-5.4544 -63.03909,-17.62856 -19.53758,-12.79675 -37.64469,-32.99516 -41.36618,-55.80163 z m -14.69705,-62.84601 c 1.98376,27.36777 31.1208,41.98736 45.01398,64.48409 2.96731,4.80486 6.02083,9.76515 10.32987,13.64547 -0.67163,-2.91387 -3.06923,-5.4956 -4.38897,-8.35441 -4.45607,-9.65268 -6.47284,-20.82355 -5.36062,-32.31004 1.35322,-13.97546 7.17932,-26.95254 4.94331,-41.65477 11.97521,25.84803 8.11231,58.16158 15.03338,86.11027 1.5311,6.18289 5.29625,11.5932 7.61634,17.44897 -11.76596,-8.95063 -27.18531,-16.89557 -40.10037,-27.07554 -12.49005,-9.84497 -23.33146,-21.38399 -28.9668,-36.3985 -4.06068,-10.81905 -5.11667,-23.72412 -4.12012,-35.89554 z m 0.81385,-50.42545 c 1.40556,-6.10802 2.481,-12.42989 5.13847,-18.03341 -5.03154,25.81689 12.14351,44.466 18.00746,66.8021 2.20979,8.4172 2.96577,17.36074 6.36962,25.2148 0.31765,0.17025 0.59273,-0.15986 0.78893,-0.41419 -8.47379,-23.77084 3.94797,-45.73963 16.04862,-64.47681 3.1807,-4.92513 4.71181,-10.65998 6.19729,-16.45762 1.30798,10.76067 -0.98237,23.21736 -2.97304,34.32182 -2.56285,14.29621 -7.44921,27.69476 -11.33265,41.48764 -2.55677,8.61705 -1.88306,18.34172 -0.57094,27.36985 l -1.23323,-0.9841 c -9.00944,-16.63201 -26.7842,-29.62498 -32.15224,-47.77733 -4.29027,-14.50781 -7.25821,-31.26884 -4.28829,-47.05275 z m 9.50253,-27.77158 c 0,-19.53651 7.607,-35.47408 19.0175,-50.02372 0.33115,-0.16505 0.56679,-0.49723 0.99448,-0.41938 -12.56173,19.10782 -1.12831,43.22806 -2.74259,64.90139 l -1.65677,22.24384 c 0.24603,0.16194 0.24603,0.82942 0.82942,0.57405 0.74223,-2.47996 0.96749,-5.11783 1.39933,-7.67863 3.02406,-17.93268 18.77089,-30.41447 32.12525,-43.07485 3.15888,-2.99473 5.47169,-6.53571 6.96132,-10.34129 -1.11074,8.93262 -3.60252,18.08966 -7.61219,26.2072 -10.27917,20.81007 -30.13216,37.60836 -33.70313,61.25775 -1.7315,-22.66529 -15.61262,-39.51441 -15.61262,-63.64636 z m 33.11143,-65.90312 c 6.31666,-7.00335 13.39633,-12.45896 21.82445,-14.61712 -16.36626,11.25376 -15.47764,31.3665 -20.48845,48.18322 -1.83219,6.14897 -4.52497,11.90982 -5.95647,18.2649 l 0.41419,0.33115 c 2.72287,-7.18451 7.39468,-14.09066 13.48146,-19.83343 11.51143,-10.86085 28.81796,-17.43445 34.51387,-33.32112 -0.26056,22.0767 -19.07854,38.85848 -36.26614,51.84138 -7.70883,5.82298 -14.26001,13.64133 -18.25763,21.83692 0.66796,-6.09998 0.97133,-11.17418 0.42665,-17.12822 -1.76421,-19.285 -2.90827,-40.90457 10.30807,-55.55768 z m 66.42839,-37.11632 c -12.1465,10.6579 -20.25114,24.37608 -29.58198,36.70835 -7.76061,10.25695 -18.40919,16.61229 -27.56708,25.21896 4.94331,-10.25617 5.85603,-22.00815 12.13404,-31.9301 10.73525,-16.96631 28.47747,-23.55181 45.01502,-29.99721 z"
         style="fill:#ffffff"
         id="path4143"
         inkscape:connector-curvature="0" />
    </g>
    <use
       xlink:href="#branches-olive"
       transform="matrix(-1,0,0,1,1202.2,0)"
       id="use4145"
       x="0"
       y="0"
       width="100%"
       height="100%" />
  </g>
  <path
     id="path51"
     d="m 398.67638,260.15982 -1.91339,-1.044 c -4.0567,8.36587 -9.42828,15.97921 -15.85388,22.56429 l -11.17814,-11.17815 c 5.47627,-5.6432 9.89174,-12.04854 13.14454,-18.97121 l -1.90464,-1.04112 c -3.21558,6.86454 -7.54187,13.11041 -12.75948,18.49175 L 358.08552,258.8555 c 4.34693,-4.51904 7.79627,-9.67521 10.28587,-15.24748 l -1.88971,-1.03115 c -2.43808,5.49174 -5.8016,10.48588 -9.91147,14.76642 L 345.3798,246.15288 c 3.11206,-3.29792 5.51467,-7.09227 7.14987,-11.19841 l -1.89013,-1.03115 c -1.56246,4.0039 -3.87211,7.63894 -6.76534,10.72214 l -10.15681,-10.1552 c 2.89339,-3.22891 4.57142,-7.28001 4.80886,-11.60801 l 14.37654,0 c -0.12223,3.88459 -0.91802,7.60054 -2.26304,11.0416 l 1.89014,1.03115 c 1.51301,-3.80432 2.36741,-7.8736 2.48965,-12.07307 l 15.84801,0 c -0.1426,6.9968 -1.70261,13.65014 -4.3864,19.69548 l 1.88971,1.03115 c 2.88171,-6.45388 4.47414,-13.46721 4.6151,-20.72749 l 14.34934,0 c -0.15093,9.85334 -2.42395,19.19628 -6.36534,27.60856 l 1.90464,1.04112 c 4.16646,-8.86614 6.43094,-18.58402 6.58028,-28.64962 l 15.84694,0 c -0.15799,12.97014 -3.21349,25.25068 -8.53974,36.23469 l 1.91424,1.04358 c 5.72961,-11.80108 8.77121,-24.83309 8.77121,-38.33763 0,-11.48428 -2.20027,-22.62562 -6.38081,-32.96163 l -1.96368,0.844 c 3.93739,9.75361 6.07147,20.24268 6.20267,31.05816 l -15.84907,0 c -0.12848,-8.62828 -1.82401,-16.99522 -4.92566,-24.79469 l -1.94912,0.83531 c 2.99189,7.54027 4.62965,15.62348 4.75605,23.95948 l -14.35094,0 c -0.12224,-6.35413 -1.36165,-12.51947 -3.59808,-18.28801 l -1.94912,0.83739 c 2.12709,5.50507 3.30666,11.38827 3.43056,17.45068 l -15.84961,0 c -0.11226,-3.87419 -0.84609,-7.64161 -2.14747,-11.19041 l -1.94875,0.83611 c 1.19536,3.28709 1.86725,6.77067 1.97952,10.35414 l -14.37654,0 c -0.23741,-4.32865 -1.91547,-8.37921 -4.80886,-11.60801 l 10.16694,-10.16534 c 3.13952,3.33909 5.51414,7.21654 7.03947,11.41974 l 1.94875,-0.83611 c -1.63232,-4.44587 -4.15856,-8.54774 -7.49227,-12.08107 l 11.20694,-11.20588 c 4.78224,4.97766 8.43254,10.75681 10.85174,17.02615 l 1.94912,-0.83739 c -2.52581,-6.512 -6.328,-12.51628 -11.30294,-17.68641 l 10.14721,-10.14881 c 6.28427,6.48107 11.11254,14.00161 14.34828,22.16428 l 1.94912,-0.8353 c -3.34326,-8.40641 -8.32267,-16.15202 -14.79948,-22.82456 l 11.20534,-11.20747 c 7.92481,8.1184 14.03788,17.53868 18.16588,27.76855 l 1.96368,-0.844 c -4.36187,-10.79414 -10.88267,-20.70828 -19.36321,-29.18829 -8.51147,-8.51254 -18.46935,-15.04801 -29.31042,-19.41068 l -0.7808,1.98784 c 10.25227,4.1295 19.69334,10.24961 27.82668,18.18935 l -11.20534,11.20694 c -6.56,-6.35734 -14.16001,-11.28534 -22.41068,-14.62401 l -0.77334,1.97078 c 7.97814,3.2368 15.33228,8.0032 21.68695,14.16747 l -10.14667,10.14721 c -4.93275,-4.74523 -10.62081,-8.4304 -16.78668,-10.95307 l -0.77461,1.97077 c 5.89973,2.41771 11.34081,5.94401 16.06401,10.48054 l -11.20534,11.20535 c -3.15201,-2.97115 -6.75628,-5.30278 -10.65068,-6.92908 l -0.77499,1.97243 c 3.62929,1.52091 6.98561,3.69083 9.92801,6.45494 l -10.16534,10.16534 c -3.23099,-2.89381 -7.28054,-4.57147 -11.61014,-4.80763 l 0,-14.37601 c 4.13152,0.12723 8.13174,1.00491 11.84747,2.56368 l 0.77499,-1.97243 c -3.95941,-1.65434 -8.22294,-2.58069 -12.62241,-2.71003 l 0,-15.84854 c 6.41707,0.12889 12.63468,1.43317 18.41495,3.80187 l 0.77461,-1.97078 c -6.02347,-2.46469 -12.50454,-3.81888 -19.18988,-3.94779 l 0,-14.35734 c 8.50988,0.12972 16.76108,1.82693 24.43522,4.93814 l 0.77334,-1.97078 c -7.91841,-3.20768 -16.42828,-4.95478 -25.20909,-5.08491 l 0,-15.85014 c 10.79467,0.13054 21.26455,2.25808 31.00002,6.17813 l 0.7808,-1.98784 c -10.3008,-4.14736 -21.40055,-6.3328 -32.83842,-6.3328 -14.13068,0 -27.48216,3.37152 -39.32217,9.32107 l 0.96587,1.84854 c 11.45708,-5.74081 24.13282,-8.86828 37.29763,-9.02721 l 0,15.85068 c -10.73654,0.15966 -20.88162,2.76491 -29.92909,7.2576 l 0.96251,1.84352 c 8.9136,-4.41264 18.75308,-6.82987 28.96642,-6.9856 l 0,14.35148 c -7.98347,0.15716 -15.53761,2.07723 -22.29868,5.37707 l 0.96832,1.85184 c 6.58187,-3.19483 13.81921,-4.96059 21.33068,-5.11195 l 0,15.85014 c -4.98096,0.14719 -9.70507,1.32715 -13.97068,3.3287 l 0.97334,1.85894 c 4.03509,-1.87558 8.43734,-2.92998 12.99734,-3.07094 l 0,14.37814 c -2.23019,0.12391 -4.35734,0.6328 -6.31787,1.45979 l 0.97168,1.85808 c 2.00528,-0.82117 4.1719,-1.25354 6.4048,-1.25354 4.51574,0 8.76054,1.75829 11.95415,4.95104 3.19317,3.19318 4.95147,7.43947 4.95147,11.95574 0,9.32161 -7.58241,16.90775 -16.90562,16.90775 -4.51696,0 -8.76267,-1.75915 -11.95574,-4.95233 -3.19312,-3.19482 -4.9519,-7.43947 -4.9519,-11.95574 0,-4.51616 1.75873,-8.76267 4.9519,-11.95574 1.61526,-1.61446 3.49915,-2.8576 5.55041,-3.6975 l -0.97168,-1.85808 c -1.94833,0.82283 -3.73115,1.95995 -5.28534,3.352 l -10.17121,-10.1712 c 2.62768,-2.46929 5.58667,-4.46582 8.77654,-5.94827 l -0.97333,-1.85894 c -3.43057,1.61029 -6.56374,3.7503 -9.29068,6.32107 l -11.21707,-11.21761 c 3.93365,-3.77856 8.37014,-6.84907 13.14827,-9.17014 l -0.96832,-1.85184 c -5.04624,2.46224 -9.6528,5.68961 -13.65921,9.54134 l -10.16534,-10.16427 c 5.13067,-4.97809 10.92054,-9.03414 17.15628,-12.12001 l -0.96251,-1.84352 c -6.52747,3.24224 -12.48907,7.46187 -17.66934,12.48907 l -11.22881,-11.22934 c 6.43734,-6.28427 13.70081,-11.41654 21.52961,-15.34028 l -0.96586,-1.84853 c -17.11308,8.6 -31.04536,22.61495 -39.5291,39.79576 l 1.84144,0.99371 c 3.95648,-8.04694 9.18934,-15.50775 15.62668,-22.10402 l 11.22988,11.22988 c -5.2238,5.38187 -9.58828,11.59947 -12.87521,18.42988 l 1.8344,0.9904 c 3.13077,-6.54027 7.32854,-12.59788 12.51414,-17.94561 l 10.16587,10.1648 c -4.09744,4.26251 -7.48747,9.20428 -10.00054,14.63255 l 1.83856,0.99205 c 2.36699,-5.16016 5.60161,-9.93867 9.64215,-14.14454 l 11.21707,11.21761 c -2.8672,3.04181 -5.20256,6.58933 -6.86027,10.49227 l 1.85349,1.00246 c 1.52342,-3.66091 3.70705,-7.04641 6.49228,-10.00908 l 10.1712,10.17014 c -2.79232,3.12123 -4.56517,7.15627 -4.81131,11.60321 l -14.37974,0 c 0.12764,-4.09995 0.99205,-8.07254 2.52747,-11.76481 l -1.8535,-1.00245 c -1.67472,3.94277 -2.6568,8.25014 -2.79109,12.76694 l -15.84802,0 c 0.14262,-7.13227 1.74209,-14.01921 4.63963,-20.33281 l -1.83856,-0.99206 c -3.01563,6.51094 -4.76811,13.72375 -4.91611,21.32535 l -14.35361,0 c 0.15051,-9.91147 2.42438,-19.47308 6.59094,-28.17709 l -1.8344,-0.9904 c -4.26336,8.85334 -6.71521,18.73548 -6.87094,29.16749 l -15.85121,0 c 0.15591,-12.94454 3.18069,-25.41762 8.73974,-36.72269 l -1.84144,-0.99371 c -5.77867,11.70454 -9.04108,24.86348 -9.04108,38.7755 0,8.50987 1.21531,16.82721 3.53697,24.77228 l 2.07594,-0.52221 c -2.18282,-7.44534 -3.37403,-15.22828 -3.47003,-23.19042 l 15.84855,0 c 0.0977,6.63894 1.12053,13.12588 2.99814,19.31895 l 2.05514,-0.51806 c -1.83813,-6.02507 -2.83723,-12.33921 -2.93659,-18.80108 l 14.35095,0 c 0.10352,5.26331 0.97168,10.39894 2.53456,15.28641 l 2.05851,-0.5193 c -1.52384,-4.71819 -2.37158,-9.68107 -2.47467,-14.76694 l 15.84801,0 c 0.1106,3.764 0.80662,7.42667 2.03937,10.88641 l 2.05973,-0.52014 c -1.19451,-3.29003 -1.87056,-6.7792 -1.9824,-10.36587 l 14.37814,0 c 0.23741,4.32821 1.91424,8.3792 4.80758,11.60801 l -10.16587,10.16641 c -3.13617,-3.33782 -5.51041,-7.21014 -7.03788,-11.40855 l -2.05973,0.52014 c 1.62693,4.56187 4.19099,8.77174 7.6,12.38507 l -11.20534,11.20641 c -5.45067,-5.67467 -9.44001,-12.40001 -11.80267,-19.70668 l -2.05851,0.5193 c 2.45349,7.67254 6.6368,14.73068 12.36854,20.68802 l -10.14881,10.14934 c -7.58934,-7.82614 -13.07094,-17.16215 -16.16801,-27.32376 l -2.05515,0.51806 c 3.19147,10.52641 8.86241,20.20109 16.72535,28.30243 l -11.20588,11.2064 c -9.91787,-10.16214 -17.00161,-22.35895 -20.89601,-35.63682 l -2.07595,0.52221 c 4.08496,13.97921 11.62134,26.79309 22.20695,37.37656 7.16854,7.17014 15.36214,12.94135 24.24482,17.19415 l 1.05189,-1.8656 c -8.40694,-4.00641 -16.18348,-9.40534 -23.03415,-16.09441 l 11.20534,-11.20481 c 5.82401,5.6528 12.46508,10.16054 19.64589,13.44427 l 1.04565,-1.85477 c -7.01707,-3.18443 -13.50668,-7.57441 -19.19255,-13.08641 l 10.14774,-10.14828 c 4.75606,4.57558 10.21708,8.16268 16.13068,10.67521 l 1.04486,-1.85147 c -5.74401,-2.41066 -11.05601,-5.87733 -15.67468,-10.31467 l 11.20694,-11.20641 c 3.60102,3.39728 7.79307,5.95574 12.33761,7.58347 l 1.05899,-1.87557 c -4.38641,-1.51883 -8.43201,-3.94779 -11.89868,-7.20481 l 10.16587,-10.16694 c 3.22891,2.8959 7.27788,4.57227 11.60801,4.80971 l 0,14.37815 c -3.41019,-0.10561 -6.73067,-0.72843 -9.8752,-1.81526 l -1.05899,1.87558 c 3.47381,1.24608 7.15094,1.94501 10.93441,2.05643 l 0,15.84694 c -6.55787,-0.13096 -12.91201,-1.48891 -18.79948,-3.95862 l -1.04486,1.85147 c 6.20854,2.63894 12.91468,4.09163 19.84428,4.2255 l 0,14.35148 c -9.4432,-0.14552 -18.56321,-2.22107 -26.93015,-6.01761 l -1.04565,1.85478 c 8.68534,3.96859 18.16321,6.13387 27.97602,6.28054 l 0,15.84641 c -12.58775,-0.15135 -24.73602,-3.0048 -35.79256,-8.27201 l -1.0519,1.8656 c 11.68481,5.59307 24.56535,8.54988 37.9035,8.54988 13.99148,0 27.47202,-3.26923 39.60483,-9.40801 l -1.00203,-1.94331 c -11.31467,5.73014 -24.05228,9.04214 -37.54509,9.20801 l 0,-15.84695 c 10.69814,-0.15799 20.99628,-2.72251 30.30082,-7.40267 l -0.98912,-1.91755 c -8.84428,4.45419 -18.78508,7.03787 -29.31149,7.20161 l 0,-14.35148 c 8.02667,-0.15467 15.75201,-2.08054 22.75042,-5.57121 l -0.98331,-1.90842 c -6.58401,3.28379 -13.96001,5.20219 -21.76695,5.3616 l 0,-15.84694 c 5.11195,-0.14969 10.03307,-1.37995 14.51201,-3.57233 l -0.97664,-1.89717 c -4.11366,2.00779 -8.69387,3.19856 -13.53601,3.35157 l 0,-14.37601 c 4.32944,-0.23741 8.37921,-1.91381 11.61014,-4.80971 l 10.15521,10.15628 c -2.43147,2.28218 -5.20342,4.20059 -8.22934,5.6784 l 0.97664,1.89718 c 3.17275,-1.55377 6.12694,-3.58358 8.76054,-6.06774 l 11.18828,11.18881 c -3.73531,3.58853 -8.01548,6.60427 -12.69441,8.93654 l 0.9833,1.90842 c 4.79889,-2.39237 9.25974,-5.51413 13.22615,-9.32907 l 10.12587,10.12481 c -4.93275,4.7839 -10.59467,8.80961 -16.79041,11.92587 l 0.98912,1.91755 c 6.29174,-3.16363 12.13228,-7.28534 17.32055,-12.32321 l 11.17814,11.17815 c -6.23627,6.08693 -13.40641,11.2128 -21.25389,15.18561 l 1.00203,1.94331 c 8.22348,-4.16107 15.83628,-9.62775 22.54402,-16.33602 7.05174,-7.05014 12.74188,-15.09601 16.97335,-23.81068 z"
     style="fill:#ffffff"
     inkscape:connector-curvature="0" />
  <polygon
     id="polygon59"
     transform="matrix(0.41783499,0,0,0.424059,105.62343,109.5997)"
     points="524.04,216.67 522.77,216.72 522.83,218.22 524.11,218.16 "
     style="fill:#ffffff" />
  <rect
     id="rect61"
     height="0.5398404"
     width="0.70821393"
     y="200.63445"
     x="323.27692"
     style="fill:#ffffff" />
  <polygon
     id="polygon63"
     transform="matrix(0.41783499,0,0,0.424059,105.62343,109.5997)"
     points="517.85,214.23 519.34,214.45 519.52,213.19 518.03,212.98 "
     style="fill:#ffffff" />
  <rect
     id="rect65"
     transform="matrix(-0.98971394,-0.14306057,0.13896953,-0.99029666,0,0)"
     height="0.54053557"
     width="0.625278"
     y="-152.21574"
     x="-346.18875"
     style="fill:#ffffff" />
  <rect
     id="rect67"
     height="0.54026711"
     width="0.70821393"
     y="199.55177"
     x="316.36493"
     style="fill:#ffffff" />
  <polygon
     id="polygon69"
     transform="matrix(0.41783499,0,0,0.424059,105.62343,109.5997)"
     points="500.67,214.66 502.15,214.87 502.33,213.61 500.85,213.4 "
     style="fill:#ffffff" />
  <rect
     id="rect71"
     transform="matrix(-0.96919103,-0.24631025,0.23955094,-0.9708838,0,0)"
     height="0.53935832"
     width="0.7330665"
     y="-117.68054"
     x="-353.9808"
     style="fill:#ffffff" />
  <rect
     id="rect73"
     transform="matrix(-0.16105915,-0.98694476,0.98616623,-0.16575938,0,0)"
     height="0.53255713"
     width="0.54725671"
     y="276.97266"
     x="-251.29956"
     style="fill:#ffffff" />
  <polygon
     id="polygon75"
     transform="matrix(0.41783499,0,0,0.424059,105.62343,109.5997)"
     points="331.22,348.34 331.22,351.1 332.5,351.1 332.28,347.92 330.58,347.28 330.58,346.22 329.52,346.22 329.52,348.34 "
     style="fill:#ffffff" />
  <polygon
     id="polygon77"
     transform="matrix(0.41783499,0,0,0.424059,105.62343,109.5997)"
     points="340.13,355.98 343.31,357.46 344.38,360.43 345.86,361.5 347.35,364.68 346.5,366.16 344.17,364.04 342.47,361.71 341.62,359.8 "
     style="fill:#ffffff" />
  <polygon
     id="polygon79"
     transform="matrix(0.41783499,0,0,0.424059,105.62343,109.5997)"
     points="393.81,421.33 394.88,424.09 393.39,424.94 392.54,423.67 390.42,423.03 390.21,421.12 388.51,418.57 391.06,419 "
     style="fill:#ffffff" />
  <path
     id="path81"
     d="m 316.80759,207.29045 -0.97483,0 -0.17757,-1.9791 0.5319,-0.3613 0,-0.98933 -3.10326,0 -0.0886,-0.98891 0.44457,-0.27013 -0.71029,-0.27012 -0.53232,0.7192 -0.17591,0.80997 -0.88704,0.18065 0,0.44908 -0.62005,0 0,1.16955 -2.48321,2.06944 -4.96427,-0.17895 c -0.35599,0.80912 -1.24304,-0.0912 -1.24304,-0.0912 -0.17591,-0.53941 -1.41643,0 -1.41643,0 0,0.99104 -1.68469,-0.44908 -1.68469,-0.44908 l -3.10368,-2.25008 c -1.77286,-1.61947 -4.43238,0.45078 -4.52054,0.89984 0.0882,1.2599 -2.03904,0.27013 -2.03904,0.27013 0,0 -1.77286,-0.53941 -2.03947,0.18065 -0.26532,0.7192 -1.41979,0.54027 -1.41979,0.54027 l -0.17758,0.3596 -0.88704,0.1798 -0.17591,0.53942 -1.06464,0.18065 2.6591,-0.0903 c 0.70992,-0.0899 -0.26658,1.53003 -0.70864,1.44011 l -1.24011,0.0899 -0.44458,0.44908 -1.15237,0 -0.53148,0.72134 -1.68347,-0.0903 c 0,0 -0.97648,0.80955 -0.88661,1.07925 0.0886,0.27013 -0.17758,1.08011 -0.44417,1.08011 -0.26616,0 -0.79808,0.80955 -0.62048,1.07926 0.17842,0.27012 -0.53148,1.16997 -0.53148,1.16997 l -0.17674,0.90069 -0.53148,0.17896 0,2.42987 -1.06464,0.72005 0,1.07926 -1.59697,1.70981 0.17842,1.43883 -1.32913,1.44011 0.17591,1.43968 -0.79765,0.27012 -0.17633,0.62971 -0.35432,1.88874 0.88624,0.0912 c 0.44207,-0.18065 0.35433,1.16955 0,1.34848 -0.35599,0.18065 -1.3312,0.53984 -0.79808,0.89941 0.53232,0.36131 -1.41898,0.27055 -1.41898,-0.2697 0,-0.53856 -1.06422,-0.98933 -1.32912,-0.80869 -0.26658,0.17895 -0.7103,-0.80998 -0.7103,-0.80998 -0.97483,-0.98933 -3.98944,0.0895 -3.98944,0.0895 l -0.44457,1.43968 c -0.97398,0.18065 -1.59446,1.80011 -1.59446,1.80011 -0.79808,0.27013 -1.41856,1.25904 -1.15237,1.52918 0.26532,0.27012 -0.44458,0.3596 -0.44458,0.3596 l 0,1.98037 -0.44248,0.62971 0.0877,2.15888 c 0.53274,0 0.44458,0.99061 0.44458,0.99061 -0.88704,0.0895 -0.71072,1.2599 -0.71072,1.2599 l -1.86102,0.62933 -0.35432,0.53942 -2.30475,-0.0903 -0.62048,0.63056 -0.62213,-0.63056 -4.43275,0 -0.17591,-0.4495 -0.88704,-0.18108 -0.0894,-0.9889 -1.32912,0.0895 -0.26574,0.53984 -1.41936,0.0895 c 0.0886,0.90027 -1.41856,2.25051 -1.59446,1.89131 -0.17967,-0.36045 -1.15402,-1.35147 -0.70992,-1.5296 0.44374,-0.18107 1.59696,-0.36172 1.59696,-0.36172 l 0,-0.62929 -3.28165,-0.0895 -0.35349,0.54026 -1.33163,0.0891 0,1.44011 -0.61962,0.18023 c -0.44416,0.26885 0.0877,1.25989 0.0877,1.25989 0.62049,0.62891 -0.0877,1.61819 -0.0877,1.61819 -0.53274,0.54027 0.44207,1.53131 0.44207,1.53131 0.71029,0.17853 -0.44207,0.71877 -0.44207,0.71877 0.17591,0.89941 0.70864,1.16955 0.70864,1.16955 -0.53274,0.89941 0.35599,1.34853 0.35599,1.34853 l 0.0877,1.53126 0.62048,0.36045 0,0.98763 0.35432,0.63056 1.41856,0 -0.0886,-2.24923 c -1.24182,-1.44011 1.06298,-1.80011 1.15322,-1.26117 0.0894,0.54026 1.06422,0.8104 1.06422,0.8104 0.17758,1.35018 1.68512,2.15888 2.1272,0.81077 0.44374,-1.35147 0.79808,-0.54027 1.06421,0.0886 0.26616,0.63056 1.94875,2.16059 1.94875,2.16059 l 1.33078,0 0.17841,1.25989 c 1.50672,-0.0903 1.9488,0.0916 2.56928,2.15888 0.62213,2.06859 2.3056,2.60881 2.3056,2.60881 l 1.24182,-0.0899 c 0,-1.07798 1.24138,0.18192 1.24138,0.72219 0,0.5377 2.39334,2.60752 2.39334,2.60752 l 2.39291,0.53898 2.21909,1.80182 1.68304,-0.18023 0.7103,0 c 0.44206,-1.53126 2.57093,0.0886 2.74683,0.62891 0.17883,0.54026 1.59696,1.4401 1.77285,0.98933 0.17841,-0.44908 1.15323,-0.17853 1.3312,1.16955 0.17675,1.35147 0.79638,1.08091 0.79638,1.08091 l 5.05451,-0.0899 1.77285,-1.53131 4.52219,-0.0886 c 2.30475,-0.0899 0.88624,-3.23979 0.44416,-3.23979 -0.79808,-0.62891 0.2649,-3.23856 0.2649,-3.23856 l -6.472,-6.02827 c -1.50672,0 -0.17758,-2.16059 -0.17758,-2.16059 1.15237,-0.72048 -0.26658,-1.88832 -0.26658,-1.88832 0.17841,-1.08134 -0.62048,-2.3408 -0.62048,-2.3408 -1.59445,-1.07969 -1.15237,-3.14993 -1.15237,-3.14993 l 0,-1.44011 c -1.32912,-1.25818 0.53231,-1.4401 0.53231,-1.4401 0.61963,-1.07755 -0.44415,-1.8879 -0.44415,-1.8879 l -0.0882,-1.16997 -1.41899,-0.18065 -0.17591,-4.22913 -3.19141,-4.58789 c -0.62214,-0.1815 -0.17842,-1.2599 -0.17842,-1.2599 0.79808,-0.45035 -0.17842,-1.52875 -0.17842,-1.52875 l -0.0882,-1.97994 1.86102,-0.18108 0.44415,-0.71877 0.88624,0 -0.0882,-2.33995 c 0.44249,-1.16955 1.5063,-0.54027 1.5063,-0.54027 l 1.24139,0.0903 0.70992,-1.34976 0.17591,-1.08011 -0.97398,-0.0891 c -1.06421,-0.63056 -0.53232,-2.96928 -0.53232,-2.96928 1.6847,-2.52022 3.63387,-1.08048 3.63387,-1.08048 l 1.24261,-0.0891 c 1.86102,1.25904 0.17591,3.59856 0.17591,3.59856 -0.35432,0.54027 -0.17591,2.24966 -0.17591,2.24966 l 0.44249,2.87808 -1.15237,0.99104 c -0.97483,0.54027 -0.97483,1.79926 0.0894,2.06939 0.70864,0.0891 0.44249,1.79931 -0.62176,0.62933 -1.59446,0 0.88832,1.43969 0.17842,1.07841 1.59653,0.8104 1.2401,-0.7192 1.2401,-0.7192 l 2.12971,-1.70982 c 0.79808,-0.62933 2.21702,1.35061 2.21702,1.62075 0,0.2697 3.54571,0.089 3.54571,0.089 0.97482,0.62971 1.32912,2.25008 1.32912,2.25008 0.97648,-1.26075 3.01467,-0.0912 1.50794,0.62933 1.41729,0.89985 1.41729,1.70939 1.41729,1.70939 1.15402,-0.3596 1.15402,0.53984 1.15402,0.80998 0,0.27012 0.35432,-1.34934 0.35432,-1.34934 -1.32997,-0.99019 1.77286,-1.34976 0.88704,0.44993 l -0.53273,0.8104 0.88704,0.7192 0.0877,2.07024 c 1.95126,-0.18064 1.41899,-2.61051 1.41899,-2.61051 l 0.88661,-0.17895 c 0,-0.8104 0.61963,-0.36045 0.61963,-0.36045 -0.61963,-3.06 1.41936,-3.59856 1.41936,-3.59856 1.15238,-0.27013 1.24054,-2.70086 1.24054,-2.70086 -0.79638,-0.3596 -0.35474,-1.61861 0.53232,-0.53813 0.88581,1.07797 -0.53232,-2.16102 -0.53232,-2.16102 l -0.70864,-0.62933 -0.97483,-0.0899 -0.0894,-0.98976 -1.59445,0 -0.26658,1.26032 -0.62048,0.1798 -0.17842,-0.36045 -0.26532,0.98976 -1.59531,0 -0.0882,-1.07968 0.97482,-0.2697 0.35475,-0.53984 0.26532,-1.44011 1.15323,0 1.50672,-0.44908 c 0.0877,-1.53003 0.88661,-1.16955 0.88661,-1.16955 l 0.53149,0.44951 0.79808,0.62971 0.089,0.53898 -0.53274,0.2697 -0.0877,0.72091 0.26616,0.98934 0.70864,0 c 0.26574,-1.43969 2.12885,-1.43969 2.66032,-0.53985 l 0.53232,-1.25946 c -1.24096,-0.62971 -0.023,-1.62032 0.33134,-1.16998 0.35432,0.45036 1.17536,-1.16954 1.17536,-1.16954 0,0 0.62048,0.80997 0,-0.27013 -0.62048,-1.08011 0.44249,-1.61947 0.44249,-1.61947 -0.17633,-1.07926 1.15322,-0.89984 1.15322,-0.89984 l 0.0894,-1.43883 -1.24261,-0.0912 c -0.26407,1.25989 -1.3287,0.18065 -0.7968,-0.0891 0.53273,-0.27055 1.06298,-0.8104 1.06298,-0.8104 l 0,-0.89984 0.53233,-0.17981 0.0882,-0.89984 1.33077,0 1.15237,-0.53941 0.26658,-0.45035 1.24011,-0.0895 1.77285,-1.62032 -0.1759,-0.7192 c -1.06422,0 0,-0.80997 0,-0.80997 l 0.17507,-1.34683 z"
     style="fill:#ffffff"
     inkscape:connector-curvature="0" />
  <path
     id="path83"
     d="m 281.07956,225.10379 -1.5961,-0.1798 0.0894,0.62934 0.44248,0 c 0.70864,1.26032 0.089,4.31904 0.089,4.31904 0,0 -1.06299,0.089 -1.24139,-0.44951 -0.17591,-0.53984 -0.62048,1.16998 -0.26616,1.44011 0.35432,0.26843 1.59654,0 1.6847,0.99019 0.0877,0.98891 0.79808,-0.63056 0.79808,-0.63056 l 0,-6.11894 z"
     style="fill:#ffffff"
     inkscape:connector-curvature="0" />
  <polygon
     id="polygon85"
     transform="matrix(0.41783499,0,0,0.424059,105.62343,109.5997)"
     points="416.09,289.57 416.09,294.66 419.49,299.11 420.76,296.14 421.19,294.23 419.7,293.6 419.91,290.42 421.19,290.2 421.4,288.71 418.21,290.84 "
     style="fill:#ffffff" />
  <polygon
     id="polygon87"
     transform="matrix(0.41783499,0,0,0.424059,105.62343,109.5997)"
     points="421.61,303.78 421.61,301.66 420.13,301.87 419.91,303.57 "
     style="fill:#ffffff" />
  <polygon
     id="polygon89"
     transform="matrix(0.41783499,0,0,0.424059,105.62343,109.5997)"
     points="419.7,313.97 419.7,312.48 417.9,312.69 417.9,314.18 "
     style="fill:#ffffff" />
  <path
     id="path91"
     d="m 282.03423,239.97314 c 0.20767,0 0.3748,-0.17005 0.3748,-0.38038 0,-0.21203 -0.16713,-0.38251 -0.3748,-0.38251 -0.20766,0 -0.37605,0.17005 -0.37605,0.38251 0,0.21033 0.16839,0.38038 0.37605,0.38038 z"
     style="fill:#ffffff"
     inkscape:connector-curvature="0" />
  <ellipse
     id="circle93"
     cy="241.48204"
     cx="282.65176"
     style="fill:#ffffff"
     rx="0.37605149"
     ry="0.3816531" />
  <ellipse
     id="circle95"
     cy="231.20285"
     cx="282.67267"
     style="fill:#ffffff"
     rx="0.37605149"
     ry="0.3816531" />
  <polygon
     id="polygon97"
     transform="matrix(0.41783499,0,0,0.424059,105.62343,109.5997)"
     points="491.84,257.95 493.12,257.95 493.33,259.22 492.48,260.07 492.06,261.13 490.36,261.56 486.54,265.17 486.33,266.86 485.27,268.35 484,271.53 479.54,271.74 478.69,275.56 479.32,278.74 483.14,280.23 483.57,278.11 484.84,277.47 485.06,275.35 485.9,273.86 487.18,272.38 487.6,270.68 489.72,269.41 492.27,268.98 493.33,267.71 493.76,265.17 493.91,263.26 494.82,261.98 497.36,260.92 497.36,256.89 496.09,256.89 495.88,255.4 493.54,255.19 493.12,256.25 492.06,256.25 "
     style="fill:#ffffff" />
  <path
     id="path99"
     d="m 315.29826,224.02646 0,-1.25989 -0.17842,-1.16998 -1.32832,-0.62928 -0.97483,0.89984 -0.17841,1.2599 0,0.80912 -0.88624,0.18065 -0.17841,2.42901 -0.70822,0.27055 0.0886,0.89984 -0.97482,0.2697 -0.97483,0.27013 -0.17758,1.16955 -0.70821,0.4495 -0.35683,1.08006 -0.44249,2.60923 c 0,0 0.79888,1.5296 1.24139,0.80955 0.44374,-0.71921 1.15237,-0.80955 1.15237,-0.80955 l 0.26617,-0.63014 2.39376,0.0899 c 0.17758,-0.99061 1.32997,-0.62928 1.32997,-0.1798 0,0.44993 0.88704,0.0895 0.88704,0.0895 l 0.62006,-0.98934 0.9744,0 0.0886,-1.07925 0.44415,-0.27013 0,-1.62032 c 1.41899,-0.4495 1.24011,-1.79926 1.24011,-1.79926 l 0.35683,-0.44908 -0.178,-0.62928 c -0.71029,-0.27097 -0.35641,-0.90155 0.0878,-0.72133 0.44457,0.17979 -0.62048,-0.80998 -0.62048,-0.80998 -0.53148,0.45078 -0.97397,-0.53941 -0.97397,-0.53941 l -1.3312,0 z"
     style="fill:#ffffff"
     inkscape:connector-curvature="0" />
  <path
     id="path101"
     d="m 316.71693,234.9118 c -0.0882,1.07926 -1.41894,1.43968 -1.41894,1.43968 l -0.97483,-0.2697 -0.53148,-0.44992 -0.089,-1.26032 0.79723,-0.0891 0.17758,0.54027 2.03947,0.089 z"
     style="fill:#ffffff"
     inkscape:connector-curvature="0" />
  <path
     id="path103"
     d="m 321.50626,229.15713 c 0.19179,0.78454 0.17591,-1.26117 0.53065,-1.16997 0.35432,0.0895 0.0894,-1.25904 0.0894,-1.25904 l -1.59611,1.16784 c 0.79765,0.0912 0.88581,0.90154 0.97605,1.26117 z"
     style="fill:#ffffff"
     inkscape:connector-curvature="0" />
  <path
     id="path105"
     d="m 326.20493,224.47446 c 0.35432,0.8104 0.26658,1.98038 1.59446,2.88022 0.44917,0.3032 -0.26574,0.89984 -0.70992,0.62933 -0.44249,-0.2697 -1.68262,-2.25008 -1.68262,-2.25008 l 0,-1.16955 c 0.26574,-0.7192 0.64427,-0.43847 0.79808,-0.0899 z"
     style="fill:#ffffff"
     inkscape:connector-curvature="0" />
  <polygon
     id="polygon107"
     transform="matrix(0.41783499,0,0,0.424059,105.62343,109.5997)"
     points="527.92,335.4 528.55,336.03 529.18,337.09 530.67,334.76 529.4,334.33 "
     style="fill:#ffffff" />
  <line
     id="line109"
     y2="251.4718"
     x2="323.98627"
     y1="250.38913"
     x1="323.98627"
     style="fill:#ffffff" />
  <polygon
     id="polygon111"
     transform="matrix(0.41783499,0,0,0.424059,105.62343,109.5997)"
     points="553.29,328.93 554.99,327.87 554.31,326.8 552.62,327.85 "
     style="fill:#ffffff" />
  <path
     id="path113"
     d="m 362.46629,267.84516 0.79889,0.35876 0.0877,1.5296 c 1.06464,1.07968 4.52219,0.18022 4.52219,-0.0899 0,-0.27055 -0.17841,-3.32885 -0.17841,-3.32885 l -0.44416,-0.45035 -0.0878,-2.25088 c 0.35433,-1.16955 -1.68512,-2.87937 -1.86186,-2.51766 -0.17758,0.35875 -1.32998,0.0882 -1.32998,0.44908 0,0.35876 -0.70821,2.15888 -0.35432,2.78944 0.35432,0.63014 -0.26657,0.63014 -0.35432,1.25947 -0.0882,0.62971 -0.97563,1.71109 -0.79808,2.25131 z"
     style="fill:#ffffff"
     inkscape:connector-curvature="0" />
  <path
     id="path115"
     d="m 360.51429,264.24516 c -0.16796,0.68187 -0.79637,1.07968 -1.15072,0.80912 -0.35682,-0.27055 0.44082,0.44908 0.61963,0.81077 0.17674,0.35876 0.70821,0.35876 0.88661,0 0.17591,-0.36214 0.0882,-1.16954 0.26658,-1.5296 0.17591,-0.36045 -0.53274,-0.45035 -0.62213,-0.0903 z"
     style="fill:#ffffff"
     inkscape:connector-curvature="0" />
  <rect
     id="rect117"
     height="1.7102414"
     width="0.61962718"
     y="247.73848"
     x="356.39163"
     style="fill:#ffffff" />
  <path
     id="path119"
     d="m 365.5703,230.4158 c -0.38692,-0.52414 1.77285,-1.43968 2.1272,-0.35961 0.35432,1.0784 0,0.89984 -0.35432,0.80998 -0.35558,-0.0908 -1.24054,0.26885 -1.77286,-0.45036 z"
     style="fill:#ffffff"
     inkscape:connector-curvature="0" />
  <polygon
     id="polygon123"
     transform="matrix(0.41783499,0,0,0.424059,105.62343,109.5997)"
     points="626.69,256.48 626.47,257.73 628.8,258.15 629.03,256.9 "
     style="fill:#ffffff" />
  <polygon
     id="polygon125"
     transform="matrix(0.41783499,0,0,0.424059,105.62343,109.5997)"
     points="620.74,260.13 620.9,260.52 622.08,260.05 621.65,258.99 621.38,258.32 620.75,258.67 619.17,259.55 617.79,258.69 617.12,259.76 618.82,260.82 619.14,261.02 619.46,260.84 "
     style="fill:#ffffff" />
  <path
     id="path127"
     d="m 368.31697,198.02111 -1.33078,0 c 0,0 0.44374,0.1798 -0.79637,-0.99019 -1.24304,-1.16955 -2.03947,0.27013 -2.03947,0.27013 l -1.41856,0.17979 0,1.43969 -0.7103,0.2697 0.0898,0.90027 0.97483,-0.0895 c 0,0 0,1.07925 0.26615,0.6297 0.26658,-0.45035 2.4832,0.0891 2.30518,1.16955 -0.0723,0.44357 2.21744,1.61862 1.95125,3.0583 1.15238,0.18065 0.88662,1.35061 0.88662,1.35061 l 1.50629,0.1798 0.44415,-0.89984 0.44249,0.0903 0,-0.54026 -0.97648,-0.2697 -0.17591,-2.87979 -0.62048,-0.44993 0.17674,-0.72005 -0.70864,-0.27013 0.35474,-1.16954 -0.62134,-1.25904 z"
     style="fill:#ffffff"
     inkscape:connector-curvature="0" />
  <path
     id="path129"
     d="m 372.21564,207.19978 -0.70864,-0.0891 -1.59819,0.26971 -0.88454,1.70938 c 0,0 0.44248,0.27013 0.79638,0.89984 0.35432,0.63057 0.53232,4.31862 -0.53149,4.94924 -1.06298,0.63013 0.0894,0.26885 0.0894,0.26885 l -0.17841,1.97995 c 0.26657,0.89984 0.70864,0.45078 0.97482,0 0.26825,-0.44866 0.5344,-0.53899 0.88875,-0.98891 0.35432,-0.45077 0.88582,-1.25989 0.97483,-1.89046 0.0877,-0.62933 0.53148,-1.61861 0.26533,-1.88874 -0.26533,-0.27013 0.26657,-1.52918 0.26657,-1.52918 0,0 0.35432,-0.72091 0,-1.44011 -0.35432,-0.72048 0.0882,-1.53002 0.35432,-1.89045 l -0.70906,-0.36003 z"
     style="fill:#ffffff"
     inkscape:connector-curvature="0" />
  <rect
     id="rect133"
     transform="matrix(0.12487038,-0.99217306,0.99170171,0.12856021,0,0)"
     height="0.53325814"
     width="0.72581172"
     y="396.70026"
     x="-161.13194"
     style="fill:#ffffff" />
  <rect
     id="rect135"
     transform="matrix(-0.89144962,-0.45311982,0.44253147,-0.89675297,0,0)"
     height="0.60165185"
     width="0.5322246"
     y="-21.069033"
     x="-429.16504"
     style="fill:#ffffff" />
  <path
     id="path137"
     d="m 372.4823,206.21311 -0.35599,-0.8104 c 0,0 0,-0.71877 0.17758,-1.08011 0.17841,-0.3596 -0.35432,-0.71877 -0.61963,-0.80912 -0.26616,-0.0903 -0.17675,-0.80954 -0.26616,-1.16997 -0.0882,-0.35961 -0.70821,-0.62933 -0.70821,-0.62933 0,0 -0.17884,-1.34976 -0.17884,-1.61947 0,-0.27012 -0.79765,-0.62971 -0.53148,-0.90027 0.26658,-0.2697 0.44415,-0.62928 0.71029,-0.80997 0.26616,-0.17981 -0.26657,-1.43968 0.17591,-1.16998 0.44416,0.27055 0.44416,0.72006 0.62176,1.08011 0.17675,0.3596 -0.0894,1.61989 0.35475,1.89003 0.44207,0.26927 -0.0898,1.16869 0.62005,1.16869 0.70864,0 0.26658,1.71024 0.26658,1.71024 0,0 -0.17842,1.25904 0.26406,1.34977 0.44417,0.0899 0.17842,2.24922 0.17842,2.24922 l -0.70907,-0.4495 z"
     style="fill:#ffffff"
     inkscape:connector-curvature="0" />
  <path
     id="path139"
     d="m 366.7223,191.63177 c 0.2649,0.3596 0.79723,0.62928 0.79723,0.99019 0,0.36045 -0.17675,0.62933 0.35599,0.71962 0.53065,0.0895 0.88624,-0.0903 1.06299,0.3596 0.17758,0.44951 0.17758,1.16955 0.0894,1.5296 -0.0894,0.36045 0.0882,0.89985 0.53064,0.89985 0.44416,0 0.53232,0.0903 0.53232,0.36045 0,0.26927 0.53232,-0.99062 0.53232,-0.99062 -0.44457,-0.3596 -0.79888,-1.16997 -0.79888,-1.16997 0,0 -0.44248,-1.25947 -0.44248,-1.43925 0,-0.17981 -0.62006,-0.36046 -0.88582,-0.44993 -0.26657,-0.0903 -0.71072,-0.89941 -0.71072,-0.89941 l -1.06299,0.0899 z"
     style="fill:#ffffff"
     inkscape:connector-curvature="0" />
  <path
     id="path141"
     d="m 367.60763,190.82643 c -0.26657,-0.36087 -0.53273,-0.63056 -0.88704,-0.80954 -0.35348,-0.18065 -0.61963,-0.36046 -0.97563,-0.36046 -0.35432,0 -0.70821,-0.36044 -0.53232,-0.80954 0.17842,-0.45036 -0.26657,-0.63014 -0.26657,-0.99062 0,-0.3596 0.26657,-0.3596 0.71029,-0.0895 0.44416,0.27013 0.35433,0.35961 0.71072,0.81041 0.35348,0.44949 0.53023,0.89941 0.88416,0.80912 0.35641,-0.0903 0.62214,0.80954 0.97648,0.53984 0.35432,-0.26971 0.26658,0.6297 0.26658,0.6297 l -0.88661,0.27055 z"
     style="fill:#ffffff"
     inkscape:connector-curvature="0" />
  <path
     id="path143"
     d="m 357.23429,200.99178 c 0.48887,0.49699 -2.65909,0.35917 -2.65909,0 0,-0.3596 0.26657,-1.61862 1.06298,-1.35062 0.79808,0.27098 0.88582,-1.61861 0.88582,-1.61861 0,0 -0.70822,0.0891 -0.0878,-0.27013 0.62048,-0.3596 0,-0.89984 -0.26658,-1.16954 -0.26532,-0.27055 -0.53148,-0.72006 -0.53148,-0.72006 l 1.24224,0 c 0.53232,-0.36045 0.70821,-2.06939 0.70821,-2.06939 1.06299,0.3596 1.59531,-0.36044 1.59531,-0.36044 0,0 0.18009,0.53984 0.53397,0.99061 0.35433,0.44908 -0.88832,0.62928 -0.44457,0.89984 0.44457,0.27013 0.62048,1.07925 0.44457,1.34854 -0.17841,0.27012 -1.15488,0.0903 -1.15488,-0.26929 0,-0.36044 -0.35432,0.44993 0,0.89985 0.35432,0.44992 -0.44248,1.07925 -0.62048,1.07925 -0.17758,0 -1.32826,0.18065 -0.35432,0.72005 0.97483,0.53942 2.0407,0.27098 2.0407,0.27098 0,0 0.79723,-0.0912 1.06299,0.3596 0.26658,0.4495 -0.0882,0.53984 -0.53149,0.53984 -0.44248,0 -2.57173,-0.18065 -2.57173,-0.18065 0,0 -0.62006,0.63013 -0.35432,0.90027 z"
     style="fill:#ffffff"
     inkscape:connector-curvature="0" />
  <path
     id="path145"
     d="m 351.55962,201.80244 c 0.44458,-0.0899 1.50629,-0.18065 1.68469,0.0895 0.17841,0.2697 -0.62048,0.62933 -0.62048,0.62933 l -1.06421,0.18065 c -0.35432,-0.45035 -0.44249,-0.80955 0,-0.89941 z"
     style="fill:#ffffff"
     inkscape:connector-curvature="0" />
  <path
     id="path147"
     d="m 362.99963,194.2451 c 0.70864,-0.3596 2.21536,-0.3596 2.1272,-0.89984 -0.0877,-0.53984 0.88624,-0.71962 0.88624,-0.71962 l 0.26616,1.07925 0.79808,0.53984 0.089,0.98976 c 0,0 0.26532,-0.1798 -0.70864,0.0903 -0.97648,0.27012 -0.35432,0.7192 -0.35432,0.7192 l -2.12886,0.0899 -0.26616,-0.89984 -0.70864,-0.98891 z"
     style="fill:#ffffff"
     inkscape:connector-curvature="0" />
  <path
     id="path149"
     d="m 359.53829,189.38643 c 0.53899,0 -0.17591,2.06939 1.24054,1.8896 1.41898,-0.18064 0.0903,0.62971 1.15322,0.71921 1.06422,0.0912 0.79808,-0.80955 1.15238,-1.43883 0.35599,-0.62971 0.17841,-0.99019 -0.44249,-1.16998 -0.62213,-0.1798 -0.62213,-0.1798 -0.79808,-0.90069 -0.17674,-0.7192 -0.88661,-0.89984 -0.88661,-0.89984 l -0.26658,-1.07883 -1.15238,0.7192 -1.15237,1.5296 c 0,1.17083 0.62005,0.63056 1.15237,0.63056 z"
     style="fill:#ffffff"
     inkscape:connector-curvature="0" />
  <rect
     id="rect153"
     transform="matrix(0.44249137,-0.89677276,0.89146989,0.45307994,0,0)"
     height="0.53477383"
     width="0.6021319"
     y="411.72382"
     x="-11.648265"
     style="fill:#ffffff" />
  <rect
     id="rect155"
     height="0.62970716"
     width="0.53232038"
     y="196.1331"
     x="360.95697"
     style="fill:#ffffff" />
  <rect
     id="rect157"
     transform="matrix(0.10977955,0.99395596,-0.99359043,0.11304004,0,0)"
     height="0.53201085"
     width="0.81408393"
     y="-339.00647"
     x="223.81824"
     style="fill:#ffffff" />
  <rect
     id="rect159"
     height="0.45077369"
     width="0.53232038"
     y="192.5331"
     x="359.89563"
     style="fill:#ffffff" />
  <rect
     id="rect161"
     transform="matrix(-0.09667065,-0.99531642,0.99503303,-0.0995453,0,0)"
     height="0.89098465"
     width="0.54021573"
     y="338.21036"
     x="-227.25548"
     style="fill:#ffffff" />
  <rect
     id="rect163"
     transform="matrix(-0.91662879,-0.39973948,0.38987846,-0.92086632,0,0)"
     height="0.68373656"
     width="0.53148377"
     y="-44.024857"
     x="-401.85223"
     style="fill:#ffffff" />
  <rect
     id="rect165"
     transform="matrix(-0.09686574,-0.99529746,0.9950129,-0.09974629,0,0)"
     height="0.89226472"
     width="0.53893512"
     y="327.43713"
     x="-233.29732"
     style="fill:#ffffff" />
  <polygon
     id="polygon169"
     transform="matrix(0.41783499,0,0,0.424059,105.62343,109.5997)"
     points="544.22,211.7 539.56,211.91 539.62,213.18 544.28,212.97 "
     style="fill:#ffffff" />
  <rect
     id="rect171"
     transform="matrix(-0.21328022,-0.97699107,0.97563952,-0.21937989,0,0)"
     height="0.53309935"
     width="0.82799977"
     y="279.49374"
     x="-267.62738"
     style="fill:#ffffff" />
  <rect
     id="rect173"
     transform="matrix(-0.31191952,-0.95010853,0.94730237,-0.3203408,0,0)"
     height="0.28036219"
     width="0.53904122"
     y="250.36209"
     x="-295.66437"
     style="fill:#ffffff" />
  <path
     id="path175"
     d="m 333.82627,199.19444 -0.0882,0.62971 0.97397,0.0903 c 0,0 0.44249,0.36046 0.44249,0.62934 0,0.27012 0.62213,0.53984 0.97648,0.53984 0.35432,0 1.32912,-0.72006 1.32912,-0.72006 0,0 0.44416,-1.25989 0.0898,-1.16997 -0.35599,0.0895 -1.06464,0.62971 -1.15237,0.0895 -0.0898,-0.53984 -1.15238,-0.27013 -1.15238,-0.27013 l -1.41898,0.1815 z"
     style="fill:#ffffff"
     inkscape:connector-curvature="0" />
  <path
     id="path177"
     d="m 338.25828,198.20244 c 0,0.26928 -0.17591,0.62933 0.35432,0.72005 0.5344,0.089 1.50922,-0.3596 1.59696,0.17981 0.0898,0.53941 0.0898,0.90069 0.79808,1.17082 0.70821,0.26928 1.15323,0.3596 1.68469,0.3596 0.53065,0 1.68512,-0.18107 1.68512,-0.18107 0,0 1.25435,0.19634 1.5063,0.45078 0.97483,0.98934 1.59531,1.25904 1.86101,0.80955 0.26616,-0.45035 -0.0882,-1.43926 -0.17632,-1.79926 -0.0894,-0.36087 -1.33078,-2.07024 -1.77414,-1.71024 -0.44248,0.36046 -0.53106,0 -1.32954,0.26928 -0.79809,0.27013 -2.48278,0.0912 -2.57051,-0.26928 -0.0882,-0.36045 -1.32955,-0.53898 -1.32955,-0.89984 0,-0.36045 -0.88582,-0.80955 -0.79808,-0.27013 0.0882,0.53942 -0.62006,0.80955 -0.80016,0.63056 -0.17591,-0.18022 -0.70822,0.53942 -0.70822,0.53942 z"
     style="fill:#ffffff"
     inkscape:connector-curvature="0" />
  <path
     id="path179"
     d="m 358.65296,186.68243 0.62176,-1.97824 c -0.88582,-0.18065 -0.70987,-1.16955 -0.70987,-1.16955 -0.0882,-0.81035 -1.32912,-1.70981 -1.77285,-1.43968 -0.44249,0.26885 -0.26658,-1.89045 -0.26658,-1.89045 0,0 0.79888,-0.53899 1.15322,-0.26928 0.35474,0.26928 -3.01381,-4.49883 -3.72373,-4.04891 -0.70864,0.44992 -2.30353,-0.44993 -2.21536,-1.26032 0.0882,-0.80913 -3.19185,-3.50913 -3.19185,-3.50913 0,0 -1.06421,-0.71877 -1.24096,-0.17895 -0.17758,0.53942 -0.5319,0.89984 0,1.1687 0.53107,0.27055 0.44249,-0.44951 1.06256,0.1798 0.62048,0.62971 1.77451,1.44011 1.33078,1.97995 -0.44374,0.54069 -0.97606,0.72048 -0.97606,0.72048 l 0.62176,0.72005 0.97483,0 0.17758,1.52875 c 0,0 1.06299,0.54027 1.32955,1.16997 0.26616,0.62934 0.26616,0.98977 0,1.35019 -0.26658,0.3596 -0.79638,0.98934 -0.70864,1.61862 0.0882,0.6297 0.79808,0.89984 0.79808,0.89984 l 0.70821,0.0903 0.53274,0.27055 0,1.1704 c 0.70821,-0.18065 1.86059,0.80827 1.77285,1.43883 -0.0882,0.62971 0.17591,0.2697 1.06256,0.89984 0.8879,0.62971 0.62214,0.72006 1.24224,1.16998 0.62091,0.44865 1.15323,0.17895 1.41729,-0.63184 z"
     style="fill:#ffffff"
     inkscape:connector-curvature="0" />
  <path
     id="path181"
     d="m 344.02361,174.44775 c -0.0882,-0.36045 -0.26657,-1.62074 0.26616,-1.53088 0.53149,0.0912 0.17758,0 0.79808,0.27056 0.62048,0.27055 0.70865,-0.44951 0.70865,-0.44951 l 0.97605,0 1.24053,0.98891 -0.17758,0.81035 -0.88661,0.0891 c -0.44249,-0.71878 -1.32955,-0.44909 -1.15237,0.18107 0.17758,0.62933 -0.44249,1.79931 -0.79638,1.88875 -0.35474,0.0903 -1.50923,0.0903 -1.41899,-0.44909 0.0882,-0.53984 0.44249,-1.79925 0.44249,-1.79925 z"
     style="fill:#ffffff"
     inkscape:connector-curvature="0" />
  <path
     id="path183"
     d="m 343.31428,172.01575 0,-0.7192 c 0,0 -0.0903,-0.71962 -0.53232,-0.71962 -0.44206,0 -1.24053,-0.53942 -1.06464,-0.89985 0.17884,-0.36044 -1.50629,-0.72005 -1.50629,-0.72005 0,0 -1.5063,-1.43968 -0.97483,-1.25904 0.53232,0.1798 0.26658,-0.63056 0.26658,-0.63056 0,0 -1.06464,0.1798 -1.33078,0.0903 -0.26657,-0.0903 -0.17841,-0.89984 -0.17841,-0.89984 0,0 -1.06213,-0.27013 -1.06213,0 0,0.27012 0.35432,0.27012 0.53023,0.80912 0.17841,0.53941 0.0898,1.44011 0.88875,1.61947 0.79808,0.18065 0.97397,0.3596 1.06421,0.72005 0.0882,0.36045 1.06299,0.44993 1.06299,0.44993 l 0.70986,0.3596 2.12678,1.79968 z"
     style="fill:#ffffff"
     inkscape:connector-curvature="0" />
  <polygon
     id="polygon185"
     transform="matrix(0.41783499,0,0,0.424059,105.62343,109.5997)"
     points="545.95,125.55 545.32,123.85 543.62,123.43 543.62,125.34 "
     style="fill:#ffffff" />
  <path
     id="path187"
     d="m 333.47427,159.06108 c -0.92677,-0.70352 1.24011,0.54026 1.24011,0.54026 0.70864,0 1.15237,0.53984 1.15237,0.8104 0,0.26971 0.9752,0.17981 0.9752,0.17981 l 0.0903,-0.63056 -0.71073,-0.89984 -0.61962,-0.44866 c 0,0 -0.97483,-0.0903 -0.97483,-0.36045 -4.2e-4,-0.26928 -0.79851,1.07968 -1.1528,0.80912 z"
     style="fill:#ffffff"
     inkscape:connector-curvature="0" />
  <path
     id="path189"
     d="m 349.78362,159.59974 c -0.25906,0.78747 -0.35432,1.89003 -0.79808,1.89003 -0.44249,0 -0.26616,1.17083 -0.26616,1.17083 0,0 1.15445,0 1.5088,0.0891 0.35348,0.0891 0.35348,0.9889 0.35348,0.9889 1.33078,-0.089 1.8631,1.71024 1.6847,2.16016 -0.17758,0.44951 0.53232,0.44951 0.53232,0.44951 0,0 0,1.44011 -0.17842,1.79931 -0.17591,0.36045 1.15323,0.63056 1.50752,1.16997 0.35432,0.54027 -0.17841,2.33952 -0.44332,2.42944 -0.26575,0.0903 0.70821,0.35961 0.62048,0.80955 -0.0898,0.45077 0.26616,0 0.35432,0.72048 0.0882,0.7192 0.26658,2.2488 0.26658,2.2488 l 1.24011,0.0908 c 0.17841,-1.16955 2.46395,-1.21451 2.83749,-1.08011 1.50715,0.53984 2.66118,2.87936 2.66118,3.41878 0,0.53941 -0.97648,0.63056 -0.97648,0.63056 l 0.17841,2.60837 c 1.50629,0.45036 2.74768,2.61051 2.57093,2.97014 -0.17757,0.3596 1.06257,0.27055 1.06257,0.27055 0.17841,-1.62075 1.68512,-1.08048 1.77285,-0.54027 0.0907,0.54027 0.35474,1.70982 0.35474,1.70982 l 0.44374,0.80869 0.62048,0.63013 0.97483,-0.0899 0.26658,0.54026 1.15237,0.18065 c 0,0 0.97648,1.0784 1.06421,1.34934 0.0898,0.26928 1.41899,0.1798 1.77286,0.26928 0.35432,0.0903 0.88704,0.36045 0.97483,0.80997 0.0898,0.45035 0.62213,1.16998 0.62213,1.16998 0,0 1.06299,0.27055 1.15237,0.6297 0.0882,0.35918 0.53232,1.16955 0.53232,1.16955 l 0.88454,0.72005 0.0894,0.81035 0.97482,0.0899 0.26658,1.0784 1.59446,-0.0891 0.88832,-0.62971 c 1.15237,-0.62928 1.95045,-1.43968 2.03946,-1.80011 0.0877,-0.3596 0.26533,-1.70853 1.15238,-1.43883 0.88581,0.27013 0.26616,-1.97994 0.26616,-1.97994 0,0 -1.24096,-0.89985 -1.15323,-1.35062 0.089,-0.44908 -1.24011,-1.34853 -1.15237,-1.70896 0.0882,-0.36045 -1.15238,-1.07925 -1.06422,-1.43926 0.0877,-0.36044 -0.62048,-1.35061 -0.62048,-1.35061 l -1.33077,-1.25904 -0.17758,-0.8104 -1.06299,-0.089 -2.1272,-2.60966 0.0882,-0.72048 -0.62048,-0.0895 0,-0.98933 -0.61963,-0.36045 -0.97648,-0.0899 -1.9496,-2.15888 -0.17758,-0.99019 -0.97483,0 0.17675,-1.89002 c 0.62133,-0.80998 0.26574,-2.33953 0.26574,-2.33953 0,0 -1.24224,0.62971 -1.86102,0.35961 -0.62176,-0.26886 0.26491,-0.89984 0.26491,-0.89984 l 0,-0.7192 -0.53107,-0.53984 c 0,0 -1.50837,0.18065 -1.5961,-0.089 -0.089,-0.27013 -0.35432,-1.44011 -0.35432,-1.44011 l -0.089,-1.53003 -0.61963,-0.26885 -0.0902,-0.5407 -0.97397,0.0895 0,-1.07925 -0.53274,-0.1798 -0.53148,-0.27013 -0.0886,-1.08011 -1.95046,-0.0891 -0.62048,-0.89984 -0.70864,-1.08005 -2.21659,-0.1798 -0.53232,-0.53899 -0.88624,-0.18065 -0.62048,-0.27012 -0.26616,0.45077 -1.68512,0.0891 -0.0877,0.53984 c -0.88624,0.44993 -4.43237,0.0895 -4.52261,0.35917 z"
     style="fill:#ffffff"
     inkscape:connector-curvature="0" />
  <path
     id="path191"
     d="m 359.09563,157.26374 c -0.1404,-0.71029 1.7745,-1.34976 2.21701,-0.8104 0.44416,0.53984 1.6847,0.63141 1.8623,3.33056 0.0627,0.96646 -1.59611,-0.98976 -1.59611,-0.98976 l -1.33078,-0.44992 c -0.70864,-0.18065 -1.06421,-0.62934 -1.15237,-1.08054 z"
     style="fill:#ffffff"
     inkscape:connector-curvature="0" />
  <rect
     id="rect193"
     transform="matrix(-0.91112044,-0.4121402,0.40209004,-0.91560013,0,0)"
     height="0.88458723"
     width="0.53197348"
     y="-7.0076303"
     x="-368.67746"
     style="fill:#ffffff" />
  <path
     id="path195"
     d="m 328.50893,149.52507 -1.15488,-1.16998 0,-0.98976 -0.35432,-0.36087 -0.35432,-1.25904 -1.15238,-0.35961 -1.15237,0.44908 -1.24139,0.80997 -1.32912,0.18108 -0.71029,0.80912 2.83749,0.26885 0.53107,0.90112 2.04112,0.1798 1.32827,1.34934 c 1.15488,0.36045 1.41979,-0.1798 0.71115,-0.80912 z"
     style="fill:#ffffff"
     inkscape:connector-curvature="0" />
  <path
     id="path197"
     d="m 328.33293,145.1144 c -0.19512,-0.79088 -1.33077,0.98933 -0.1759,1.34848 1.15237,0.36172 2.3031,0 2.3031,0 l 0.26657,-0.53941 4.43153,0.0903 c 0.35683,-0.36045 0.53232,-0.89984 0.53232,-0.89984 0,0 1.06464,-0.36045 1.50672,-0.18065 0.44415,0.18065 0.0902,-1.25904 -0.35432,-1.07925 -0.44249,0.1798 -1.3287,0.0899 -1.3287,0.0899 l -1.59653,0 c -0.0882,-0.62928 -1.50672,-0.36044 -1.59531,0 -0.0898,0.35961 -0.61963,0.44951 -0.61963,0.44951 l -2.03947,0.18065 c -0.17799,0.54027 -1.24053,0.89984 -1.3304,0.54027 z"
     style="fill:#ffffff"
     inkscape:connector-curvature="0" />
  <path
     id="path199"
     d="m 319.55426,160.29841 c 1.36342,0.43254 1.86102,0.11237 1.95126,-0.24723 0.0882,-0.36044 0.17591,-0.45077 0.70864,-0.53984 0.53148,-0.0903 -0.089,-1.16997 -0.62048,-1.0801 -0.53274,0.0899 -1.06464,-0.1798 -1.15238,-0.62971 -0.0907,-0.4495 -0.97648,-1.61947 -1.06464,-0.7192 -0.0886,0.89984 -0.62048,0.89984 -0.53232,1.5296 0.0894,0.62848 0.35557,1.57285 0.70992,1.68651 z"
     style="fill:#ffffff"
     inkscape:connector-curvature="0" />
  <path
     id="path201"
     d="m 309.36225,161.31174 c -0.0639,-0.31846 1.77286,-0.3596 2.03947,-0.0907 0.26658,0.27055 0.0882,0.72005 0.88624,0.72005 0.7968,0 0.44291,0.54027 0.35433,0.8104 -0.0882,0.2697 -0.97398,0.1798 -1.06464,-0.089 -0.0878,-0.27055 -1.41856,-0.36173 -1.41856,-0.36173 0,0 -0.70864,-0.54026 -0.7968,-0.9889 z"
     style="fill:#ffffff"
     inkscape:connector-curvature="0" />
  <polygon
     id="polygon205"
     transform="matrix(0.41783499,0,0,0.424059,105.62343,109.5997)"
     points="557.59,79.105 558,79.51 558.44,79.154 560.57,77.455 559.77,76.462 558.09,77.802 557.01,76.721 556.11,77.62 "
     style="fill:#ffffff" />
  <polygon
     id="polygon207"
     transform="matrix(0.41783499,0,0,0.424059,105.62343,109.5997)"
     points="548.07,74.105 548.41,73.89 550.75,72.403 550.07,71.33 548.07,72.599 546.71,71.752 546.04,72.832 547.74,73.89 "
     style="fill:#ffffff" />
  <polygon
     id="polygon209"
     transform="matrix(0.41783499,0,0,0.424059,105.62343,109.5997)"
     points="540.49,117.45 541.81,119.52 542.88,118.84 541.4,116.51 541.23,116.25 540.92,116.22 538.8,116 538.67,117.27 "
     style="fill:#ffffff" />
  <path
     id="path211"
     d="m 302.44491,183.98376 0.0907,0.99019 1.32832,0 c 0.53232,0 -0.44248,-0.62971 -0.44248,-0.62971 0,0 -1.06422,0.0903 -0.97648,-0.36045 z"
     style="fill:#ffffff"
     inkscape:connector-curvature="0" />
  <rect
     id="rect213"
     transform="matrix(0.63290773,-0.77422723,0.76494491,0.64409571,0,0)"
     height="0.69573849"
     width="0.53701562"
     y="351.97034"
     x="55.138317"
     style="fill:#ffffff" />
  <rect
     id="rect215"
     transform="matrix(0.7024616,-0.71172164,0.70125272,0.71291277,0,0)"
     height="0.75770432"
     width="0.53626585"
     y="322.43536"
     x="88.081055"
     style="fill:#ffffff" />
  <polygon
     id="polygon219"
     transform="matrix(0.41783499,0,0,0.424059,105.62343,109.5997)"
     points="496.27,410.06 497.18,410.96 498.24,409.9 498.86,409.28 498.07,408.88 495.95,407.82 495.38,408.96 496.71,409.62 "
     style="fill:#ffffff" />
  <polygon
     id="polygon221"
     transform="matrix(0.41783499,0,0,0.424059,105.62343,109.5997)"
     points="479.59,394.69 481.08,395.75 481.82,394.72 481,394.13 481.64,393.6 480.83,392.62 479.55,393.68 478.92,394.21 "
     style="fill:#ffffff" />
  <path
     id="path223"
     d="m 372.79697,259.43982 c -0.11741,-0.4584 -0.63429,-0.64667 -0.69275,-0.66576 l -0.16922,0.51311 0,-0.003 c 0.0422,0.0161 0.10362,0.0483 0.16504,0.0886 l 0.10864,0.46646 c -0.0397,0.0598 -0.0832,0.11578 -0.11741,0.15606 l 0.39025,0.36511 c 0.28455,-0.31677 0.38984,-0.62378 0.31547,-0.92021 z"
     style="fill:#ffffff"
     inkscape:connector-curvature="0" />
  <polygon
     id="polygon225"
     transform="matrix(0.41783499,0,0,0.424059,105.62343,109.5997)"
     points="641.38,349.34 639.31,349.19 639.47,347.28 641.54,347.6 "
     style="fill:#ffffff" />
  <path
     id="path227"
     d="m 394.16232,250.72515 c 0.37897,-0.2396 0.86368,-0.67595 0.79808,0.33797 -0.0673,1.01179 -0.46588,0.67552 -0.79808,1.01179 -0.33218,0.33798 -0.5319,-1.01179 0,-1.34976 z"
     style="fill:#ffffff"
     inkscape:connector-curvature="0" />
  <path
     id="path231"
     d="m 398.67432,246.90648 c -0.008,-0.0178 -0.0121,-0.0802 -0.0159,-0.12552 -0.0117,-0.14842 -0.0309,-0.3507 -0.13621,-0.56315 l -0.47508,0.24129 c 0.0589,0.12043 0.0706,0.24765 0.0806,0.36978 0.0134,0.15775 0.0309,0.33798 0.18176,0.45205 0.0953,0.0725 0.2156,0.0933 0.35892,0.0657 l -0.10153,-0.52243 c 0.041,0.006 0.0948,0.0437 0.10738,0.0823 z"
     style="fill:#ffffff"
     inkscape:connector-curvature="0" />
  <path
     id="path233"
     d="m 397.49032,247.34915 c 0.13496,0.54704 0.33218,1.08602 0.34095,1.10848 l 0.49889,-0.18998 c -0.004,-0.005 -0.19721,-0.53262 -0.32465,-1.05083 l -0.51519,0.1323 z"
     style="fill:#ffffff"
     inkscape:connector-curvature="0" />
  <path
     id="path235"
     d="m 395.55432,249.47181 -0.52981,-0.053 c -0.0414,0.42449 0.0598,0.94907 0.47883,1.03429 l 0.10405,-0.52922 c 0.004,0 0.009,0.003 0.01,0.003 -0.043,-0.0382 -0.0823,-0.25529 -0.0631,-0.45502 z"
     style="fill:#ffffff"
     inkscape:connector-curvature="0" />
  <path
     id="path237"
     d="m 393.22365,238.73581 c -0.0276,-0.17302 -0.1312,-0.30745 -0.29081,-0.37827 -0.3936,-0.17301 -1.05712,0.11323 -1.38219,0.33374 l 0.29416,0.4495 c 0.33677,-0.22814 0.77883,-0.33797 0.87744,-0.28751 -0.009,-0.003 -0.0209,-0.0191 -0.0242,-0.0297 l 0.52563,-0.0878 z"
     style="fill:#ffffff"
     inkscape:connector-curvature="0" />
  <path
     id="path241"
     d="m 368.66897,209.98912 c -0.35433,0.36044 -1.15238,0.54026 -1.15238,0.54026 l -0.26657,0.98976 -0.44207,0.3596 c 0,0 0.0877,0.26971 0,0.89984 -0.089,0.62934 -0.88704,0.98977 -0.88704,0.98977 l -0.35433,0.44992 c 0,0 -2.13723,0.11577 -2.39376,0 -0.79808,-0.3596 -0.26532,-1.43968 0.26657,-1.34976 0.53107,0.0903 -0.0898,-1.53003 -0.0898,-1.53003 l 0.71029,-0.0895 c 0,0 0.0878,-1.62033 0.35433,-1.62033 0.26616,0 -0.0882,-0.53941 -0.44416,-0.80954 -0.35432,-0.26886 -0.79723,-1.1687 -1.15323,-1.07926 -0.35432,0.0895 -1.77285,0 -1.77285,0 l -0.26616,0.54027 -0.97563,0.17938 c 0,0 0.084,0.69589 -0.0865,0.90026 -0.53398,0.62934 -2.57174,1.9791 -1.6864,-0.27012 l 0.26532,-0.53899 0,-0.8104 -1.59403,-0.0891 c 0,0 -0.79808,-0.27055 -0.79808,-0.63056 0,-0.36003 -0.089,-0.80912 -0.089,-0.80912 l -1.86229,-2.06939 -2.21536,-0.2697 -0.17841,-0.45078 -1.32832,-0.1798 c -1.59697,-0.80912 -3.0159,-0.0899 -2.74934,1.25989 0.26574,1.35062 0.70821,1.89003 -0.17674,1.89003 -0.8879,0 -1.06464,-0.71963 -1.06464,-0.71963 0,0 -0.70822,-0.27055 -0.70822,0.0891 0,0.36045 -0.26657,1.08011 0,1.43969 0.26491,0.3596 -0.35599,0.89984 -0.62213,0.6297 -0.26407,-0.27012 -0.97397,-1.0784 -0.79637,-1.34848 0.17674,-0.27013 -1.24262,-1.98037 0.17674,-2.25008 1.41899,-0.27013 -0.0886,-1.08011 0.44416,-1.25904 l 0.70821,-0.36045 0.70864,0 0.44374,-0.36045 -1.15237,-0.17895 -0.70822,-0.0903 -1.33077,-0.0899 c -1.32912,0.89984 -1.59446,1.97995 -1.59446,1.97995 -0.71072,1.34934 -2.39376,-0.54027 -1.77285,-1.25989 0.61963,-0.72006 -1.95126,-0.0903 -2.39499,0.2697 -0.44416,0.3596 -1.77371,0.1798 -1.77371,0.1798 -0.26532,0.8104 -1.50629,-0.089 -1.15237,-0.62928 0.35474,-0.53984 0.35474,-0.89984 0.35474,-0.89984 l -0.44249,-0.0903 -0.53148,0.98976 c -1.24139,0 -1.59696,0.7192 -1.3312,1.16954 0.26574,0.44908 -0.35432,-0.0899 -0.53231,0.53984 -0.17591,0.62971 0.0898,0.62971 0.62213,0.89984 0.53232,0.27013 -0.26658,0.27013 0.0882,0.71921 0.35432,0.45077 1.41857,0 0.79846,0.63056 -0.62048,0.62933 -1.8631,0.36044 -1.8631,0.36044 -0.0882,0.80827 -1.77285,0.62934 -1.94874,0.35961 -0.17842,-0.27013 -1.50715,-1.89003 -1.50715,-1.89003 l -1.68678,-0.0899 c -0.17591,-1.25904 0.79888,-0.62971 1.15323,-1.61947 0.35641,-0.99019 0.53355,-2.6088 0.53355,-2.6088 0,0 -1.42022,-0.0899 -1.50838,0.3596 -0.0877,0.45035 -0.97482,0.72005 -0.97482,0.72005 0,0 -0.70993,0.26928 -0.44374,0.62971 0.26616,0.36045 -0.53232,0.53899 -0.53232,0.53899 0,0 0.1383,0.58138 -0.0882,0.80997 -0.70822,0.72091 -2.48278,0.0895 -2.74769,-0.1798 l -1.06464,-0.44993 -1.06421,-0.71963 -1.24054,0.53899 -0.35432,0.36045 -1.33077,0 -0.0877,1.0784 2.39376,0.2697 0.17758,2.22715 -0.97648,-0.33628 -0.62048,0 -0.26533,-0.54026 -0.53232,-0.0903 0,1.9791 0.53232,0.45077 0.44416,0.44866 0.88661,0.0903 0.17758,1.07925 2.21536,0.0912 0.26616,0.44908 1.33078,0.0903 2.57093,2.60838 -0.17758,0.8104 -0.44415,0.27012 c 0.17841,0.62971 -1.15115,0.27013 -1.15115,0.27013 l 0,0.53899 0.61883,0.0899 0.62213,0.3596 0.88582,-1.52917 c 0.97482,-0.62971 1.41728,0.27013 1.50752,0.80997 0.0877,0.53984 -0.44457,0.4495 -0.44457,0.4495 l 0,1.26075 0.53231,0.17896 c 0.88789,1.08005 -0.35432,1.71024 -0.35432,1.71024 l -0.26658,0.89941 c -0.26616,0.80997 -1.24096,0.62933 -1.24096,0.62933 l -0.35348,0.54027 -1.0655,0.27012 2.10507,0.26971 c 0.20014,-0.72006 0.73077,-0.89984 0.99696,-0.53984 0.26658,0.36044 0.26658,0.99018 0.26658,0.99018 l 0.53397,0.0899 -0.0903,0.98933 0.53232,0.18065 0,2.87894 0.62048,0.71963 c 1.06422,-0.44866 1.06422,0.27054 0.53149,0.6297 -0.53149,0.35918 -0.17758,1.97995 -0.17758,1.97995 l -0.44332,0.44908 0,0.72048 -0.53148,0.3596 0,0.98934 c -0.88704,-0.44951 -1.95126,-0.27055 -2.21787,0 -0.79637,-0.54027 -2.48107,-0.3596 -2.48107,0.0908 0.53107,0.71963 -0.61963,0.89984 -0.61963,0.89984 l -0.62213,0.71963 c 0.44416,0.90027 -0.44206,0.98933 -0.44206,0.98933 l 0,1.71024 -1.06464,0.98976 0.0898,2.33953 c 0,0.6297 1.32912,0.7192 1.59403,0.3596 0.26657,-0.3596 1.3312,0.72048 1.3312,0.72048 l 0.79637,0 0.17841,-1.62032 -0.53273,-0.27013 0,-2.60965 0.88704,-0.99019 c 1.06421,-0.35961 0.70992,2.3408 0.70992,2.61051 0.0882,0.98933 0.53023,0.89984 0.97483,0.7192 0.88624,-0.35961 0.17591,0.99104 -0.53232,0.89984 -0.70865,-0.0891 -0.26658,0.89984 -0.26658,0.89984 l 0.44458,0.18065 -0.79889,0.62971 -0.70741,0.8104 -0.88875,-0.27056 -1.06256,-0.089 -0.35473,-0.63141 -0.62176,-0.0895 -0.0882,1.25904 -0.44249,0.53984 -1.06421,1.08134 c 1.41898,0 -0.17842,0.98763 -0.53232,0.98763 0.79765,0.27012 -0.0882,1.0809 -2.12721,0.45162 l 0,0.62891 -0.71029,0.0903 0.62213,0.71877 0.70822,0.0903 -0.26616,1.5296 c 0,1.16955 -2.92523,0.35876 -3.19184,0.0899 l -0.0882,1.6199 -0.53232,0.0886 0.0882,1.08091 -0.0882,1.53002 0.97483,-0.18022 0,0.63013 2.39504,0.0903 3.45755,-3.69019 2.03862,-0.44908 c 0.17674,-0.90112 1.06256,0.18023 1.06256,0.18023 0.88704,-0.092 1.06464,0.53898 1.06464,0.53898 l 1.15323,0.18023 c 0.97397,0.27055 0.38524,0.36511 0.44248,0.7209 0.0878,0.53899 0.53149,0.35876 0.53149,0.35876 l 0.17841,-1.16955 0.53232,0.0899 -0.53232,-0.63014 -0.97648,-0.45078 -1.06299,-0.44907 c -0.70992,-0.98934 0.17717,-0.80912 0.88704,-0.71878 l 1.15238,0 c 0,0 1.33077,1.79846 1.33077,2.24881 0,0.45077 0.62048,0.54069 0.62048,0.54069 l 0.79638,-0.0903 0.26657,0.62891 0.79766,0 0.26657,0.53899 1.59611,0 0.0886,-0.80912 -1.5088,-0.26843 -0.0877,-0.90112 -1.06299,-0.27013 c -0.35599,-1.52832 0.2649,-1.97909 0.70821,-1.25819 l 0.5319,0.0882 -0.17757,-1.34976 0.62005,-0.18023 -0.17674,-1.89003 -0.53149,-0.17853 0,-0.63056 2.21537,0.0916 c -0.17591,-1.17126 0.0894,-1.71067 0.0894,-1.71067 l 0.62048,0 0.0882,0.4512 2.71259,0.25571 1.91787,-2.2 c -0.0965,-0.16793 0.19262,-0.27055 -0.018,-0.4864 -0.26657,-0.2697 -0.62213,0 -1.06714,-0.2697 -0.44207,-0.26843 0,-1.79931 -0.0877,-2.15888 -0.0882,-0.35961 1.5088,-0.90112 1.24261,-0.0899 -0.26615,0.8104 0,1.16998 0,1.16998 1.15238,-1.08011 2.12763,0.0891 2.03947,0.3596 -0.0907,0.2697 0.61963,0.53984 1.06213,0.2697 0.44416,-0.2697 0.97606,0.8104 0.79851,1.34891 -0.17842,0.53984 -1.77243,0.45077 -1.86059,-0.0895 -0.0907,-0.54027 -0.35683,-0.3596 -0.53232,-0.0895 -0.17841,0.27013 -0.97483,0.44909 -1.41899,0.17896 -0.0898,-0.0547 -0.13287,-0.10008 -0.15794,-0.14334 l -1.91787,2.20001 0.12452,0.0127 c 1.06298,0.63056 0.53232,1.44011 0.17841,1.61989 -0.35599,0.18023 -0.97648,0.18023 -0.97648,0.18023 l -0.17591,0.36045 -2.3056,0.17895 -0.17842,0.9007 c -1.15237,-0.18192 -1.59445,1.07925 -1.32869,1.7081 0.26658,0.62891 0,1.16955 0,1.16955 l 0.9752,0.45078 1.24011,-0.35876 c 0.17841,-0.90112 0.97483,-1.08133 1.68512,-1.61989 0.70821,-0.54027 1.86229,0.98763 1.50629,1.70853 -0.35432,0.71878 -0.35432,0.98934 -0.35432,0.98934 l 0.0877,0.81034 -0.88582,0.35918 -0.70864,0.36046 -0.0903,0.45034 -2.39291,0 -0.44249,0.44909 -1.15322,0.092 -0.35599,0.53899 -0.79638,0.0903 c 0,0 -1.33077,0.63013 -0.79808,1.34976 0.53191,0.72048 -2.21579,0.63014 -2.83792,-0.36045 -0.17758,0.89899 -1.15237,0.0899 -1.15237,0.0899 l -0.97483,-0.27055 -0.0882,-1.34811 c -0.17758,-0.90069 -1.8623,-0.90069 -1.77286,-0.27012 0.0882,0.63013 -3.19307,0.27012 -3.19307,0.27012 l -1.06298,0.51651 -0.97648,0.56315 -0.0877,0.44908 -1.59696,0.18023 -0.70821,0.36044 -0.26575,-0.54026 -0.70864,0 -0.70992,0.99061 c -1.86144,0.0903 -3.63429,1.16998 -3.45755,1.6199 0.17758,0.44907 -0.70821,0.90112 -0.70821,0.90112 l -0.79888,0.26673 -0.53065,0.81082 -1.06422,0.36045 -0.17841,1.89046 -0.53065,0.35875 0,0.81077 -0.62176,0.17853 0,0.45078 -0.88624,0.0899 0.53064,1.35019 0.71158,0.36045 c 1.24096,0.17852 0.70821,1.70981 0.70821,1.70981 l 0.70864,0.0886 0.35599,0.98933 0.70822,1.43969 c 0.26657,1.08133 1.06464,0.81082 1.41898,0.7209 0.35432,-0.0886 0.70822,1.07926 0.70822,1.07926 l 3.54571,0.0903 c 0,0 -0.17591,0.36045 0.44457,0.54027 0.61963,0.17853 4.69814,0.36045 4.87654,0.0903 -0.17841,-0.81077 2.21494,-0.99104 3.19142,-0.27054 0.97397,0.71877 2.30475,0.27054 2.30475,0.27054 l 1.32954,1.61782 0.88832,1.98037 1.5063,0.44908 1.06299,0.27055 0.35599,1.5296 0.79637,0.0903 0.26659,0.99061 c 0.97605,0.7192 -0.26659,2.24923 -0.26659,2.24923 l 0,1.97867 0.70993,0.36045 -0.0894,0.7209 1.15403,1.16785 1.32912,0.0916 3.36982,3.59856 2.65867,0.80912 0.44248,1.44011 0.71072,-0.0903 0.53148,-0.44908 2.1272,-0.0899 1.06464,-0.99104 1.15238,-0.17853 9.84107,-8.36854 -0.88789,-0.54027 0,-1.97866 c 1.5961,-1.16955 1.68469,-3.24022 0.17758,-3.42006 -1.14321,-0.13654 -0.61963,-1.34976 0.44457,-1.5296 l 0.61962,-0.26886 0,-0.81077 2.03904,-1.88832 0,-1.44011 -4.43152,-3.69019 c -1.95125,-0.71877 0,-5.03867 1.32832,-4.94838 1.33078,0.0886 -0.0877,-6.65813 -0.0877,-6.65813 l -0.7103,-0.35918 0.17842,-2.16059 -0.97483,0 -1.59653,2.07067 -0.44248,1.4384 c -0.17758,1.89174 -5.67467,1.5296 -5.94134,1.25947 -0.26616,-0.27013 -2.1272,-1.07925 -2.1272,-1.07925 0,0 -1.41856,-1.16955 -1.6847,-0.80912 -0.26616,0.36044 -1.50629,-0.45078 -1.50629,-0.18023 0,0.27013 -1.15237,-0.6289 -1.15237,-0.6289 l -1.77286,-0.63057 1.33077,-0.27055 -0.26657,-1.07925 2.30309,1.16955 c 0.26658,0.35876 1.41899,0.27055 1.41899,0.27055 l 0.35432,0.45035 c 0,0 0.7103,-0.0916 1.15488,0.44908 0.44249,0.54027 2.74683,0.0903 2.74683,0.0903 l 0.62048,0.53899 0.97483,0.36045 2.74934,0.0903 0.0882,-1.70853 0.53232,-0.54027 -0.089,-1.08091 0.62048,-0.53898 0,-0.89899 0.53232,-0.18022 0.0882,-1.97867 0.44248,-0.0903 0,-4.31947 -1.32954,-1.26032 c -0.0877,0.45078 -1.5063,0.45078 -1.5063,0.45078 0,0 -0.35432,0.6289 -0.62048,0.6289 -0.26532,0 0.35474,0.80912 0.17674,1.34976 -0.17674,0.53899 -0.88661,0.53899 -0.88661,0.53899 l -1.33077,0.36088 -0.35433,0.45035 -1.41899,0 -0.1759,-1.16955 1.59445,-0.45077 0.88662,-0.44866 0.44415,-0.90112 c 0.0878,-0.89856 1.15238,-0.80955 1.15238,-0.80955 0,0 2.03904,-1.70981 2.1272,-2.51808 0.0903,-0.81035 0.79888,-3.06 2.03947,-3.06 l 2.3056,0 c 0.88581,-0.36088 0.62005,-1.53003 0.62005,-1.53003 l 1.1528,-0.17895 0.17759,0.6297 c 0,0 1.59653,0.17981 1.77285,-0.0903 0.17841,-0.26886 0.53232,-0.89984 0.97648,-0.62976 0.4429,0.26971 1.86144,-0.63013 1.86144,-0.63013 0.0882,-0.62971 2.30475,-0.3596 2.30475,-0.3596 l 0.26658,-0.80955 c 0,0 -1.50672,-2.06944 -1.77286,-2.06944 -0.26657,0 -1.68469,-1.26075 -1.86272,-0.81035 -1.41685,-0.3596 -1.32912,-2.33952 -1.32912,-2.33952 l -0.53232,-1.25904 c 0,-0.72091 -1.32827,-2.25008 -1.59611,-2.06939 -1.33077,-0.98976 -0.35432,-2.15973 0,-2.24965 0.35432,-0.0895 1.24224,-1.34977 1.24224,-1.34977 l 0.44249,-1.25989 1.50715,-0.44866 0.17758,-1.16997 -0.79638,-0.0903 c 0,0 0.88496,-1.61989 1.32912,-1.61989 0.44416,0 3.36982,0 3.63387,-0.18065 0.26616,-0.17896 0.79766,-1.61862 0.79766,-1.88875 0,-0.27012 0.71114,-0.36045 0.9752,-0.45077 0.26616,-0.0891 0.88661,-0.80912 1.06421,-1.16955 0.17758,-0.36215 -0.44165,-2.61222 -0.79723,-2.25216 z"
     style="fill:#ffffff"
     inkscape:connector-curvature="0" />
  <path
     id="path245"
     d="m 319.55426,242.42647 c 0.13287,-0.13315 0.26658,0.40541 0.53232,0.33798 0.26407,-0.0674 0.39861,0.47283 0.13329,0.47283 -0.26658,0 -0.26658,0.33797 -0.26658,0.47282 0,0.13528 0,0.47156 -0.20014,0.67424 -0.19931,0.2027 -0.39945,0.0674 -0.66603,-0.0674 -0.26532,-0.13485 -0.39694,-0.13485 -0.73077,-0.13485 -0.33176,0 -0.0673,0.54026 -0.0673,0.54026 0,0 -1.39638,-0.0674 -1.12982,-0.27055 0.26616,-0.20101 0.53232,-0.27013 0.33343,-0.4054 -0.20014,-0.13485 0,-0.26885 0,-0.53899 0,-0.27055 0.66518,-0.13485 0.46422,-0.33797 -0.19806,-0.2027 0.004,-0.98549 0.33217,-0.54027 l 0.20056,-0.47325 c -0.20056,-0.20185 -0.066,-0.27012 -0.46504,-0.40286 -0.39862,-0.13527 -0.0677,-0.94565 -0.0677,-0.94565 l 0.0677,-0.53984 c 0.13287,-0.67339 1.46197,-0.74208 1.52928,-0.13527 0.0656,0.60768 0,1.01264 0,1.01264 l 0.39945,0.13442 c 0,0 -0.0673,0.4071 -0.39945,0.4071 -0.33385,0 0,0.19973 -0.20014,0.40328 l 0.20056,0.3367 z"
     style="fill:#ffffff"
     inkscape:connector-curvature="0" />
  <path
     id="path247"
     d="m 315.16492,243.10381 c 0.20015,-0.4054 0.66475,-2.15974 1.1975,-1.61947 0.53023,0.53984 0.86368,0 0.86368,0 0,0 0.26616,0.27055 0.13287,0.8104 -0.13287,0.53899 -0.26658,1.07968 -0.6,1.1471 -0.33134,0.0674 -0.59792,0.27012 -0.99488,0.33755 -0.39861,0.0678 -0.59914,-0.67552 -0.59914,-0.67552 z"
     style="fill:#ffffff"
     inkscape:connector-curvature="0" />
</svg>
